<svg width="21" height="21" viewBox="0 0 21 21" fill="none" xmlns="http://www.w3.org/2000/svg">
<path d="M12.8811 0.196871C12.9498 0.211684 13.0184 0.226498 13.089 0.24176C14.4638 0.571015 15.5243 1.2674 16.1505 2.09422C16.3052 2.32847 16.4139 2.56717 16.5068 2.81421C16.5238 2.85865 16.5238 2.85865 16.541 2.90399C16.6048 3.14344 16.5914 3.38981 16.5942 3.63217C16.5953 3.69853 16.5971 3.76488 16.5996 3.83122C16.6031 3.92755 16.6045 4.02381 16.6055 4.12016C16.6069 4.14956 16.6084 4.17896 16.6099 4.20925C16.6089 4.36354 16.5754 4.46752 16.4278 4.58823C16.0276 4.8266 15.583 4.79113 15.0635 4.79012C14.9253 4.78999 14.7871 4.79095 14.6488 4.79198C14.5601 4.79208 14.4714 4.79211 14.3827 4.79206C14.3027 4.79219 14.2227 4.79231 14.1403 4.79243C13.8146 4.77022 13.6038 4.70369 13.3771 4.55548C13.2199 4.34152 13.2334 4.14134 13.2332 3.90817C13.2298 3.3896 13.1239 2.9601 12.5637 2.5634C12.1263 2.29256 11.6162 2.1593 11.0036 2.13942C10.3668 2.16069 9.85371 2.30346 9.39785 2.58353C8.9834 2.89786 8.79823 3.23499 8.78896 3.63896C8.78767 3.68889 8.78637 3.73882 8.78504 3.79026C8.78396 3.84378 8.78288 3.89729 8.78176 3.95242C8.78043 4.00806 8.77907 4.0637 8.77769 4.11934C8.77413 4.26529 8.77092 4.41125 8.76779 4.55721C8.76453 4.70635 8.76093 4.85548 8.75736 5.00461C8.75041 5.29687 8.74384 5.58913 8.73751 5.8814C8.78202 5.88125 8.82652 5.88109 8.87238 5.88094C9.95698 5.87732 11.0416 5.87462 12.1262 5.87292C12.6507 5.87208 13.1752 5.87093 13.6997 5.86906C14.157 5.86742 14.6144 5.86637 15.0717 5.866C15.3137 5.86579 15.5557 5.86529 15.7977 5.8641C16.0683 5.86278 16.3389 5.86275 16.6095 5.86282C16.6891 5.86224 16.7688 5.86165 16.8508 5.86104C17.5229 5.86308 17.9757 5.96848 18.4671 6.25793C18.8544 6.51256 18.983 6.7681 18.9844 7.1158C18.9847 7.14444 18.985 7.17309 18.9853 7.2026C18.9861 7.2981 18.986 7.39358 18.9859 7.48907C18.9863 7.55775 18.9868 7.62642 18.9873 7.69509C18.9884 7.88133 18.9887 8.06756 18.9888 8.2538C18.9889 8.37028 18.9892 8.48675 18.9895 8.60323C18.9907 9.00993 18.9912 9.41663 18.9911 9.82333C18.991 10.2018 18.9924 10.5804 18.9945 10.9589C18.9961 11.2843 18.9968 11.6097 18.9968 11.9352C18.9967 12.1294 18.9971 12.3235 18.9985 12.5177C18.9997 12.7004 18.9997 12.8831 18.9988 13.0659C18.9987 13.1327 18.999 13.1995 18.9997 13.2664C19.0044 13.6931 18.9493 14.0321 18.5706 14.398C18.0396 14.7188 17.4544 14.8485 16.7264 14.8469C16.6571 14.8469 16.6571 14.8469 16.5864 14.8469C16.4358 14.8469 16.2852 14.8462 16.1346 14.8456C16.0293 14.8454 15.9241 14.8453 15.8189 14.8452C15.5434 14.8449 15.268 14.8441 14.9925 14.8432C14.7108 14.8424 14.4291 14.842 14.1475 14.8416C13.5959 14.8407 13.0443 14.8393 12.4927 14.8376C12.514 14.8646 12.5354 14.8916 12.5574 14.9194C12.6013 14.917 12.6452 14.9146 12.6905 14.9122C13.1262 14.8989 13.4046 14.94 13.7815 15.0791C13.9203 15.1333 13.9203 15.1333 14.1113 15.1239C14.1794 15.1104 14.2475 15.0969 14.3177 15.083C14.7848 15.0056 15.1747 15.0211 15.6004 15.1648C15.671 15.2009 15.7399 15.2384 15.8068 15.2772C15.8969 15.3228 15.8969 15.3228 15.9889 15.3692C16.1437 15.3564 16.1437 15.3564 16.3126 15.3283C16.7938 15.3028 17.2132 15.3002 17.6075 15.4919C17.9516 15.6942 18.1641 15.8819 18.2075 16.1857C18.208 16.2281 18.2085 16.2705 18.209 16.3142C18.2098 16.3627 18.2107 16.4111 18.2115 16.4611C18.2116 16.513 18.2118 16.5649 18.2119 16.6183C18.2126 16.6993 18.2126 16.6993 18.2132 16.7818C18.214 16.8959 18.2143 17.01 18.2142 17.1241C18.2142 17.2691 18.2159 17.4141 18.2182 17.5591C18.2196 17.6717 18.2199 17.7843 18.2198 17.8969C18.22 17.976 18.2214 18.055 18.2229 18.1341C18.2195 18.5454 18.0814 18.8865 17.7248 19.2339C17.5199 19.4357 17.4701 19.5731 17.4666 19.8138C17.4651 19.8684 17.4636 19.9229 17.4619 19.9775C17.4597 20.0632 17.4578 20.1489 17.4569 20.2346C17.4559 20.3176 17.4533 20.4005 17.4504 20.4835C17.4495 20.533 17.4485 20.5826 17.4476 20.6336C17.4043 20.8024 17.3578 20.8581 17.1543 20.972C16.923 21.0033 16.6942 20.9999 16.4584 20.9984C16.3875 20.9988 16.3167 20.9991 16.2436 20.9995C16.0091 21.0004 15.7746 20.9998 15.54 20.9991C15.3771 20.9993 15.2142 20.9995 15.0513 20.9997C14.7098 21 14.3683 20.9996 14.0267 20.9986C13.6323 20.9975 13.2378 20.9979 12.8433 20.999C12.4635 21 12.0836 20.9999 11.7038 20.9993C11.5423 20.9992 11.3809 20.9994 11.2194 20.9998C10.9937 21.0004 10.7681 20.9996 10.5424 20.9984C10.4756 20.9988 10.4087 20.9993 10.3399 20.9997C10.0344 20.9968 9.88562 20.9941 9.63415 20.8769C9.47778 20.734 9.48399 20.6433 9.49016 20.471C9.4831 20.2103 9.40152 20.074 9.12344 19.8818C8.81007 19.6453 8.62117 19.3338 8.43452 19.0499C8.07064 18.4964 7.60469 18.0625 6.91074 17.653C6.55352 17.4395 6.36448 17.2273 6.32578 16.9156C6.35535 16.6307 6.44535 16.4265 6.78708 16.2306C7.22661 16.0003 7.66646 15.9912 8.21955 16.0236C8.69593 16.0958 9.02757 16.225 9.44969 16.3916C9.47106 15.8788 9.49243 15.366 9.51444 14.8376C9.01393 14.8397 9.01393 14.8397 8.50331 14.8419C8.29087 14.8425 8.07843 14.8431 7.86599 14.8436C7.5294 14.8443 7.19283 14.8452 6.85625 14.8468C6.58464 14.8482 6.31304 14.8489 6.04142 14.8492C5.93823 14.8495 5.83504 14.8499 5.73185 14.8506C4.92162 14.8556 4.19241 14.8235 3.55795 14.4695C3.11858 14.1379 3.01954 13.8314 3.01597 13.4085C3.01539 13.3656 3.0148 13.3228 3.0142 13.2787C3.01326 13.1884 3.01269 13.0981 3.01245 13.0079C3.01167 12.8696 3.00848 12.7315 3.00522 12.5933C3.00461 12.5055 3.00414 12.4177 3.00383 12.3298C3.00257 12.2885 3.0013 12.2472 3 12.2046C3.00291 11.9198 3.00291 11.9198 3.1897 11.7853C3.41823 11.712 3.56396 11.7063 3.81693 11.7295C3.97005 11.8059 4.05392 11.8653 4.14065 11.9749C4.14695 12.0304 4.14942 12.0861 4.14984 12.1417C4.15029 12.1761 4.15075 12.2105 4.15122 12.246C4.15149 12.2832 4.15176 12.3205 4.15203 12.3589C4.15354 12.4377 4.1551 12.5164 4.15671 12.5952C4.15898 12.7195 4.16088 12.8438 4.16175 12.9681C4.16276 13.0879 4.16536 13.2078 4.16822 13.3276C4.1681 13.3646 4.16797 13.4015 4.16785 13.4396C4.17471 13.6641 4.21116 13.8078 4.46438 13.9788C4.78612 14.0827 5.02482 14.1171 5.39101 14.1191C5.43592 14.1196 5.48082 14.12 5.52708 14.1204C5.67386 14.1216 5.82061 14.122 5.96741 14.1224C6.06982 14.1231 6.17224 14.1238 6.27465 14.1246C6.54298 14.1266 6.8113 14.1278 7.07963 14.1288C7.35394 14.1301 7.62823 14.132 7.90253 14.1338C8.43983 14.1373 8.97713 14.1401 9.51444 14.1424C9.51342 14.1141 9.5124 14.0859 9.51136 14.0568C9.5073 13.9277 9.50479 13.7986 9.5023 13.6695C9.50067 13.6251 9.49904 13.5807 9.49737 13.5349C9.49214 13.1726 9.58699 12.9252 9.98131 12.6529C10.3224 12.4628 10.7177 12.3953 11.1667 12.4094C11.6514 12.4557 11.9575 12.5938 12.2719 12.8257C12.541 13.0903 12.5081 13.3637 12.5008 13.6669C12.5002 13.7127 12.4996 13.7584 12.499 13.8054C12.4975 13.9178 12.4954 14.0301 12.4927 14.1424C13.0842 14.1399 13.6757 14.1367 14.2673 14.1327C14.542 14.1309 14.8167 14.1293 15.0914 14.1282C15.3567 14.1271 15.622 14.1255 15.8873 14.1234C15.9883 14.1227 16.0893 14.1223 16.1903 14.122C16.3323 14.1216 16.4742 14.1205 16.6161 14.1191C16.6968 14.1187 16.7774 14.1182 16.8605 14.1178C17.2115 14.0928 17.4571 14.0455 17.6835 13.8691C17.8182 13.7145 17.8341 13.6246 17.8342 13.4494C17.8345 13.4218 17.8349 13.3942 17.8353 13.3658C17.8361 13.2738 17.8352 13.1819 17.8342 13.09C17.8345 13.0239 17.8348 12.9578 17.8353 12.8917C17.8362 12.7124 17.8354 12.5332 17.8344 12.354C17.8335 12.1663 17.8339 11.9786 17.8341 11.7909C17.8343 11.4757 17.8334 11.1606 17.8319 10.8454C17.8302 10.4812 17.8301 10.117 17.8309 9.75277C17.8316 9.40218 17.8312 9.05158 17.8302 8.70099C17.8299 8.55189 17.8299 8.40279 17.8302 8.2537C17.8305 8.07807 17.8298 7.90245 17.8284 7.72683C17.8281 7.66243 17.828 7.59804 17.8284 7.53365C17.8287 7.44562 17.8279 7.35763 17.8268 7.26961C17.8267 7.2204 17.8265 7.17118 17.8263 7.12048C17.7979 6.9645 17.7463 6.87062 17.6075 6.74021C17.3161 6.61349 17.0471 6.59994 16.703 6.60194C16.6522 6.60175 16.6014 6.60156 16.549 6.60136C16.3793 6.60087 16.2097 6.60126 16.04 6.60165C15.9181 6.60148 15.7962 6.60126 15.6743 6.60099C15.3436 6.60044 15.0129 6.60065 14.6823 6.60104C14.3361 6.60135 13.99 6.60106 13.6438 6.60087C13.0625 6.60065 12.4813 6.60094 11.9 6.60153C11.2281 6.60219 10.5562 6.60198 9.88423 6.6013C9.30721 6.60075 8.7302 6.60067 8.15318 6.60099C7.8086 6.60118 7.46403 6.6012 7.11945 6.6008C6.7955 6.60044 6.47155 6.60069 6.1476 6.6014C6.02874 6.60156 5.90988 6.60152 5.79102 6.60124C5.62871 6.60091 5.46644 6.60133 5.30412 6.60194C5.23367 6.60153 5.23367 6.60153 5.16179 6.60111C4.86074 6.60331 4.656 6.64094 4.39963 6.74021C4.14215 6.92074 4.17815 7.12898 4.18049 7.35884C4.18014 7.40042 4.17979 7.44201 4.17943 7.48485C4.1788 7.575 4.17861 7.66515 4.17881 7.7553C4.1791 7.89797 4.17819 8.04061 4.17697 8.18327C4.17459 8.48609 4.1737 8.7889 4.17303 9.09172C4.17224 9.44263 4.17085 9.79353 4.16785 10.1444C4.16697 10.285 4.16724 10.4256 4.16755 10.5661C4.16694 10.6523 4.16629 10.7384 4.16556 10.8246C4.16596 10.8637 4.16636 10.9028 4.16677 10.9431C4.16384 11.1422 4.15736 11.2837 3.94642 11.4432C3.7445 11.5283 3.71739 11.5365 3.49321 11.5199C3.44914 11.5173 3.40508 11.5146 3.35967 11.5119C3.18571 11.4734 3.13681 11.4184 3.04 11.3205C3.01537 11.2312 3.01537 11.2312 3.0149 11.1326C3.01426 11.095 3.01362 11.0575 3.01295 11.0188C3.01325 10.9779 3.01354 10.937 3.01384 10.8949C3.01339 10.8516 3.01295 10.8082 3.01249 10.7636C3.0113 10.6202 3.01156 10.4769 3.01193 10.3335C3.01163 10.2337 3.01129 10.134 3.0109 10.0342C3.01032 9.82496 3.01048 9.6157 3.01112 9.40644C3.01186 9.13874 3.01056 8.87106 3.00866 8.60337C3.00747 8.39724 3.00749 8.19113 3.00786 7.985C3.00787 7.88634 3.00748 7.78769 3.00668 7.68903C3.00571 7.55072 3.00641 7.41245 3.00752 7.27414C3.00689 7.23366 3.00626 7.19317 3.00562 7.15146C3.01209 6.7638 3.2159 6.48001 3.63155 6.19722C3.81088 6.09249 3.98497 6.03022 4.2054 5.96319C4.25355 5.94843 4.30171 5.93367 4.35133 5.91846C4.5755 5.87173 4.76702 5.8735 5.00256 5.87628C5.08377 5.87702 5.16498 5.87776 5.24864 5.87852C5.31032 5.87947 5.372 5.88042 5.43554 5.8814C5.43497 5.84698 5.43439 5.81257 5.4338 5.77712C5.42857 5.44993 5.42465 5.12275 5.42212 4.79555C5.42078 4.6274 5.41897 4.45927 5.416 4.29113C5.41315 4.12832 5.41163 3.96551 5.41097 3.80269C5.4105 3.74114 5.40958 3.67958 5.40816 3.61803C5.39474 3.01041 5.56369 2.45809 6.01824 1.9145C6.04929 1.87559 6.08033 1.83669 6.11232 1.7966C6.80311 0.985351 8.00466 0.417373 9.38495 0.140639C10.4938 -0.0648406 11.7917 -0.0443715 12.8811 0.196871ZM7.7016 1.62823C7.6582 1.65422 7.6148 1.68021 7.57008 1.70698C7.31116 1.87462 7.14179 2.06573 6.97322 2.27234C6.95188 2.29815 6.93053 2.32397 6.90854 2.35056C6.55694 2.80366 6.50852 3.26043 6.51723 3.75673C6.51759 3.81838 6.51787 3.88002 6.51806 3.94167C6.5188 4.10222 6.5207 4.26276 6.52286 4.4233C6.52486 4.58781 6.52574 4.75232 6.52671 4.91683C6.52878 5.23836 6.53219 5.55987 6.5362 5.8814C6.89941 5.8814 7.26263 5.8814 7.63685 5.8814C7.63813 5.80694 7.63942 5.73249 7.64074 5.65578C7.64515 5.40816 7.65012 5.16054 7.65547 4.91292C7.65868 4.76298 7.66168 4.61304 7.66417 4.46309C7.66657 4.31804 7.66958 4.173 7.67298 4.02795C7.67474 3.94644 7.67591 3.86492 7.67705 3.7834C7.69447 3.09654 7.91738 2.5137 8.69628 2.00667C9.4095 1.62158 10.2555 1.43437 11.1955 1.45314C12.1137 1.50688 12.9014 1.72703 13.5286 2.15987C14.1054 2.63458 14.2993 3.12257 14.3419 3.7088C14.3461 3.76273 14.3461 3.76273 14.3504 3.81775C14.3572 3.90582 14.3638 3.9939 14.3703 4.08198C14.7335 4.08198 15.0967 4.08198 15.4709 4.08198C15.5021 3.18126 15.4184 2.37802 14.4026 1.68701C14.2861 1.6113 14.167 1.53799 14.0465 1.46464C14.0056 1.43749 13.9646 1.41034 13.9224 1.38237C12.1441 0.278977 9.32395 0.607879 7.7016 1.62823ZM10.7303 13.1775C10.5568 13.3372 10.5801 13.4817 10.5839 13.6712C10.5836 13.7104 10.5834 13.7497 10.5831 13.7901C10.5827 13.8753 10.5829 13.9605 10.5836 14.0456C10.5848 14.1804 10.5843 14.3151 10.5834 14.4499C10.5817 14.7359 10.5821 15.0219 10.5827 15.3079C10.5835 15.6393 10.5834 15.9707 10.5812 16.3021C10.5807 16.4349 10.5818 16.5678 10.5829 16.7006C10.5826 16.7819 10.5821 16.8633 10.5816 16.9446C10.5823 16.9816 10.583 17.0186 10.5838 17.0568C10.58 17.3055 10.58 17.3055 10.4347 17.4368C10.2587 17.5093 10.111 17.5213 9.90221 17.5142C9.67853 17.4823 9.56325 17.3945 9.40923 17.2913C9.13577 17.119 8.86132 16.9773 8.52709 16.8543C8.45598 16.828 8.38487 16.8017 8.31161 16.7746C8.04134 16.7065 7.86035 16.7083 7.57211 16.7188C7.48164 16.8069 7.48164 16.8069 7.44262 16.9233C7.61785 17.1217 7.84573 17.2625 8.10625 17.4166C8.83918 17.8672 9.22015 18.4308 9.63862 19.0093C9.88579 19.3605 9.88579 19.3605 10.2792 19.648C10.4856 19.786 10.4856 19.786 10.6151 20.2767C13.4354 20.297 13.4354 20.297 16.3126 20.3176C16.334 20.0207 16.3553 19.7238 16.3773 19.4179C16.5003 19.1275 16.6648 18.9184 16.9426 18.6767C17.0912 18.5381 17.0984 18.4184 17.101 18.2558C17.1018 18.2104 17.1027 18.1651 17.1035 18.1184C17.104 18.0695 17.1045 18.0205 17.105 17.9701C17.1057 17.8947 17.1057 17.8947 17.1065 17.8178C17.1074 17.7114 17.1081 17.605 17.1086 17.4986C17.1095 17.3356 17.1126 17.1726 17.1155 17.0096C17.1161 16.9063 17.1167 16.8031 17.1171 16.6998C17.1188 16.6265 17.1188 16.6265 17.1205 16.5517C17.1203 16.5063 17.1202 16.4608 17.12 16.414C17.1203 16.3741 17.1207 16.3341 17.1211 16.2929C17.0803 16.1563 17.003 16.1075 16.8306 16.0236C16.6288 16.0067 16.6288 16.0067 16.4421 16.0645C16.3261 16.1979 16.3261 16.1979 16.2479 16.3507C16.175 16.4709 16.175 16.4709 16.0536 16.5552C15.8083 16.5857 15.5712 16.5972 15.3571 16.5076C15.2439 16.4019 15.2549 16.3188 15.2524 16.1923C15.2367 15.9806 15.2367 15.9806 15.0663 15.8063C14.8988 15.729 14.8988 15.729 14.7183 15.7322C14.5121 15.7939 14.4683 15.8532 14.3703 15.9827C14.3436 16.0333 14.3169 16.0839 14.2893 16.136C14.176 16.2689 14.176 16.2689 13.9575 16.315C13.5833 16.3068 13.5833 16.3068 13.3991 16.1872C13.3532 16.0725 13.326 15.9609 13.3055 15.8434C13.2656 15.7255 13.2326 15.682 13.0754 15.6146C12.8394 15.6242 12.8394 15.6242 12.6222 15.6555C12.605 15.6841 12.5878 15.7127 12.5701 15.7421C12.5472 15.7793 12.5243 15.8165 12.5008 15.8549C12.4782 15.8919 12.4557 15.9289 12.4325 15.967C12.3632 16.0645 12.3632 16.0645 12.2337 16.1463C11.7608 16.1652 11.7608 16.1652 11.5215 16.0645C11.4502 15.9293 11.4483 15.8287 11.4476 15.6864C11.4471 15.6337 11.4467 15.5811 11.4462 15.5268C11.4461 15.4986 11.446 15.4705 11.4459 15.4415C11.4454 15.3533 11.4444 15.2652 11.4432 15.177C11.4398 14.9263 11.4367 14.6756 11.4357 14.4249C11.435 14.2715 11.4331 14.1181 11.4304 13.9646C11.4296 13.9062 11.4293 13.8478 11.4294 13.7894C11.4296 13.7077 11.428 13.6259 11.4263 13.5442C11.426 13.4977 11.4256 13.4512 11.4252 13.4033C11.3845 13.2565 11.323 13.2066 11.133 13.12C10.8822 13.1054 10.8822 13.1054 10.7303 13.1775Z" fill="currentColor"/>
<path d="M14.694 8.45784C14.9518 8.59897 15.1681 8.74273 15.2767 8.94859C15.2861 9.0345 15.291 9.12063 15.2929 9.20674C15.2954 9.27483 15.2954 9.27483 15.2979 9.34429C15.2544 9.62305 15.0059 9.79207 14.7051 9.98052C14.6672 10.0047 14.6294 10.0289 14.5904 10.0538C14.466 10.1331 14.3408 10.2121 14.2155 10.291C14.1283 10.3462 14.0411 10.4015 13.9539 10.4568C13.7714 10.5725 13.5885 10.6879 13.4053 10.8032C13.1711 10.9507 12.9379 11.0988 12.705 11.2471C12.5253 11.3614 12.345 11.4753 12.1645 11.5891C12.0782 11.6435 11.9922 11.6981 11.9064 11.7528C11.7862 11.8293 11.6652 11.9053 11.544 11.9812C11.509 12.0037 11.474 12.0262 11.4379 12.0494C11.1196 12.2467 10.7861 12.3604 10.3278 12.3608C10.2718 12.3616 10.2158 12.3624 10.1581 12.3632C9.59398 12.3031 9.23943 12.0702 8.85359 11.8231C8.79874 11.7885 8.74389 11.7539 8.68737 11.7183C8.57209 11.6454 8.45714 11.5723 8.34248 11.4991C8.16717 11.3871 7.99068 11.276 7.81401 11.165C7.70186 11.0939 7.58978 11.0227 7.47777 10.9515C7.42517 10.9184 7.37256 10.8853 7.31836 10.8512C6.93431 10.6045 6.70311 10.4159 6.69806 10.0579C6.70716 9.79834 6.77464 9.63088 7.05415 9.43934C7.35989 9.25587 7.65358 9.18204 8.07388 9.17607C8.1363 9.17443 8.19873 9.1728 8.26305 9.17112C8.88567 9.23712 9.29228 9.52345 9.71272 9.79973C9.76876 9.83587 9.82481 9.87201 9.88255 9.90924C10.0194 9.99762 10.1557 10.0864 10.2914 10.1755C10.5045 10.1167 10.6431 10.0445 10.8054 9.93992C10.8793 9.89263 10.8793 9.89263 10.9547 9.84438C11.0074 9.8103 11.0601 9.77622 11.1143 9.7411C11.2268 9.66924 11.3392 9.59738 11.4517 9.52552C11.6285 9.41209 11.8051 9.29856 11.9815 9.18493C12.152 9.07526 12.3231 8.96598 12.4942 8.85673C12.5466 8.82273 12.599 8.78873 12.653 8.75371C13.2412 8.37893 13.9004 8.1919 14.694 8.45784ZM13.8523 9.03038C13.4137 9.27379 12.9983 9.52672 12.5933 9.79222C12.4799 9.86562 12.3663 9.93897 12.2527 10.0123C12.0761 10.1263 11.9 10.2406 11.7251 10.3556C11.5544 10.4676 11.3821 10.5786 11.2094 10.6894C11.1575 10.724 11.1055 10.7586 11.052 10.7943C10.6412 11.0551 10.6412 11.0551 10.3345 11.063C10.1044 11.0352 10.0111 11.0211 9.84904 10.9193C9.80634 10.8931 9.76364 10.867 9.71964 10.84C9.67329 10.8097 9.62694 10.7793 9.57918 10.748C9.5254 10.7134 9.47163 10.6788 9.41622 10.6432C8.99745 10.372 8.99745 10.372 8.79642 10.2373C8.70865 10.1787 8.61953 10.1208 8.53038 10.063C8.47841 10.0286 8.42644 9.99426 8.37289 9.95884C8.2263 9.87635 8.2263 9.87635 8.03826 9.89878C7.99126 9.90911 7.94426 9.91944 7.89583 9.93009C7.84439 10.0242 7.84439 10.0242 7.83108 10.1346C7.90984 10.2215 7.90984 10.2215 8.0385 10.2973C8.08542 10.3277 8.13234 10.3582 8.18068 10.3895C8.2324 10.4217 8.28412 10.4538 8.33741 10.487C8.3899 10.5204 8.4424 10.5538 8.49648 10.5882C8.60781 10.6587 8.71964 10.7288 8.8319 10.7987C9.00391 10.9061 9.17375 11.0146 9.34347 11.1234C9.45176 11.1917 9.56017 11.2598 9.66871 11.3279C9.71965 11.3606 9.77058 11.3932 9.82305 11.4269C9.8712 11.4565 9.91934 11.4862 9.96895 11.5167C10.032 11.5562 10.032 11.5562 10.0963 11.5966C10.223 11.6562 10.223 11.6562 10.3815 11.6487C10.607 11.5928 10.7527 11.5022 10.9199 11.3952C10.9553 11.3732 10.9907 11.3512 11.0272 11.3285C11.1439 11.2557 11.2595 11.1824 11.3751 11.109C11.4559 11.0582 11.5367 11.0074 11.6176 10.9566C11.7868 10.8502 11.9555 10.7435 12.1238 10.6365C12.3398 10.4994 12.557 10.3632 12.7746 10.2271C12.9418 10.1224 13.1081 10.0173 13.2743 9.912C13.3541 9.86156 13.4342 9.81127 13.5145 9.76115C13.6266 9.69106 13.7376 9.62035 13.8483 9.54944C13.8817 9.52883 13.9151 9.50821 13.9495 9.48697C14.0983 9.39045 14.1727 9.33595 14.1965 9.19986C14.1898 9.17092 14.183 9.14198 14.176 9.11217C14.0692 9.08518 13.9624 9.05819 13.8523 9.03038Z" fill="currentColor"/>
</svg>
