<svg width="32" height="32" viewBox="0 0 32 32" fill="none" xmlns="http://www.w3.org/2000/svg">
<path d="M15.6051 0.0630817C15.5094 0.100634 15.3591 0.188251 15.2771 0.263353C14.9354 0.557501 14.9218 0.626343 14.9218 2.39123V4.04346L14.2247 4.14986C10.5551 4.73815 7.49362 7.16018 6.31824 10.4146C5.85355 11.7163 5.81938 11.9854 5.76472 15.39C5.71688 18.1313 5.69638 18.4755 5.57337 18.9574C5.06769 20.8787 4.03581 22.4997 2.49825 23.7639C1.87639 24.2771 1.58254 24.7277 1.45954 25.3285C1.26136 26.3424 1.86955 27.3687 2.94927 27.8319L3.33878 28.0008L6.9811 28.0321L10.6234 28.0634L10.8216 28.6079C11.2999 29.9034 12.2703 30.9173 13.5892 31.5056C14.4981 31.9124 14.9354 32 15.981 32C16.6985 32 16.9718 31.975 17.4092 31.8623C19.2679 31.3742 20.662 30.135 21.2087 28.489L21.359 28.0384L24.9877 28.0196L28.6232 28.0008L29.081 27.8006C29.6414 27.5565 30.0514 27.181 30.3247 26.6553C30.5092 26.2923 30.5366 26.1859 30.5366 25.6852C30.5366 25.172 30.5161 25.0781 30.3111 24.7026C30.1471 24.396 29.9489 24.1707 29.5594 23.839C27.8441 22.3807 26.8738 20.8537 26.3954 18.8385C26.2656 18.294 26.2451 17.9498 26.1972 15.171C26.1426 11.829 26.1221 11.6475 25.6779 10.4271C24.892 8.24289 23.1904 6.35283 20.9695 5.19502C19.9855 4.67557 18.5504 4.22496 17.4707 4.09353L17.1153 4.04972L17.0948 2.38497C17.0743 0.757771 17.0675 0.707703 16.9103 0.476141C16.6438 0.0755997 16.063 -0.105896 15.6051 0.0630817ZM17.1769 6.08998C20.6415 6.57188 23.3886 9.08152 23.908 12.242C23.9831 12.6989 24.0105 13.4562 24.0105 15.2211C24.0105 16.5228 24.0446 17.8559 24.0856 18.1938C24.2428 19.5269 24.605 20.6784 25.2405 21.8676C25.9102 23.1255 26.8806 24.3209 27.9125 25.1595C28.4045 25.56 28.4728 25.7102 28.2678 25.9168C28.1653 26.0232 27.6938 26.0294 16.0015 26.0294C3.94014 26.0294 3.8513 26.0294 3.71463 25.9043C3.63946 25.8354 3.57796 25.7353 3.57796 25.6915C3.57796 25.6414 3.85814 25.3473 4.19982 25.0469C5.94922 23.501 7.0426 21.7799 7.60296 19.7084C7.91047 18.5506 7.95147 18.0937 7.95147 15.5277C7.95147 12.4611 8.04031 11.7789 8.59383 10.5272C9.07218 9.46329 10.0904 8.24289 11.0881 7.54194C12.8307 6.31528 15.0243 5.79583 17.1769 6.08998ZM19.0083 28.2011C18.4001 29.5091 16.8215 30.2601 15.3181 29.966C14.7646 29.8533 14.1427 29.5529 13.7259 29.1774C13.3705 28.8583 12.94 28.2762 12.94 28.1072C12.94 28.0509 13.6029 28.0321 16.0151 28.0321H19.0903L19.0083 28.2011Z" fill="currentColor"/>
<path d="M5.45744 1.61499C5.34811 1.67757 5.02009 1.95295 4.73992 2.22206C1.84246 5.01333 0.0452224 8.99371 0.00422076 12.7425C-0.00944647 13.6125 0.00422076 13.7001 0.134059 13.8691C0.62608 14.4824 1.46661 14.4824 1.95863 13.8753C2.08164 13.7314 2.10897 13.5561 2.15681 12.8114C2.38232 9.12514 3.75587 6.12734 6.42782 3.49253C6.95401 2.97307 7.10435 2.68519 7.02918 2.32219C6.89934 1.66506 6.04514 1.28329 5.45744 1.61499Z" fill="currentColor"/>
<path d="M25.5208 1.60254C25.3978 1.65886 25.2202 1.81532 25.1245 1.94675C24.9742 2.14702 24.9537 2.23464 24.981 2.55382C25.0083 2.9043 25.0357 2.95436 25.3637 3.29232C27.0857 5.03843 28.0903 6.47788 28.8146 8.22399C29.4297 9.70098 29.8192 11.5347 29.8192 12.9178C29.8192 13.5875 29.9764 13.9505 30.3659 14.1883C30.6734 14.3761 31.2542 14.3635 31.5754 14.1507C31.9786 13.8879 32.0333 13.6751 31.9854 12.5486C31.8488 9.32548 30.6187 6.1587 28.473 3.55518C27.7623 2.68525 26.7919 1.72145 26.5185 1.59628C26.2179 1.47111 25.8215 1.47111 25.5208 1.60254Z" fill="currentColor"/>
</svg>
