<svg width="32" height="32" viewBox="0 0 32 32" fill="none" xmlns="http://www.w3.org/2000/svg">
<path d="M6.25179 2.97571C6.33944 2.97545 6.4271 2.97511 6.51476 2.97469C6.75418 2.97379 6.9936 2.97405 7.23303 2.97451C7.49181 2.97481 7.75059 2.97403 8.00937 2.97339C8.51579 2.97232 9.02221 2.97226 9.52863 2.97259C9.94039 2.97284 10.3521 2.97275 10.7639 2.97242C10.8519 2.97235 10.8519 2.97235 10.9417 2.97228C11.0609 2.97218 11.1801 2.97208 11.2993 2.97199C12.4165 2.97113 13.5336 2.97147 14.6508 2.97219C15.6719 2.97281 16.6931 2.972 17.7143 2.9705C18.7638 2.96898 19.8133 2.96838 20.8628 2.96879C21.4517 2.96901 22.0405 2.96887 22.6293 2.96778C23.1306 2.96686 23.6319 2.96682 24.1331 2.96791C24.3887 2.96844 24.6442 2.96858 24.8997 2.96762C25.1341 2.96675 25.3684 2.96705 25.6027 2.96826C25.7268 2.9686 25.8508 2.96773 25.9749 2.9668C26.8893 2.97426 27.5678 3.27609 28.2343 3.89447C28.8832 4.58012 29.0285 5.33627 29.0242 6.25179C29.0244 6.33944 29.0248 6.4271 29.0252 6.51476C29.0261 6.75418 29.0258 6.9936 29.0254 7.23303C29.0251 7.49181 29.0259 7.75059 29.0265 8.00937C29.0276 8.51579 29.0276 9.02221 29.0273 9.52863C29.027 9.94039 29.0271 10.3521 29.0275 10.7639C29.0275 10.8226 29.0276 10.8813 29.0276 10.9417C29.0277 11.0609 29.0278 11.1801 29.0279 11.2993C29.0288 12.4165 29.0284 13.5336 29.0277 14.6508C29.0271 15.6719 29.0279 16.6931 29.0294 17.7143C29.0309 18.7638 29.0315 19.8133 29.0311 20.8628C29.0309 21.4517 29.031 22.0405 29.0321 22.6293C29.033 23.1306 29.0331 23.6319 29.032 24.1331C29.0314 24.3887 29.0313 24.6442 29.0323 24.8997C29.0331 25.1341 29.0328 25.3684 29.0316 25.6027C29.0313 25.7268 29.0322 25.8508 29.0331 25.9749C29.0256 26.8893 28.7238 27.5678 28.1054 28.2343C27.4198 28.8832 26.6636 29.0285 25.7481 29.0242C25.6604 29.0244 25.5728 29.0248 25.4851 29.0252C25.2457 29.0261 25.0063 29.0258 24.7669 29.0254C24.5081 29.0251 24.2493 29.0259 23.9905 29.0265C23.4841 29.0276 22.9777 29.0276 22.4713 29.0273C22.0595 29.027 21.6477 29.0271 21.236 29.0275C21.148 29.0275 21.148 29.0275 21.0582 29.0276C20.939 29.0277 20.8198 29.0278 20.7005 29.0279C19.5834 29.0288 18.4662 29.0284 17.3491 29.0277C16.3279 29.0271 15.3068 29.0279 14.2856 29.0294C13.2361 29.0309 12.1866 29.0315 11.137 29.0311C10.5482 29.0309 9.95938 29.031 9.37055 29.0321C8.86928 29.033 8.36803 29.0331 7.86676 29.032C7.61122 29.0314 7.3557 29.0313 7.10016 29.0323C6.86583 29.0331 6.63152 29.0328 6.39719 29.0316C6.27313 29.0313 6.14907 29.0322 6.02502 29.0331C5.11055 29.0256 4.43208 28.7238 3.76557 28.1054C3.11665 27.4198 2.97143 26.6636 2.97571 25.7481C2.97545 25.6604 2.97511 25.5728 2.97469 25.4851C2.97379 25.2457 2.97405 25.0063 2.97451 24.7669C2.97481 24.5081 2.97403 24.2493 2.97339 23.9905C2.97232 23.4841 2.97226 22.9777 2.97259 22.4713C2.97284 22.0595 2.97275 21.6477 2.97242 21.236C2.97237 21.1773 2.97232 21.1186 2.97228 21.0582C2.97218 20.939 2.97208 20.8198 2.97199 20.7005C2.97113 19.5834 2.97147 18.4662 2.97219 17.3491C2.97281 16.3279 2.972 15.3068 2.9705 14.2856C2.96898 13.2361 2.96838 12.1866 2.96879 11.137C2.96901 10.5482 2.96887 9.95938 2.96778 9.37055C2.96686 8.86928 2.96682 8.36803 2.96791 7.86676C2.96844 7.61122 2.96858 7.3557 2.96762 7.10016C2.96675 6.86583 2.96705 6.63152 2.96826 6.39719C2.9686 6.27313 2.96773 6.14907 2.9668 6.02502C2.97426 5.11055 3.27609 4.43208 3.89447 3.76557C4.58012 3.11665 5.33627 2.97143 6.25179 2.97571ZM5.25385 5.35932C4.96017 5.82209 4.98199 6.2744 4.98365 6.80804C4.98341 6.88969 4.98317 6.97134 4.98292 7.05546C4.98228 7.28142 4.98242 7.50737 4.98268 7.73333C4.98284 7.97729 4.98228 8.22125 4.98181 8.4652C4.98101 8.94288 4.9809 9.42056 4.98104 9.89824C4.98116 10.2866 4.98105 10.6749 4.98078 11.0632C4.98074 11.1185 4.98071 11.1738 4.98067 11.2307C4.98059 11.343 4.98052 11.4554 4.98044 11.5677C4.97976 12.6208 4.9799 13.6739 4.98028 14.727C4.9806 15.6901 4.9799 16.6532 4.97871 17.6163C4.9775 18.6056 4.97698 19.5949 4.97722 20.5842C4.97734 21.1394 4.97718 21.6947 4.9763 22.2499C4.97555 22.7226 4.97546 23.1953 4.97622 23.668C4.97659 23.9091 4.97666 24.1502 4.97591 24.3913C4.9751 24.6528 4.97576 24.9144 4.97655 25.176C4.97609 25.2518 4.97563 25.3277 4.97516 25.4059C4.97792 25.8388 4.98238 26.3081 5.26712 26.6613C5.70437 27.0633 6.25316 27.018 6.80804 27.0162C6.88969 27.0165 6.97134 27.0167 7.05546 27.017C7.28142 27.0176 7.50737 27.0175 7.73333 27.0172C7.97729 27.017 8.22125 27.0176 8.4652 27.0181C8.94288 27.0189 9.42056 27.019 9.89824 27.0188C10.2866 27.0187 10.6749 27.0188 11.0632 27.0191C11.1185 27.0191 11.1738 27.0192 11.2307 27.0192C11.343 27.0193 11.4554 27.0194 11.5677 27.0194C12.6208 27.0201 13.6739 27.02 14.727 27.0196C15.6901 27.0193 16.6532 27.02 17.6163 27.0212C18.6056 27.0224 19.5949 27.0229 20.5842 27.0227C21.1394 27.0225 21.6947 27.0227 22.2499 27.0236C22.7226 27.0243 23.1953 27.0244 23.668 27.0237C23.9091 27.0233 24.1502 27.0232 24.3913 27.024C24.6528 27.0248 24.9144 27.0241 25.176 27.0233C25.2898 27.024 25.2898 27.024 25.4059 27.0247C25.8388 27.022 26.3081 27.0175 26.6613 26.7328C27.0633 26.2955 27.018 25.7467 27.0162 25.1918C27.0165 25.1102 27.0167 25.0285 27.017 24.9444C27.0176 24.7185 27.0175 24.4925 27.0172 24.2665C27.017 24.0226 27.0176 23.7786 27.0181 23.5347C27.0189 23.057 27.019 22.5793 27.0188 22.1016C27.0187 21.7133 27.0188 21.325 27.0191 20.9367C27.0192 20.8538 27.0192 20.8538 27.0192 20.7692C27.0193 20.6568 27.0194 20.5445 27.0194 20.4322C27.0201 19.3791 27.02 18.326 27.0196 17.2729C27.0193 16.3098 27.02 15.3467 27.0212 14.3835C27.0224 13.3943 27.0229 12.405 27.0227 11.4157C27.0225 10.8605 27.0227 10.3052 27.0236 9.74996C27.0243 9.27726 27.0244 8.80456 27.0237 8.33185C27.0233 8.09077 27.0232 7.8497 27.024 7.60861C27.0248 7.34704 27.0241 7.08549 27.0233 6.82392C27.0238 6.74804 27.0243 6.67215 27.0247 6.59397C27.022 6.1611 27.0175 5.69175 26.7328 5.33862C26.2955 4.93655 25.7467 4.98193 25.1918 4.98365C25.1102 4.98341 25.0285 4.98317 24.9444 4.98292C24.7185 4.98228 24.4925 4.98242 24.2665 4.98268C24.0226 4.98284 23.7786 4.98228 23.5347 4.98181C23.057 4.98101 22.5793 4.9809 22.1016 4.98104C21.7133 4.98116 21.325 4.98105 20.9367 4.98078C20.8814 4.98074 20.8261 4.98071 20.7692 4.98067C20.6568 4.98059 20.5445 4.98052 20.4322 4.98044C19.3791 4.97976 18.326 4.9799 17.2729 4.98028C16.3098 4.9806 15.3467 4.9799 14.3835 4.97871C13.3943 4.9775 12.405 4.97698 11.4157 4.97722C10.8605 4.97734 10.3052 4.97718 9.74996 4.9763C9.27726 4.97555 8.80456 4.97546 8.33185 4.97622C8.09077 4.97659 7.8497 4.97666 7.60861 4.97591C7.34704 4.9751 7.08549 4.97576 6.82392 4.97655C6.74804 4.97609 6.67215 4.97563 6.59397 4.97516C6.11764 4.9782 5.59785 4.98522 5.25385 5.35932Z" fill="currentColor"/>
<path d="M23.543 10.0742C23.8434 10.3097 24.0086 10.4873 24.0664 10.8672C24.105 11.1871 23.9726 11.4194 23.8125 11.6875C23.7008 11.8297 23.5765 11.9547 23.4468 12.0805C23.393 12.1343 23.393 12.1343 23.338 12.1892C23.2203 12.3064 23.1017 12.4227 22.9832 12.539C22.9004 12.6211 22.8178 12.7033 22.7351 12.7855C22.5181 13.0012 22.3004 13.2162 22.0825 13.431C21.7342 13.7745 21.3872 14.1192 21.04 14.4638C20.9193 14.5834 20.7984 14.7027 20.6774 14.8219C20.6024 14.8961 20.5274 14.9702 20.4524 15.0444C20.4193 15.0769 20.3862 15.1094 20.3521 15.1428C20.1792 15.3143 20.0152 15.49 19.8563 15.6746C19.5956 15.9756 19.3158 16.2559 19.0343 16.5373C18.9767 16.5951 18.9191 16.6529 18.8598 16.7124C18.7033 16.8694 18.5466 17.0262 18.3899 17.183C18.2919 17.2811 18.1939 17.3792 18.0959 17.4774C17.7537 17.8201 17.4114 18.1627 17.069 18.5051C16.7501 18.8239 16.4316 19.1431 16.1133 19.4624C15.8393 19.7372 15.565 20.0118 15.2906 20.2862C15.127 20.4498 14.9635 20.6135 14.8002 20.7774C14.6184 20.9599 14.4362 21.1418 14.254 21.3237C14.2 21.378 14.1461 21.4322 14.0905 21.4882C14.016 21.5623 14.016 21.5623 13.94 21.6379C13.897 21.6809 13.8541 21.7239 13.8098 21.7683C13.5719 21.9759 13.3836 22.0194 13.0703 22.0234C13.0073 22.0252 12.9443 22.027 12.8794 22.0288C12.4628 21.9662 12.1796 21.6337 11.897 21.3445C11.8585 21.3056 11.8199 21.2668 11.7803 21.2268C11.6579 21.1033 11.5359 20.9794 11.4141 20.8554C10.7938 20.2193 10.7938 20.2193 10.1372 19.6218C9.81207 19.3332 9.50645 19.023 9.1982 18.7166C9.11526 18.6344 9.03205 18.5525 8.94856 18.4708C8.82666 18.3516 8.70561 18.2316 8.58472 18.1113C8.54761 18.0753 8.5105 18.0393 8.47226 18.0022C8.18395 17.7123 8.02543 17.4498 7.97266 17.0351C8.01922 16.656 8.14087 16.3993 8.44141 16.1601C8.72587 16.0088 8.92881 15.9736 9.25 16C9.63224 16.1376 9.90035 16.3665 10.1777 16.6555C10.2161 16.6943 10.2544 16.7332 10.2939 16.7732C10.4153 16.8964 10.5358 17.0204 10.6562 17.1445C10.8155 17.3073 10.9751 17.4697 11.1348 17.6321C11.1729 17.6709 11.211 17.7097 11.2502 17.7497C11.4757 17.9784 11.7061 18.1962 11.9515 18.4036C12.166 18.5898 12.3631 18.7941 12.5625 18.9961C12.605 19.0388 12.6474 19.0815 12.6912 19.1256C12.7943 19.2294 12.8972 19.3334 13 19.4375C13.2329 19.3401 13.3809 19.197 13.5583 19.0194C13.5881 18.9897 13.6179 18.96 13.6486 18.9294C13.7469 18.8313 13.8448 18.7328 13.9426 18.6343C14.0113 18.5655 14.0799 18.4969 14.1486 18.4282C14.2926 18.2841 14.4364 18.1398 14.58 17.9954C14.7629 17.8114 14.9462 17.6278 15.1297 17.4444C15.2716 17.3024 15.4134 17.1603 15.5552 17.0181C15.6226 16.9505 15.6901 16.8828 15.7576 16.8153C15.8527 16.72 15.9476 16.6246 16.0424 16.5291C16.0962 16.4751 16.15 16.4211 16.2054 16.3654C16.3346 16.2298 16.4578 16.0931 16.58 15.9514C16.8301 15.6635 17.096 15.3933 17.3649 15.1231C17.4184 15.069 17.4719 15.015 17.527 14.9594C17.7026 14.7822 17.8785 14.6053 18.0544 14.4284C18.1154 14.3672 18.1763 14.3059 18.2373 14.2446C18.4908 13.9897 18.7445 13.7349 18.9983 13.4803C19.3605 13.1172 19.7221 12.7535 20.083 12.389C20.3378 12.1317 20.5933 11.875 20.8493 11.6188C21.0017 11.4661 21.1538 11.3132 21.3054 11.1597C21.4742 10.9886 21.6443 10.8187 21.8146 10.6489C21.8889 10.5731 21.8889 10.5731 21.9646 10.4958C22.4329 10.0327 22.8962 9.7884 23.543 10.0742Z" fill="#4ADE80"/>
</svg>
