<svg width="21" height="16" viewBox="0 0 21 16" fill="none" xmlns="http://www.w3.org/2000/svg">
<path d="M1.93824 0.0106706C1.96843 0.0105249 1.99863 0.0103792 2.02974 0.0102291C2.1305 0.00984376 2.23125 0.0100462 2.33201 0.0102485C2.40515 0.0100932 2.47829 0.00990193 2.55143 0.00967795C2.75211 0.00917003 2.95279 0.00918051 3.15346 0.00927855C3.37002 0.00929552 3.58658 0.0088367 3.80313 0.00844266C4.2273 0.00775254 4.65147 0.00752389 5.07564 0.00747754C5.42048 0.00743804 5.76532 0.0072672 6.11016 0.00700376C7.08809 0.00627189 8.06602 0.00588845 9.04395 0.00595078C9.12301 0.00595577 9.12301 0.00595577 9.20368 0.00596085C9.25645 0.00596424 9.30923 0.00596764 9.36361 0.00597114C10.2188 0.00600492 11.074 0.0052097 11.9292 0.0040378C12.8075 0.00284368 13.6859 0.00227004 14.5642 0.00234182C15.0573 0.0023694 15.5503 0.00214156 16.0433 0.00124658C16.4631 0.000489412 16.8829 0.000309434 17.3027 0.000873366C17.5168 0.00114452 17.7309 0.00115025 17.945 0.000428454C18.1412 -0.000226271 18.3374 -0.00010519 18.5336 0.00061829C18.6044 0.000745634 18.6751 0.000595791 18.7459 0.000131255C19.3775 -0.0037389 19.9047 0.0930881 20.3879 0.538207C20.4191 0.573347 20.4503 0.608487 20.4825 0.644693C20.512 0.674423 20.512 0.674423 20.5421 0.704753C20.8019 0.981332 20.9781 1.39121 20.979 1.77393C20.9792 1.81872 20.9794 1.86351 20.9796 1.90965C20.9797 1.98374 20.9797 1.98374 20.9797 2.05933C20.9799 2.11166 20.9801 2.16399 20.9802 2.2179C20.9807 2.36345 20.981 2.50901 20.9811 2.65456C20.9814 2.81144 20.9819 2.96833 20.9823 3.12521C20.9833 3.50432 20.9839 3.88344 20.9844 4.26255C20.9846 4.36967 20.9848 4.47679 20.9849 4.5839C20.986 5.24928 20.9869 5.91466 20.9874 6.58004C20.9875 6.7342 20.9876 6.88835 20.9877 7.0425C20.9878 7.08081 20.9878 7.11913 20.9878 7.1586C20.9883 7.7787 20.9897 8.3988 20.9914 9.0189C20.9931 9.6558 20.9941 10.2927 20.9943 10.9296C20.9945 11.2871 20.9949 11.6446 20.9963 12.0021C20.9974 12.3066 20.9979 12.6112 20.9974 12.9158C20.9972 13.0711 20.9973 13.2263 20.9983 13.3816C20.9994 13.5504 20.9989 13.7191 20.9983 13.8879C20.9988 13.9364 20.9994 13.9848 21 14.0348C20.9947 14.5939 20.7877 15.0257 20.4185 15.428C20.0261 15.796 19.5993 15.9887 19.0618 15.9893C19.0165 15.9895 19.0165 15.9895 18.9703 15.9898C18.8695 15.9902 18.7687 15.99 18.668 15.9898C18.5948 15.9899 18.5217 15.9901 18.4486 15.9903C18.2479 15.9908 18.0472 15.9908 17.8465 15.9907C17.63 15.9907 17.4134 15.9912 17.1969 15.9916C16.7727 15.9922 16.3485 15.9925 15.9244 15.9925C15.5795 15.9926 15.2347 15.9927 14.8898 15.993C13.9119 15.9937 12.934 15.9941 11.9561 15.994C11.877 15.994 11.877 15.994 11.7963 15.994C11.7435 15.994 11.6908 15.994 11.6364 15.994C10.7812 15.994 9.926 15.9948 9.0708 15.996C8.19245 15.9972 7.3141 15.9977 6.43575 15.9977C5.94272 15.9976 5.44969 15.9979 4.95666 15.9988C4.53686 15.9995 4.11707 15.9997 3.69727 15.9991C3.48318 15.9989 3.26909 15.9988 3.055 15.9996C2.85878 16.0002 2.66258 16.0001 2.46636 15.9994C2.3956 15.9993 2.32485 15.9994 2.25409 15.9999C1.62249 16.0037 1.09531 15.9069 0.612145 15.4618C0.580924 15.4267 0.549703 15.3915 0.517536 15.3553C0.497865 15.335 0.478194 15.3147 0.457926 15.2938C0.187475 15.001 0.0219784 14.6229 0.0209899 14.221C0.0207823 14.1761 0.0205747 14.1312 0.0203608 14.085C0.0203405 14.0357 0.02032 13.9864 0.020299 13.9357C0.0201197 13.8833 0.0199405 13.8309 0.0197558 13.777C0.0192667 13.6315 0.0190352 13.4861 0.0188482 13.3406C0.0186044 13.1838 0.0181295 13.0269 0.0176908 12.8701C0.0166879 12.4911 0.0160891 12.1122 0.015561 11.7333C0.0154091 11.6262 0.0152465 11.5192 0.0150802 11.4121C0.0140475 10.7469 0.0131456 10.0817 0.0126367 9.41654C0.0125168 9.26248 0.0123956 9.10842 0.0122722 8.95436C0.0122417 8.91607 0.0122113 8.87778 0.0121798 8.83833C0.0116625 8.2185 0.0103037 7.59868 0.00859829 6.97885C0.00686086 6.34214 0.00589841 5.70543 0.00568486 5.06871C0.00554539 4.71136 0.00506697 4.35402 0.00371687 3.99668C0.00256853 3.69224 0.0021225 3.38781 0.0025793 3.08336C0.0027908 2.92818 0.00267802 2.77302 0.00166023 2.61784C0.000563158 2.44915 0.00107215 2.2805 0.00172094 2.11181C0.001153 2.06338 0.000585151 2.01494 0 1.96504C0.00527378 1.40601 0.2124 0.974267 0.581461 0.571971C0.973879 0.204039 1.40075 0.0112585 1.93824 0.0106706ZM1.40481 1.58488C1.26877 1.77936 1.27134 1.94842 1.29486 2.18224C1.48536 2.64296 2.21228 2.97014 2.61108 3.23513C3.27359 3.67551 3.93269 4.12071 4.58825 4.57168C5.2158 5.00325 5.84672 5.42919 6.48022 5.85169C7.05162 6.23289 7.61973 6.61874 8.18593 7.00786C8.69644 7.3586 9.20757 7.7082 9.72268 8.05194C9.74757 8.06862 9.77247 8.0853 9.79813 8.10249C9.86663 8.14835 9.93528 8.19398 10.0039 8.23959C10.0418 8.26478 10.0797 8.28997 10.1187 8.31593C10.294 8.42314 10.4632 8.44193 10.6636 8.41555C10.9103 8.32104 11.1285 8.16245 11.3444 8.01185C11.3781 7.98863 11.4118 7.96541 11.4464 7.94149C11.5192 7.89133 11.5918 7.84108 11.6644 7.79076C11.8617 7.65404 12.0595 7.51803 12.2573 7.38203C12.2982 7.35391 12.339 7.32579 12.3811 7.29683C12.8017 7.00798 13.2257 6.72456 13.6502 6.44167C14.283 6.01968 14.9122 5.59258 15.539 5.1615C16.1008 4.77532 16.6656 4.39421 17.2325 4.01588C18.0258 3.48599 18.0258 3.48599 18.8158 2.95102C18.8761 2.90997 18.9364 2.86905 18.9969 2.82824C19.0793 2.77252 19.1615 2.71639 19.2436 2.66013C19.2675 2.64413 19.2913 2.62812 19.3159 2.61163C19.4845 2.4951 19.6134 2.36869 19.7051 2.18224C19.7274 1.97634 19.7282 1.81359 19.6361 1.62644C19.5083 1.47911 19.399 1.37216 19.2142 1.30958C19.1185 1.30555 19.0227 1.30414 18.927 1.304C18.8974 1.3039 18.8678 1.30381 18.8374 1.30371C18.7375 1.30343 18.6377 1.30345 18.5379 1.30346C18.4659 1.30333 18.3939 1.30317 18.3219 1.303C18.1235 1.30258 17.9251 1.30243 17.7266 1.30232C17.5129 1.30216 17.2991 1.30176 17.0853 1.3014C16.5688 1.30057 16.0523 1.30016 15.5358 1.29979C15.2928 1.2996 15.0497 1.29938 14.8067 1.29916C13.999 1.29846 13.1913 1.29785 12.3837 1.29755C12.174 1.29747 11.9644 1.29739 11.7547 1.29731C11.6766 1.29728 11.6766 1.29728 11.5968 1.29725C10.7521 1.29691 9.90744 1.29585 9.06275 1.29451C8.19611 1.29313 7.32946 1.29238 6.46281 1.29225C5.97599 1.29216 5.48916 1.29179 5.00234 1.29073C4.58785 1.28983 4.17337 1.2895 3.75889 1.2899C3.54732 1.29009 3.33576 1.29001 3.12419 1.28921C2.9306 1.28848 2.73703 1.28851 2.54344 1.28916C2.47332 1.28926 2.4032 1.28908 2.33308 1.28858C2.23789 1.28796 2.14276 1.28836 2.04757 1.28901C1.99467 1.28897 1.94176 1.28893 1.88725 1.28889C1.67131 1.32027 1.54661 1.42139 1.40481 1.58488ZM1.25395 3.88601C1.25208 5.16678 1.25063 6.44754 1.24977 7.7283C1.24967 7.87956 1.24956 8.03081 1.24945 8.18207C1.24943 8.21218 1.24941 8.24229 1.24939 8.27332C1.24903 8.76068 1.24839 9.24805 1.24763 9.73542C1.24687 10.2356 1.24641 10.7358 1.24625 11.236C1.24615 11.5169 1.2459 11.7978 1.2453 12.0787C1.24474 12.3431 1.24457 12.6075 1.24469 12.8719C1.24467 12.969 1.24451 13.066 1.24419 13.163C1.24379 13.2956 1.24388 13.4281 1.24411 13.5606C1.24387 13.599 1.24363 13.6373 1.24339 13.6768C1.24467 13.9585 1.25522 14.2583 1.45084 14.4774C1.47051 14.5005 1.49018 14.5235 1.51044 14.5472C1.68444 14.6949 1.86258 14.7008 2.08247 14.701C2.11206 14.7011 2.14165 14.7013 2.17213 14.7014C2.27156 14.7017 2.37097 14.7015 2.4704 14.7013C2.54229 14.7014 2.61418 14.7015 2.68607 14.7017C2.88384 14.7022 3.08162 14.7021 3.27939 14.7019C3.4926 14.7018 3.70581 14.7022 3.91901 14.7025C4.33679 14.703 4.75456 14.7031 5.17234 14.703C5.51182 14.7029 5.8513 14.703 6.19078 14.7032C6.26319 14.7032 6.26319 14.7032 6.33706 14.7032C6.43511 14.7033 6.53317 14.7033 6.63122 14.7034C7.55127 14.7038 8.47132 14.7037 9.39136 14.7035C10.2335 14.7033 11.0757 14.7037 11.9179 14.7045C12.7821 14.7053 13.6464 14.7057 14.5106 14.7055C14.996 14.7055 15.4814 14.7056 15.9668 14.7061C16.38 14.7066 16.7932 14.7067 17.2065 14.7062C17.4174 14.7059 17.6283 14.7059 17.8392 14.7064C18.0321 14.7068 18.2251 14.7067 18.4181 14.7061C18.488 14.706 18.5579 14.7061 18.6278 14.7065C18.7227 14.7069 18.8175 14.7065 18.9124 14.706C18.9651 14.706 19.0179 14.706 19.0722 14.706C19.2883 14.6823 19.4181 14.607 19.5722 14.4541C19.7671 14.1957 19.7578 13.8713 19.7559 13.5606C19.756 13.5191 19.756 13.4776 19.7561 13.4348C19.7562 13.2963 19.7558 13.1578 19.7553 13.0193C19.7553 12.9197 19.7553 12.8202 19.7554 12.7207C19.7554 12.4788 19.755 12.237 19.7545 11.9952C19.7539 11.7136 19.7538 11.4321 19.7537 11.1506C19.7535 10.6486 19.753 10.1466 19.7522 9.64458C19.7515 9.15708 19.7509 8.66957 19.7505 8.18207C19.7505 8.15199 19.7505 8.12192 19.7505 8.09093C19.7504 7.94004 19.7503 7.78916 19.7502 7.63827C19.7493 6.38752 19.7479 5.13677 19.746 3.88601C19.6156 3.93774 19.5011 3.98978 19.3853 4.07006C19.3559 4.09034 19.3264 4.11062 19.2961 4.13152C19.2643 4.15362 19.2326 4.17572 19.2 4.19849C19.1661 4.22183 19.1323 4.24516 19.0974 4.26921C19.024 4.31987 18.9506 4.37061 18.8773 4.42143C18.6783 4.55925 18.4789 4.69639 18.2795 4.83351C18.2382 4.86188 18.197 4.89026 18.1545 4.91949C17.7328 5.20903 17.3078 5.49319 16.8822 5.77678C16.2861 6.17427 15.693 6.57586 15.1026 6.98189C14.4214 7.45028 13.7365 7.91258 13.0489 8.37124C13.014 8.39454 12.9791 8.41785 12.9431 8.44186C12.8739 8.48798 12.8048 8.53406 12.7356 8.58011C12.5541 8.7011 12.3734 8.82314 12.1936 8.9467C12.1556 8.97277 12.1175 8.99885 12.0783 9.02571C12.0061 9.07522 11.9341 9.12494 11.8622 9.1749C11.28 9.57378 10.7364 9.75532 10.0351 9.63949C9.78207 9.57163 9.56691 9.45826 9.34744 9.31598C9.31929 9.2979 9.29113 9.27983 9.26213 9.26121C8.93311 9.04846 8.61063 8.82577 8.28811 8.60306C7.63787 8.15422 6.98423 7.71098 6.327 7.27278C5.69449 6.85095 5.06559 6.42411 4.43905 5.99319C3.7846 5.54323 3.12583 5.10017 2.46492 4.66007C2.39377 4.61265 2.32263 4.56522 2.25149 4.51779C2.2179 4.49542 2.18431 4.47304 2.14971 4.45C1.90674 4.28762 1.6678 4.12021 1.43116 3.94847C1.34322 3.87851 1.34322 3.87851 1.25395 3.88601Z" fill="currentColor"/>
</svg>
