<svg width="32" height="32" viewBox="0 0 32 32" fill="none" xmlns="http://www.w3.org/2000/svg">
    <path
        d="M15.2651 0.0937729C14.4582 0.312576 14.6896 0.0937729 7.38418 7.39558C0.848055 13.9284 0.47903 14.3098 0.29139 14.7036C-0.246511 15.8727 -0.027598 17.1855 0.848055 18.0607C1.43599 18.6546 2.13026 18.9422 2.97464 18.9422H3.42498V23.8934C3.42498 29.3573 3.42498 29.3322 3.81277 30.1199C4.06295 30.6263 4.68216 31.2765 5.18879 31.5578C5.38269 31.6703 5.76422 31.8204 6.03317 31.8891C6.50227 32.0017 6.70867 32.0079 9.91106 31.9954C13.2198 31.9766 13.3011 31.9766 13.47 31.8454C13.5638 31.7766 13.7014 31.6391 13.7702 31.5453C13.9015 31.3765 13.9015 31.3015 13.9203 27.6568L13.9328 23.9434H15.9968H18.0609L18.0734 27.6568C18.0922 31.3015 18.0922 31.3765 18.2235 31.5453C18.2923 31.6391 18.4299 31.7766 18.5237 31.8454C18.6926 31.9766 18.7739 31.9766 22.0826 31.9954C25.285 32.0079 25.4914 32.0017 25.9605 31.8891C26.2295 31.8204 26.611 31.6703 26.8049 31.5578C27.3115 31.2765 27.9307 30.6263 28.1809 30.1199C28.5687 29.3322 28.5687 29.3573 28.5687 23.8934V18.9422H29.0253C30.8579 18.9359 32.2402 17.348 31.965 15.5601C31.8211 14.6536 31.7023 14.4973 29.5319 12.3155L27.568 10.3401V5.56387C27.568 0.918976 27.5617 0.781443 27.4429 0.531382C27.3616 0.368841 27.2302 0.225056 27.0739 0.137533C26.8362 0.00625038 26.7799 0 24.622 0C22.1514 0 22.1139 0.00625038 21.8325 0.431356C21.6886 0.637657 21.6886 0.675167 21.6886 2.50687C21.6886 3.53837 21.6698 4.37608 21.6448 4.37608C21.6198 4.37608 20.7254 3.50712 19.6558 2.44435C17.6106 0.406349 17.4604 0.293821 16.7036 0.0937729C16.2658 -0.0187569 15.6966 -0.0187569 15.2651 0.0937729ZM16.4597 2.00049C16.8287 2.17554 29.901 15.26 30.0386 15.5788C30.4013 16.4541 29.5444 17.3355 28.65 17.0042C28.55 16.9667 25.8479 14.3098 22.4704 10.9402C17.1352 5.61389 16.4409 4.94497 16.2345 4.90746C15.6403 4.79493 16.0531 4.42609 9.52327 10.9402C6.14575 14.3098 3.44374 16.9667 3.34367 17.0042C2.83078 17.1917 2.22408 16.9604 1.99266 16.4853C1.83629 16.1665 1.82378 15.8977 1.95513 15.5788C2.08648 15.2663 15.165 2.18179 15.5278 2.00049C15.8467 1.84421 16.1407 1.84421 16.4597 2.00049ZM25.6916 5.17003V8.47084L24.6283 7.40808L23.565 6.34532V4.11352V1.87546H24.6283H25.6916V5.17003ZM21.3633 12.5218L26.6923 17.8482L26.6798 23.412C26.661 28.7696 26.6548 28.9822 26.5422 29.2197C26.3858 29.5323 26.0919 29.8261 25.7791 29.9824C25.5477 30.0949 25.3601 30.1012 22.7394 30.1199L19.9373 30.1387V26.4565V22.7744L19.7997 22.5681C19.7184 22.4555 19.5745 22.2993 19.4807 22.2305C19.3056 22.0992 19.2555 22.0992 15.9968 22.0992C12.7382 22.0992 12.6881 22.0992 12.513 22.2305C12.4192 22.2993 12.2753 22.4555 12.2003 22.5681L12.0564 22.7744V26.4503V30.1324H9.34814C6.30838 30.1324 6.25208 30.1262 5.81426 29.7011C5.68291 29.5761 5.52029 29.3573 5.45774 29.226C5.3389 28.9822 5.33265 28.7946 5.31388 23.412L5.30137 17.8482L10.6303 12.5218C13.5638 9.58987 15.9781 7.18928 15.9968 7.18928C16.0156 7.18928 18.4299 9.58987 21.3633 12.5218Z"
        fill="currentColor" />
</svg>