<svg width="32" height="32" viewBox="0 0 32 32" fill="none" xmlns="http://www.w3.org/2000/svg">
<g clip-path="url(#clip0_3392_410)">
<path d="M15.9767 -0.027432C16.039 -0.0272419 16.1013 -0.0270518 16.1655 -0.026856C17.1908 -0.0222533 18.1814 0.0380316 19.1876 0.249912C19.2521 0.263306 19.3165 0.2767 19.3829 0.2905C22.4228 0.943123 25.0893 2.47907 27.3126 4.62491C27.3714 4.68115 27.4302 4.73738 27.4908 4.79532C27.8579 5.15332 28.1836 5.5344 28.5001 5.93741C28.5496 5.99904 28.5991 6.06068 28.65 6.12418C30.1187 7.98441 31.1634 10.1608 31.6759 12.4765C31.6873 12.5277 31.6987 12.5789 31.7105 12.6317C31.9401 13.7419 32.0348 14.8444 32.0275 15.9765C32.0273 16.0387 32.0271 16.1009 32.027 16.1651C32.0227 17.1919 31.9603 18.1796 31.7501 19.1874C31.7387 19.2431 31.7274 19.2988 31.7157 19.3562C31.0719 22.4063 29.5253 25.0846 27.3751 27.3124C27.3189 27.3712 27.2626 27.43 27.2047 27.4906C26.8467 27.8577 26.4656 28.1834 26.0626 28.4999C26.001 28.5494 25.9394 28.5988 25.8759 28.6498C23.8364 30.26 21.4291 31.3385 18.8751 31.8124C18.8218 31.8226 18.7686 31.8329 18.7137 31.8434C16.9573 32.1651 14.9394 32.1543 13.1876 31.8124C13.1316 31.8024 13.0755 31.7923 13.0177 31.7819C9.81996 31.2033 7.00773 29.6141 4.68762 27.3749C4.62881 27.3187 4.56999 27.2624 4.5094 27.2045C4.1423 26.8465 3.81665 26.4654 3.50012 26.0624C3.45065 26.0008 3.40118 25.9391 3.35022 25.8756C1.73639 23.8316 0.671906 21.431 0.187619 18.8749C0.177387 18.8243 0.167155 18.7737 0.156613 18.7216C-0.185237 16.9725 -0.177679 14.869 0.187619 13.1249C0.200036 13.064 0.212454 13.0031 0.225247 12.9403C0.872931 9.84401 2.30789 7.08912 4.50012 4.81241C4.53148 4.77968 4.56284 4.74695 4.59515 4.71323C5.01765 4.27443 5.45664 3.87511 5.93762 3.49991C5.99909 3.45061 6.06056 3.4013 6.1239 3.3505C7.97656 1.87718 10.1657 0.835614 12.4767 0.324131C12.5535 0.307008 12.5535 0.307008 12.6319 0.289539C13.7421 0.0599294 14.8446 -0.0348278 15.9767 -0.027432ZM16.9376 2.06241C16.9376 3.85679 16.9376 5.65116 16.9376 7.49991C18.3195 7.49991 19.7014 7.49991 21.1251 7.49991C20.8458 6.10321 19.9538 4.71351 19.0626 3.62491C19.016 3.56789 19.016 3.56789 18.9685 3.50971C18.4361 2.87262 17.7271 2.32556 16.9376 2.06241ZM13.6251 2.93741C13.5717 2.97939 13.5183 3.02136 13.4633 3.06461C12.2487 4.05479 11.3581 5.85451 10.8751 7.31241C10.8751 7.37429 10.8751 7.43616 10.8751 7.49991C12.257 7.49991 13.6389 7.49991 15.0626 7.49991C15.0626 5.70554 15.0626 3.91116 15.0626 2.06241C14.5649 2.06241 13.9801 2.63347 13.6251 2.93741ZM20.9376 2.81241C21.0203 3.04175 21.1221 3.22147 21.2665 3.41739C21.4885 3.72824 21.6809 4.04735 21.8634 4.38272C21.8953 4.44126 21.9271 4.49979 21.96 4.56009C22.4622 5.50291 22.8287 6.49504 23.1876 7.49991C24.5076 7.49991 25.8276 7.49991 27.1876 7.49991C27.0296 7.23654 26.8634 7.01174 26.6642 6.78116C26.6314 6.74316 26.5986 6.70516 26.5648 6.666C26.0112 6.032 25.4193 5.44956 24.7501 4.93741C24.7152 4.91052 24.6802 4.88363 24.6442 4.85593C24.0786 4.42306 23.4956 4.0369 22.8751 3.68741C22.8361 3.66542 22.7971 3.64342 22.7569 3.62076C21.8862 3.07844 21.8862 3.07844 20.9376 2.81241ZM11.0001 2.81241C9.12492 3.54231 7.51297 4.6087 6.06262 5.99991C6.01114 6.04882 5.95966 6.09772 5.90661 6.14811C5.4928 6.55044 5.07214 6.98087 4.81262 7.49991C6.13262 7.49991 7.45262 7.49991 8.81262 7.49991C9.12199 6.6646 9.12199 6.6646 9.43762 5.81241C9.88944 4.80369 10.379 3.81277 11.0626 2.93741C11.0317 2.87554 11.0317 2.87554 11.0001 2.81241ZM3.56262 9.37491C2.905 10.6902 2.43194 11.9283 2.13684 13.3632C2.1239 13.425 2.11097 13.4868 2.09764 13.5504C1.99743 14.0622 1.97306 14.5308 1.93762 15.0624C3.79387 15.0624 5.65012 15.0624 7.56262 15.0624C7.62449 14.2374 7.68637 13.4124 7.75012 12.5624C7.88083 11.618 8.01956 10.6849 8.2146 9.75298C8.25585 9.564 8.25585 9.564 8.25012 9.37491C6.70324 9.37491 5.15637 9.37491 3.56262 9.37491ZM10.2501 9.37491C10.0022 10.3826 10.0022 10.3826 9.80481 11.3983C9.79496 11.4586 9.78511 11.5188 9.77496 11.5808C9.69155 12.1157 9.63191 12.6528 9.57824 13.1913C9.57026 13.27 9.56227 13.3487 9.55404 13.4298C9.50261 13.9808 9.50012 14.504 9.50012 15.0624C11.3357 15.0624 13.1714 15.0624 15.0626 15.0624C15.0626 13.1855 15.0626 11.3087 15.0626 9.37491C13.4745 9.37491 11.8864 9.37491 10.2501 9.37491ZM16.9376 9.37491C16.9376 11.2518 16.9376 13.1287 16.9376 15.0624C18.7732 15.0624 20.6089 15.0624 22.5001 15.0624C22.5001 14.4342 22.488 13.8325 22.4259 13.2108C22.4219 13.1699 22.4179 13.129 22.4137 13.0868C22.3515 12.4613 22.2664 11.8422 22.1603 11.2226C22.1482 11.1521 22.1362 11.0816 22.1237 11.0089C22.024 10.4547 21.8875 9.9244 21.7501 9.37491C20.162 9.37491 18.5739 9.37491 16.9376 9.37491ZM23.7501 9.37491C23.8435 9.99177 23.8435 9.99177 23.9491 10.6066C24.2126 12.089 24.3436 13.558 24.4376 15.0624C26.2939 15.0624 28.1501 15.0624 30.0626 15.0624C30.0079 14.2886 30.0079 14.2886 29.8946 13.5273C29.8839 13.4693 29.8731 13.4113 29.862 13.3516C29.4623 11.2271 29.4623 11.2271 28.4376 9.37491C28.2912 9.36898 28.1467 9.36706 28.0002 9.36782C27.9545 9.36781 27.9088 9.3678 27.8617 9.36779C27.7098 9.36783 27.558 9.36832 27.4061 9.36881C27.3011 9.36892 27.1961 9.36901 27.0911 9.36908C26.8142 9.36932 26.5373 9.36993 26.2604 9.37062C25.978 9.37126 25.6957 9.37154 25.4133 9.37186C24.8589 9.37253 24.3045 9.3736 23.7501 9.37491ZM1.93762 16.9374C1.97694 17.5272 2.01724 18.0659 2.13684 18.6366C2.15072 18.7037 2.1646 18.7707 2.17891 18.8397C2.45668 20.1415 2.90457 21.3713 3.50012 22.5624C5.06762 22.5624 6.63512 22.5624 8.25012 22.5624C8.14699 21.9849 8.04387 21.4074 7.93762 20.8124C7.88829 20.4812 7.84107 20.1523 7.8009 19.8202C7.79143 19.7484 7.78197 19.6767 7.77221 19.6027C7.66213 18.7155 7.62232 17.833 7.56262 16.9374C5.70637 16.9374 3.85012 16.9374 1.93762 16.9374ZM9.50012 16.9374C9.50012 17.5657 9.51223 18.1673 9.57434 18.789C9.57836 18.8299 9.58238 18.8708 9.58652 18.913C9.64885 19.5397 9.73402 20.1602 9.83996 20.7812C9.85202 20.8522 9.86408 20.9232 9.87651 20.9964C9.97248 21.5312 10.1089 22.0329 10.2501 22.5624C11.8382 22.5624 13.4264 22.5624 15.0626 22.5624C15.0626 20.7062 15.0626 18.8499 15.0626 16.9374C13.227 16.9374 11.3914 16.9374 9.50012 16.9374ZM16.9376 16.9374C16.9376 18.7937 16.9376 20.6499 16.9376 22.5624C18.5257 22.5624 20.1139 22.5624 21.7501 22.5624C21.9095 21.9647 22.0573 21.3878 22.1603 20.7812C22.1733 20.7046 22.1864 20.628 22.1999 20.5491C22.2957 19.9641 22.368 19.3787 22.4259 18.789C22.4336 18.7115 22.4414 18.634 22.4494 18.5542C22.499 18.009 22.5001 17.4897 22.5001 16.9374C20.6645 16.9374 18.8289 16.9374 16.9376 16.9374ZM24.4376 16.9374C24.3757 17.7418 24.3139 18.5462 24.2501 19.3749C24.116 20.4518 23.9446 21.4926 23.7501 22.5624C25.3176 22.5624 26.8851 22.5624 28.5001 22.5624C28.9287 21.6588 28.9287 21.6588 29.2931 20.7343C29.3166 20.6681 29.3401 20.602 29.3643 20.5338C29.7602 19.3916 30.0626 18.152 30.0626 16.9374C28.2064 16.9374 26.3501 16.9374 24.4376 16.9374ZM4.75012 24.4374C4.93284 24.7155 5.12321 24.9711 5.33996 25.2226C5.37247 25.2603 5.40497 25.298 5.43846 25.3369C5.9908 25.97 6.58214 26.5512 7.25012 27.0624C7.28506 27.0893 7.32001 27.1162 7.35602 27.1439C7.92181 27.5769 8.50521 27.9616 9.12512 28.3124C9.18263 28.3454 9.18263 28.3454 9.2413 28.3791C9.82767 28.7135 10.4252 28.9663 11.0626 29.1874C10.9831 28.9683 10.8906 28.7986 10.7501 28.6132C9.88938 27.4042 9.33814 26.007 8.85669 24.6134C8.82163 24.5005 8.82163 24.5005 8.75012 24.4374C8.62547 24.4315 8.50062 24.4301 8.37584 24.4303C8.25572 24.4303 8.25572 24.4303 8.13317 24.4303C8.04512 24.4306 7.95707 24.431 7.86902 24.4313C7.77942 24.4314 7.68983 24.4315 7.60024 24.4316C7.36402 24.4318 7.1278 24.4324 6.89158 24.4331C6.6507 24.4338 6.40982 24.434 6.16894 24.4344C5.696 24.435 5.22306 24.4361 4.75012 24.4374ZM10.8126 24.4374C11.1082 25.2417 11.1082 25.2417 11.4493 26.0233C11.4727 26.0722 11.4961 26.1211 11.5201 26.1714C11.922 26.993 12.3978 27.7487 13.0001 28.4374C13.0491 28.5019 13.0981 28.5663 13.1486 28.6327C13.6673 29.2009 14.3321 29.6939 15.0626 29.9374C15.0626 28.1224 15.0626 26.3074 15.0626 24.4374C13.6601 24.4374 12.2576 24.4374 10.8126 24.4374ZM16.9376 24.4374C16.9376 26.2524 16.9376 28.0674 16.9376 29.9374C17.928 29.4973 18.588 28.9736 19.2501 28.1249C19.2944 28.0713 19.3387 28.0176 19.3844 27.9623C20.0339 27.1487 21.1876 25.4994 21.1876 24.4374C19.7851 24.4374 18.3826 24.4374 16.9376 24.4374ZM23.2501 24.4374C22.9994 25.039 22.9994 25.039 22.7579 25.6437C22.2829 26.8541 21.733 28.0237 20.9376 29.0624C20.9582 29.1037 20.9789 29.1449 21.0001 29.1874C22.8852 28.4212 24.4563 27.3959 25.9376 25.9999C25.9834 25.9568 26.0291 25.9137 26.0763 25.8693C26.5237 25.4352 26.9047 24.9556 27.2501 24.4374C25.9301 24.4374 24.6101 24.4374 23.2501 24.4374Z" fill="currentColor"/>
</g>
<defs>
<clipPath id="clip0_3392_410">
<rect width="32" height="32" fill="white"/>
</clipPath>
</defs>
</svg>
