<svg width="32" height="39" viewBox="0 0 32 39" fill="none" xmlns="http://www.w3.org/2000/svg">
<path d="M14.7313 0.0750436C9.39733 0.602299 4.64997 4.27661 2.0171 9.92812C-0.192874 14.6734 -0.608949 20.4815 0.878009 25.6799C1.66923 28.4315 2.84243 30.7135 4.5613 32.839C10.1954 39.8251 19.2194 40.6243 25.6788 34.7256C26.9475 33.564 28.3936 31.7103 29.2803 30.1203C30.8423 27.2946 31.7222 24.1722 31.9609 20.6215C32.0427 19.361 32.0155 18.9903 31.8245 18.5372C31.3743 17.4745 30.1738 17.285 29.4849 18.1665C29.2053 18.5207 29.0893 18.9409 29.0893 19.5917C29.0893 22.9942 27.9229 26.7591 26.0062 29.5189C24.2669 32.0316 21.8728 33.8441 19.2331 34.6597C18.0394 35.0304 17.446 35.1128 15.9931 35.1128C13.7968 35.1128 12.303 34.7091 10.3523 33.5969C7.63753 32.0399 5.50259 29.4695 4.19979 26.1742C3.62002 24.716 3.3199 23.5544 3.05388 21.8161C2.89018 20.7204 2.89018 17.9688 3.05388 16.8731C3.31307 15.143 3.62002 13.9732 4.19297 12.5232C5.02512 10.4307 6.13011 8.70885 7.56932 7.25066C11.0616 3.7164 15.7817 2.61246 20.0789 4.32604C20.6859 4.56495 22.282 5.40526 22.398 5.54531C22.4116 5.57003 21.9955 6.11376 21.4703 6.76459C20.4949 7.95915 20.3585 8.19807 20.3585 8.79947C20.3585 9.44206 20.72 10.1094 21.2111 10.373C21.4635 10.513 21.7364 10.5295 24.7239 10.5295C27.7319 10.5295 27.9843 10.513 28.2367 10.373C28.3867 10.2906 28.5914 10.1176 28.6937 9.98579C29.0893 9.47501 29.0893 9.48325 29.0893 5.27345V1.4179L28.912 0.981263C28.605 0.248049 27.957 -0.114439 27.2886 0.0750436C26.968 0.165666 26.852 0.281003 25.7607 1.58266L24.5807 2.99142L24.3624 2.83489C22.0297 1.18722 19.7242 0.305718 17.1322 0.0668052C16.1296 -0.0238168 15.7271 -0.0238168 14.7313 0.0750436Z" fill="currentColor"/>
</svg>
