<svg width="32" height="32" viewBox="0 0 32 32" fill="none" xmlns="http://www.w3.org/2000/svg">
    <path
        d="M11.0755 0.0526123C8.89819 0.498835 6.96487 2.23819 5.78862 4.82446C4.90642 6.78237 4.53728 8.54904 4.54354 10.8894C4.54354 12.392 4.61236 12.9839 4.92519 14.3681C5.75108 18.0017 7.89712 20.761 10.5249 21.5532C11.3446 21.7991 12.5521 21.8173 13.3404 21.5988C17.157 20.5424 19.8098 15.47 19.4532 9.91503C19.2655 6.9645 18.2457 4.17789 16.7128 2.42032C15.7242 1.29111 14.7544 0.608114 13.5782 0.225637C12.9588 0.0252934 11.6574 -0.065773 11.0755 0.0526123ZM13.597 1.63716C14.7357 2.06516 15.6429 2.8028 16.5376 4.0595C20.1727 9.13186 18.6461 17.9926 13.7847 20.0415C12.3519 20.6517 10.6313 20.4513 9.26108 19.5316C8.34134 18.9123 7.34027 17.7103 6.68958 16.4444C6.30792 15.6977 5.83867 14.2407 5.65723 13.2116C5.51332 12.4284 5.48829 12.1097 5.48829 10.935C5.48204 9.45059 5.5884 8.56726 5.92001 7.3743C6.78343 4.22342 8.82311 1.89214 11.1381 1.4186C11.795 1.29111 12.9087 1.38217 13.597 1.63716Z"
        fill="currentColor" />
    <path
        d="M11.6888 3.1489C11.5075 3.41299 11.5013 3.45852 11.5263 4.03224C11.5575 4.70612 11.695 4.97021 12.0201 4.97021C12.3389 4.97021 12.4514 4.69702 12.4514 3.93207C12.4514 3.30371 12.4389 3.23997 12.2889 3.06694C12.0638 2.80285 11.9138 2.83017 11.6888 3.1489Z"
        fill="currentColor" />
    <path
        d="M14.0228 7.00134L12.6713 8.94104L12.3147 8.81354C11.8142 8.63141 11.3637 8.83176 10.982 9.38726C10.5941 9.94276 10.4565 10.6349 10.5879 11.3452L10.6755 11.846L10.0936 12.7203C9.75573 13.2302 9.51172 13.6765 9.51172 13.7766C9.51172 14.1136 9.74947 14.4414 9.99348 14.4414C10.1874 14.4414 10.2875 14.3412 10.7943 13.6127C11.3074 12.8842 11.3887 12.8022 11.5013 12.8842C11.7078 13.039 12.3272 13.0026 12.6088 12.8113C12.9154 12.6019 13.2282 12.1374 13.3533 11.6912C13.4659 11.2996 13.4847 10.562 13.3909 10.1977C13.322 9.95187 13.3658 9.87901 14.6422 8.02127C15.8685 6.22728 15.9561 6.08157 15.9561 5.77195C15.9561 5.40769 15.7371 5.06164 15.4994 5.06164C15.4118 5.06164 14.8987 5.73552 14.0228 7.00134ZM12.3773 10.3617C12.6964 10.7988 12.4649 11.6184 12.0207 11.6184C11.6202 11.6093 11.3762 11.1084 11.5201 10.5984C11.6703 10.0794 12.077 9.96097 12.3773 10.3617Z"
        fill="currentColor" />
    <path
        d="M6.84616 10.2433C6.68349 10.3435 6.5083 10.6895 6.5083 10.899C6.5083 10.9809 6.56461 11.154 6.63969 11.2906C6.75857 11.5091 6.80237 11.5273 7.23408 11.5273C7.75964 11.5273 7.94734 11.3634 7.94734 10.899C7.94734 10.4346 7.76589 10.2251 7.3467 10.1887C7.14648 10.1796 6.91499 10.1978 6.84616 10.2433Z"
        fill="currentColor" />
    <path
        d="M16.3944 10.2251C16.1816 10.3435 16.0815 10.562 16.0815 10.899C16.0815 11.3816 16.2442 11.5273 16.7698 11.5273C17.2953 11.5273 17.458 11.3816 17.458 10.899C17.458 10.4163 17.2953 10.2251 16.8449 10.1887C16.6509 10.1796 16.4444 10.1887 16.3944 10.2251Z"
        fill="currentColor" />
    <path
        d="M11.6634 17.0003C11.4821 17.2918 11.4946 18.3663 11.6821 18.6395C11.8634 18.9036 12.1884 18.8945 12.3384 18.6213C12.5072 18.3299 12.4947 17.2371 12.3259 16.9912C12.1572 16.7454 11.8196 16.7545 11.6634 17.0003Z"
        fill="currentColor" />
    <path
        d="M20.8986 8.76793C20.5795 8.94095 20.4732 9.54199 20.7109 9.88804C20.8298 10.0611 20.9174 10.0702 22.4941 10.0702C23.8831 10.0702 24.1521 10.0884 24.1521 10.1977C24.1521 10.2705 23.4326 14.2319 22.5567 18.9946C21.6807 23.7573 20.9612 27.6823 20.9612 27.7005C20.9612 27.7187 19.3595 27.7369 17.4012 27.7369H13.8474L13.8036 27.2543C13.5595 24.4585 11.0694 23.9486 9.54276 26.3891C9.36757 26.6623 9.15484 27.0812 9.0735 27.3089L8.91709 27.7369H7.89099C6.94623 27.7369 6.87115 27.7278 6.90243 27.573C6.91495 27.491 7.13393 26.2981 7.3842 24.9321L7.84094 22.446L7.7158 22.2001C7.55313 21.8905 7.1965 21.8176 7.02757 22.0635C6.88366 22.273 5.92639 27.4273 5.93265 27.9555C5.9389 28.3835 6.09532 28.7295 6.38939 28.939C6.56457 29.0756 6.7773 29.1029 7.67201 29.1029H8.7419L8.77944 29.6038C8.79821 29.8952 8.8858 30.2959 8.98591 30.5691C9.52398 31.9897 10.7753 32.3995 12.0016 31.5435C12.5084 31.1974 13.1904 30.2594 13.4282 29.6038L13.6096 29.1029H18.934H24.2585L24.3023 29.5309C24.4212 30.8331 25.1219 31.8258 26.0354 31.9806C27.074 32.1536 28.3504 31.1519 28.926 29.7221C29.1637 29.1393 29.17 29.1211 29.4828 29.0665C30.0584 28.9572 30.6591 28.3562 30.9093 27.6458C30.9719 27.4728 31.2409 26.1615 31.5037 24.7317C32.0543 21.7994 32.1106 21.1984 31.8666 20.6338C31.7853 20.4426 31.3848 19.9599 30.8968 19.4408L30.0647 18.5757L30.0334 14.9786L30.0021 11.3724L29.8269 10.999C29.7331 10.7896 29.5391 10.5255 29.389 10.4162C29.1324 10.2159 29.0636 10.2068 27.1491 10.1794L25.1657 10.1521L25.1344 9.77876C25.0906 9.33253 24.8404 8.92274 24.5338 8.79525C24.3023 8.70418 21.0676 8.67686 20.8986 8.76793ZM29.0323 11.7094C29.0636 11.7822 29.0949 12.1191 29.0949 12.447V13.0571L27.8936 13.0935C26.7486 13.1209 26.6673 13.1391 26.3357 13.3576C25.9603 13.6126 25.5912 14.0953 25.4347 14.5324C25.2846 14.9604 24.8404 17.4465 24.8404 17.8563C24.8466 18.6577 25.2283 19.3498 25.7789 19.5319C25.9353 19.5865 26.8237 19.6321 27.7622 19.6321H29.4703L30.1398 20.3333C31.0345 21.253 31.1095 21.3532 31.0845 21.6355C31.0658 21.8541 31.0407 21.8632 30.609 21.9087C30.0897 21.9633 29.9708 22.0908 29.9708 22.5917C29.9708 22.9742 30.146 23.1927 30.5026 23.2565C30.7341 23.2929 30.7905 23.3293 30.7654 23.4477C30.7529 23.5297 30.6028 24.322 30.4401 25.2144C30.1147 26.9629 29.9959 27.3271 29.6643 27.573C29.4015 27.7642 29.3452 27.7187 29.3452 27.3362C29.3452 26.5166 28.8947 25.5513 28.3191 25.1233C27.8373 24.7591 27.0928 24.7226 26.4921 25.0232C25.685 25.433 25.0531 26.1979 24.6401 27.2543L24.4524 27.7369H23.2074C22.3001 27.7369 21.9623 27.7096 21.9623 27.6276C21.9623 27.573 22.1375 26.5713 22.3502 25.4056L22.7318 23.2838L25.66 23.2565C28.4317 23.2292 28.5881 23.2201 28.7132 23.0561C28.8822 22.8285 28.8884 22.3367 28.7195 22.0908C28.6006 21.9178 28.513 21.9087 25.8101 21.9087C23.8643 21.9087 23.0259 21.8814 23.0259 21.8085C23.0259 21.7266 24.5838 13.2119 24.8216 12.0008L24.9154 11.5181L26.9426 11.5454C28.6694 11.5728 28.9823 11.591 29.0323 11.7094ZM29.0949 16.3537V18.2661H27.5995C26.7737 18.2661 26.0291 18.2297 25.9415 18.175C25.7288 18.0566 25.7351 17.9291 25.9916 16.5358C26.2231 15.27 26.2606 15.1243 26.4859 14.8238C26.7174 14.5051 26.9113 14.4595 28.05 14.4504L29.0949 14.4413V16.3537ZM12.3958 26.38C13.1091 26.9082 13.009 28.5929 12.2018 29.6857C11.7514 30.2959 11.2759 30.6055 10.7628 30.6055C10.0558 30.6055 9.69917 30.0955 9.69917 29.0847C9.69917 27.2816 11.3635 25.606 12.3958 26.38ZM27.9061 26.3527C28.4254 26.7261 28.5693 27.7642 28.244 28.7295C27.9061 29.713 27.1366 30.5144 26.4233 30.6146C26.123 30.6601 26.0166 30.6328 25.7851 30.4507C25.3597 30.1319 25.247 29.8405 25.247 29.1211C25.2533 28.2378 25.5786 27.4182 26.1668 26.7898C26.6986 26.2161 27.4619 26.0249 27.9061 26.3527Z"
        fill="currentColor" />
    <path
        d="M10.9632 27.9465C10.8882 28.0649 10.8257 28.2743 10.8257 28.4109C10.8257 28.675 11.0695 29.103 11.2257 29.103C11.4008 29.103 11.6258 28.9027 11.6946 28.675C11.7946 28.3472 11.7821 28.2106 11.607 27.9647C11.4133 27.6733 11.1445 27.6642 10.9632 27.9465Z"
        fill="currentColor" />
    <path
        d="M26.5731 27.8369C26.2856 28.0828 26.3168 28.7931 26.6294 29.0025C26.8481 29.1482 26.9294 29.13 27.1169 28.9115C27.4357 28.5472 27.2607 27.7367 26.8606 27.7367C26.7606 27.7367 26.6356 27.7822 26.5731 27.8369Z"
        fill="currentColor" />
    <path
        d="M0.139019 19.9328C-0.104992 20.3062 -0.0173979 20.8162 0.320463 20.9892C0.451854 21.0529 1.35282 21.0894 3.01709 21.0894C5.08806 21.0894 5.5448 21.062 5.6887 20.9528C5.97651 20.7433 6.03907 20.2242 5.82009 19.9055C5.70121 19.7325 5.61362 19.7234 2.98581 19.7234H0.27041L0.139019 19.9328Z"
        fill="currentColor" />
    <path
        d="M1.63432 22.8739C1.55924 23.0105 1.50293 23.2108 1.50293 23.3292C1.50293 23.5842 1.69063 23.8847 1.89084 23.9575C1.97218 23.9849 2.74801 24.0031 3.62395 23.9849C5.20063 23.9575 5.20689 23.9575 5.32576 23.739C5.48218 23.4658 5.47593 23.0833 5.31951 22.8374C5.19437 22.6371 5.15683 22.6371 3.47379 22.6371H1.75945L1.63432 22.8739Z"
        fill="currentColor" />
    <path
        d="M3.13641 25.7881C2.97374 26.0977 2.96748 26.4074 3.13015 26.6441C3.29908 26.89 3.48053 26.9446 4.13748 26.9082C4.64427 26.8718 4.71935 26.8536 4.82571 26.6532C4.98839 26.3618 4.97587 25.9885 4.80069 25.7517C4.6693 25.5696 4.58796 25.5513 3.96229 25.5513C3.28031 25.5513 3.26154 25.5604 3.13641 25.7881Z"
        fill="currentColor" />
</svg>