<svg width="16" height="20" viewBox="0 0 16 20" fill="none" xmlns="http://www.w3.org/2000/svg">
    <path
        d="M9.12471 0.165149C9.15645 0.173728 9.1882 0.182307 9.2209 0.191146C10.5245 0.554566 11.6559 1.33355 12.3848 2.46135C12.4124 2.50304 12.44 2.54472 12.4684 2.58768C13.0115 3.45903 13.2283 4.43904 13.2236 5.44987C13.2235 5.51901 13.2235 5.51901 13.2234 5.58955C13.2232 5.73546 13.2227 5.88136 13.2222 6.02726C13.222 6.12673 13.2218 6.22621 13.2217 6.32569C13.2212 6.56837 13.2206 6.81105 13.2197 7.05374C13.297 7.05293 13.297 7.05293 13.3758 7.05211C13.4442 7.05168 13.5127 7.05126 13.5811 7.05085C13.615 7.05046 13.6488 7.05007 13.6837 7.04967C14.1892 7.04741 14.6836 7.18733 15.0622 7.52912C15.3637 7.84718 15.6095 8.26296 15.6105 8.7067C15.6107 8.74156 15.6109 8.77643 15.6111 8.81234C15.611 8.86956 15.611 8.86956 15.611 8.92794C15.6112 8.96858 15.6113 9.00923 15.6115 9.05111C15.6119 9.18776 15.6121 9.32441 15.6122 9.46106C15.6125 9.55887 15.6127 9.65668 15.613 9.75448C15.6138 10.0483 15.6142 10.3422 15.6146 10.6361C15.6147 10.7746 15.6149 10.9131 15.6151 11.0516C15.6158 11.5122 15.6164 11.9729 15.6167 12.4336C15.6168 12.5531 15.6168 12.6726 15.6169 12.7921C15.6169 12.8218 15.617 12.8515 15.617 12.8821C15.6173 13.3628 15.6183 13.8436 15.6196 14.3243C15.6209 14.8183 15.6216 15.3122 15.6218 15.8062C15.6218 16.0834 15.6222 16.3606 15.6232 16.6378C15.6242 16.8987 15.6243 17.1596 15.6239 17.4205C15.6239 17.5161 15.6241 17.6117 15.6247 17.7072C15.6282 18.3676 15.6104 18.8596 15.1678 19.3909C15.148 19.4157 15.1281 19.4405 15.1076 19.466C14.8852 19.7134 14.5056 19.9107 14.1739 19.9747C14.1017 19.9783 14.0294 19.9799 13.9571 19.98C13.9128 19.9802 13.8685 19.9804 13.8228 19.9806C13.7741 19.9807 13.7254 19.9807 13.6753 19.9807C13.6235 19.9809 13.5718 19.981 13.5185 19.9812C13.3748 19.9817 13.2311 19.9819 13.0874 19.9821C12.9325 19.9823 12.7775 19.9828 12.6226 19.9832C12.2483 19.9841 11.874 19.9847 11.4997 19.9852C11.3939 19.9853 11.2881 19.9855 11.1824 19.9857C10.5253 19.9866 9.86829 19.9875 9.21124 19.988C9.05907 19.9881 8.90689 19.9882 8.75471 19.9883C8.69798 19.9884 8.69798 19.9884 8.6401 19.9884C8.0278 19.9889 7.41551 19.9902 6.80322 19.9918C6.17429 19.9935 5.54535 19.9944 4.91642 19.9946C4.56342 19.9947 4.21043 19.9952 3.85743 19.9965C3.55671 19.9976 3.25599 19.998 2.95527 19.9975C2.80197 19.9973 2.64868 19.9975 2.49538 19.9984C2.32877 19.9995 2.1622 19.999 1.99559 19.9984C1.9477 19.9989 1.89981 19.9994 1.85047 20C1.33168 19.9953 0.903247 19.8198 0.533674 19.4675C0.153531 19.0747 0.00787905 18.6571 0.00961096 18.1254C0.00943082 18.0846 0.00925058 18.0439 0.00906498 18.0019C0.00856237 17.8656 0.00862679 17.7293 0.00869249 17.593C0.00845453 17.4952 0.00818396 17.3974 0.00788322 17.2996C0.00725377 17.0615 0.00700428 16.8235 0.0069599 16.5855C0.00692206 16.3919 0.00675849 16.1983 0.00650673 16.0047C0.00580674 15.4552 0.00543941 14.9057 0.00549908 14.3562C0.00550226 14.3266 0.00550551 14.297 0.00550879 14.2665C0.00551204 14.2368 0.00551515 14.2072 0.00551849 14.1767C0.00555079 13.6967 0.00479035 13.2167 0.00366882 12.7367C0.00252495 12.2433 0.00197803 11.7498 0.00204663 11.2564C0.00207297 10.9796 0.0018566 10.7028 0.000998337 10.426C0.000195897 10.1656 0.000223566 9.90516 0.000801175 9.64472C0.000884156 9.54933 0.000697365 9.45395 0.000215757 9.35856C-0.00302562 8.67191 0.0240537 8.13935 0.517212 7.60833C0.550012 7.57943 0.582812 7.55053 0.616606 7.52076C0.653505 7.48785 0.690405 7.45494 0.728424 7.42103C1.11203 7.11777 1.56382 7.0449 2.04461 7.0507C2.07944 7.05092 2.11427 7.05113 2.15016 7.05136C2.23534 7.05193 2.32052 7.0528 2.40569 7.05374C2.40543 7.02865 2.40516 7.00356 2.40489 6.97771C2.40222 6.71246 2.40044 6.44722 2.39914 6.18196C2.39855 6.08346 2.39774 5.98496 2.3967 5.88646C2.3805 4.31647 2.70255 2.87199 3.85172 1.70867C3.90345 1.65742 3.90345 1.65742 3.95624 1.60514C3.98704 1.57218 4.01784 1.53922 4.04957 1.50526C4.69991 0.826124 5.5974 0.411881 6.50072 0.165149C6.52791 0.157618 6.5551 0.150086 6.58312 0.142326C7.34706 -0.0572572 8.36538 -0.0444599 9.12471 0.165149ZM5.22848 2.11108C5.1948 2.13867 5.16113 2.16626 5.12644 2.19469C4.2561 2.93611 3.77637 3.86761 3.63818 4.99105C3.62883 5.1581 3.62879 5.32441 3.63041 5.49167C3.63052 5.53674 3.63063 5.58181 3.63075 5.62824C3.63119 5.77017 3.63219 5.91209 3.63321 6.05402C3.6336 6.15108 3.63397 6.24815 3.63429 6.34522C3.63509 6.5814 3.63665 6.81756 3.63818 7.05374C4.01865 7.05374 4.39913 7.05374 4.79114 7.05374C4.79263 6.8943 4.79411 6.73487 4.79565 6.5706C4.79717 6.44193 4.7988 6.31326 4.80051 6.1846C4.80227 6.04963 4.80384 5.91466 4.80492 5.77969C4.80617 5.62413 4.80834 5.46859 4.81056 5.31304C4.81081 5.26563 4.81106 5.21821 4.81133 5.16936C4.82293 4.49223 4.99853 3.89219 5.42726 3.35647C5.45978 3.31501 5.45978 3.31501 5.49296 3.27271C5.88552 2.80162 6.52806 2.47814 7.14473 2.41323C7.33454 2.40104 7.52406 2.40022 7.71421 2.40213C7.81262 2.40297 7.91092 2.40213 8.00933 2.40114C8.78991 2.39979 9.46439 2.62792 10.0391 3.16188C10.6273 3.76093 10.7962 4.48437 10.8071 5.28644C10.8079 5.33702 10.8088 5.3876 10.8096 5.43971C10.8118 5.57337 10.8138 5.70702 10.8157 5.84068C10.8177 5.97739 10.8199 6.1141 10.8221 6.25081C10.8264 6.51845 10.8303 6.78609 10.8343 7.05374C11.2148 7.05374 11.5952 7.05374 11.9872 7.05374C11.99 6.77279 11.9924 6.49189 11.9938 6.21094C11.9944 6.11569 11.9952 6.02043 11.9962 5.92517C12.0036 5.2378 12.0042 4.55985 11.7412 3.91106C11.7293 3.88058 11.7173 3.85011 11.705 3.81871C11.5161 3.35342 11.2575 2.95059 10.9138 2.5781C10.8836 2.54534 10.8534 2.51258 10.8223 2.47883C10.0413 1.67424 8.99878 1.27206 7.87844 1.21808C6.93032 1.19895 5.95686 1.51247 5.22848 2.11108ZM6.38051 4.07799C6.05727 4.47195 6.01149 4.89331 6.01586 5.38145C6.01594 5.42398 6.01602 5.46651 6.0161 5.51033C6.01652 5.66805 6.01763 5.82576 6.01866 5.98348C6.0203 6.33666 6.02194 6.68985 6.02363 7.05374C7.20442 7.05374 8.38522 7.05374 9.6018 7.05374C9.60508 6.70456 9.60836 6.35539 9.61174 5.99564C9.61319 5.88646 9.61463 5.77729 9.61613 5.6648C9.61659 5.57669 9.617 5.48857 9.61733 5.40046C9.61855 5.33375 9.61855 5.33375 9.6198 5.2657C9.62001 4.76082 9.49455 4.34357 9.12937 3.98312C8.70563 3.5976 8.23855 3.53353 7.6717 3.54392C7.14533 3.57131 6.74774 3.69564 6.38051 4.07799ZM1.42201 8.43671C1.27903 8.62509 1.27903 8.62509 1.24739 8.84858C1.24721 8.88235 1.24703 8.91612 1.24685 8.95091C1.24686 9.00689 1.24686 9.00689 1.24687 9.064C1.24673 9.10348 1.24658 9.14295 1.24643 9.18362C1.24599 9.31676 1.24584 9.44989 1.24569 9.58303C1.24544 9.67813 1.24518 9.77324 1.2449 9.86834C1.24413 10.1544 1.24371 10.4404 1.24336 10.7265C1.24318 10.8611 1.24297 10.9958 1.24276 11.1304C1.24208 11.578 1.24151 12.0256 1.24122 12.4732C1.24114 12.5893 1.24107 12.7055 1.24099 12.8217C1.24097 12.8506 1.24095 12.8794 1.24093 12.9092C1.2406 13.377 1.23959 13.8448 1.2383 14.3126C1.23699 14.7928 1.23627 15.2729 1.23615 15.7531C1.23606 16.0228 1.23571 16.2924 1.2347 16.562C1.23374 16.8157 1.2336 17.0693 1.23401 17.3229C1.23403 17.4161 1.23378 17.5093 1.23323 17.6024C1.23253 17.7295 1.23281 17.8565 1.23333 17.9836C1.2329 18.0206 1.23246 18.0575 1.23201 18.0956C1.23419 18.3134 1.26128 18.4409 1.41176 18.6126C1.62341 18.7757 1.79476 18.8119 2.05882 18.8123C2.10054 18.8124 2.14227 18.8126 2.18525 18.8127C2.23084 18.8127 2.27642 18.8126 2.32339 18.8126C2.37201 18.8127 2.42064 18.8128 2.47073 18.813C2.60558 18.8132 2.74043 18.8133 2.87528 18.8134C3.02076 18.8134 3.16625 18.8137 3.31173 18.814C3.62979 18.8145 3.94786 18.8148 4.26592 18.8149C4.46456 18.815 4.66321 18.8152 4.86185 18.8154C5.41198 18.8159 5.96211 18.8163 6.51224 18.8164C6.56503 18.8164 6.56503 18.8164 6.6189 18.8164C6.65418 18.8164 6.68946 18.8164 6.72582 18.8164C6.79731 18.8165 6.8688 18.8165 6.9403 18.8165C6.97576 18.8165 7.01123 18.8165 7.04776 18.8165C7.62237 18.8167 8.19697 18.8174 8.77158 18.8183C9.3617 18.8192 9.95181 18.8197 10.5419 18.8197C10.8732 18.8197 11.2044 18.82 11.5357 18.8207C11.8178 18.8213 12.0998 18.8215 12.3819 18.8212C12.5258 18.821 12.6696 18.821 12.8135 18.8216C12.9696 18.8222 13.1257 18.8219 13.2818 18.8214C13.3497 18.8219 13.3497 18.8219 13.4189 18.8224C13.6859 18.8208 13.9888 18.818 14.1985 18.6339C14.3201 18.4951 14.3776 18.3985 14.378 18.2188C14.3783 18.1681 14.3783 18.1681 14.3786 18.1164C14.3786 18.0791 14.3786 18.0418 14.3786 18.0034C14.3788 17.9441 14.3788 17.9441 14.379 17.8837C14.3794 17.7506 14.3796 17.6175 14.3797 17.4843C14.38 17.3892 14.3802 17.2941 14.3805 17.199C14.3813 16.913 14.3817 16.6269 14.3821 16.3409C14.3822 16.2062 14.3825 16.0716 14.3827 15.9369C14.3833 15.4893 14.3839 15.0418 14.3842 14.5942C14.3843 14.478 14.3844 14.3619 14.3844 14.2457C14.3845 14.2168 14.3845 14.1879 14.3845 14.1582C14.3848 13.6904 14.3858 13.2225 14.3871 12.7547C14.3884 12.2746 14.3892 11.7944 14.3893 11.3142C14.3894 11.0446 14.3897 10.775 14.3907 10.5053C14.3917 10.2517 14.3918 9.99805 14.3914 9.74441C14.3914 9.65125 14.3916 9.55809 14.3922 9.46493C14.3929 9.33786 14.3926 9.21084 14.3921 9.08377C14.3925 9.0468 14.393 9.00982 14.3934 8.97173C14.3912 8.75351 14.3632 8.62757 14.2137 8.45481C14.0282 8.28689 13.8956 8.25543 13.6483 8.2551C13.6061 8.25495 13.5638 8.2548 13.5203 8.25464C13.4739 8.25468 13.4275 8.25471 13.3798 8.25475C13.3305 8.25463 13.2812 8.25451 13.2304 8.2544C13.0935 8.25412 12.9566 8.25401 12.8197 8.25398C12.672 8.25391 12.5244 8.25362 12.3768 8.25336C12.054 8.25283 11.7311 8.25259 11.4083 8.25242C11.2068 8.25231 11.0052 8.25215 10.8037 8.25197C10.2457 8.2515 9.68765 8.2511 9.12964 8.25097C9.07608 8.25095 9.07608 8.25095 9.02143 8.25094C8.98563 8.25093 8.94983 8.25092 8.91295 8.25091C8.84041 8.2509 8.76787 8.25088 8.69533 8.25086C8.65934 8.25085 8.62336 8.25085 8.58629 8.25084C8.00314 8.25068 7.42 8.25 6.83685 8.2491C6.2382 8.24817 5.63955 8.24769 5.0409 8.24764C4.70475 8.24761 4.36861 8.24738 4.03247 8.24668C3.74626 8.24608 3.46005 8.24588 3.17384 8.2462C3.02782 8.24635 2.88181 8.24632 2.73579 8.24577C2.57746 8.24518 2.41914 8.2455 2.26081 8.24591C2.2147 8.2456 2.1686 8.24528 2.12109 8.24496C1.8544 8.24657 1.63091 8.25651 1.42201 8.43671Z"
        fill="currentColor" />
    <path
        d="M8.90602 11.0211C9.32552 11.3725 9.57576 11.7774 9.63905 12.3199C9.6655 12.8509 9.50124 13.2772 9.15699 13.6772C8.95652 13.8882 8.72917 14.0454 8.44881 14.1369C8.44866 14.1622 8.44852 14.1875 8.44837 14.2136C8.44671 14.4775 8.44395 14.7414 8.44056 15.0053C8.43944 15.1038 8.43859 15.2022 8.43804 15.3007C8.43718 15.4423 8.43533 15.5839 8.43328 15.7256C8.43321 15.7914 8.43321 15.7914 8.43313 15.8586C8.42854 16.1001 8.41662 16.2499 8.25002 16.4331C8.09901 16.5543 7.94235 16.6019 7.74808 16.5888C7.54171 16.5539 7.39356 16.4739 7.27051 16.3046C7.21081 16.1889 7.20071 16.1169 7.19914 15.9881C7.19835 15.9469 7.19756 15.9056 7.19675 15.863C7.1965 15.8189 7.19624 15.7748 7.19598 15.7294C7.19527 15.6839 7.19456 15.6383 7.19382 15.5915C7.19167 15.4463 7.19032 15.3012 7.18899 15.1561C7.18767 15.0576 7.1863 14.9591 7.18488 14.8606C7.1815 14.6194 7.17878 14.3781 7.17657 14.1369C7.14923 14.1238 7.12189 14.1107 7.09373 14.0972C7.05789 14.0799 7.02205 14.0626 6.98512 14.0447C6.94958 14.0276 6.91404 14.0105 6.87743 13.9929C6.4825 13.79 6.2276 13.4348 6.07081 13.035C5.92282 12.5405 5.97201 12.0359 6.20748 11.5756C6.4883 11.119 6.91869 10.8266 7.44493 10.695C7.95558 10.6122 8.49299 10.7071 8.90602 11.0211ZM7.32069 12.1472C7.22303 12.331 7.19474 12.4616 7.25608 12.6604C7.33192 12.8339 7.43478 12.9368 7.6139 13.0083C7.81558 13.0469 7.99112 13.038 8.16802 12.9304C8.31076 12.8138 8.37511 12.6796 8.40905 12.5023C8.40506 12.3071 8.33638 12.1847 8.21026 12.0353C8.08761 11.9409 7.96806 11.8855 7.81269 11.8602C7.59317 11.896 7.45895 11.9833 7.32069 12.1472Z"
        fill="currentColor" />
</svg>