<svg width="32" height="32" viewBox="0 0 32 32" fill="none" xmlns="http://www.w3.org/2000/svg">
    <path
        d="M14.8724 0.0153732C14.7533 0.0278969 14.3837 0.0717278 14.0579 0.103037C11.9906 0.328457 9.70399 1.1049 7.85591 2.20696C5.50666 3.60957 3.59593 5.51938 2.19264 7.86751C1.09632 9.69592 0.369616 11.8249 0.0751762 14.0666C-0.0250587 14.8368 -0.0250587 17.1786 0.0751762 17.9488C0.58888 21.8498 2.3054 25.1497 5.21222 27.8485C6.81598 29.3451 8.81441 30.5097 10.9883 31.2236C12.7048 31.7934 14.0642 32 16 32C17.4283 32 18.0611 31.9436 19.3203 31.6869C23.6366 30.804 27.4894 28.0364 29.8074 24.1479C30.9037 22.3195 31.6304 20.1905 31.9248 17.9488C32.0251 17.1786 32.0251 14.8368 31.9248 14.0666C31.6304 11.8249 30.9037 9.69592 29.8074 7.86751C28.4041 5.51938 26.4933 3.60957 24.1441 2.20696C22.3336 1.12369 20.1723 0.384811 18.0047 0.103037C17.4534 0.0278969 15.2608 -0.0284576 14.8724 0.0153732ZM17.2843 1.91892C20.9366 2.25705 24.4636 4.09172 26.7878 6.86564C29.8387 10.5037 30.8724 15.2375 29.6194 19.8085C29.137 21.5681 28.285 23.2524 27.1261 24.7239C26.9131 24.9932 26.7314 25.2123 26.7126 25.2123C26.6938 25.2123 26.5936 24.9431 26.4933 24.6112C25.9608 22.8329 24.7204 20.9231 23.2858 19.6645C22.3837 18.8755 21.1496 18.1179 20.0407 17.667L19.7901 17.5668L20.0094 17.404C20.4041 17.1097 21.3626 16.1016 21.5944 15.7384C22.4839 14.3546 22.8598 12.8581 22.7032 11.3302C22.4714 9.03844 21.1308 7.06602 19.101 6.00779C14.8786 3.81621 9.77917 6.57761 9.29679 11.3302C9.1715 12.5638 9.40955 13.8599 9.96085 14.9557C10.4056 15.8386 11.1449 16.7528 11.8716 17.3039C12.0407 17.4291 12.1785 17.5543 12.1785 17.5731C12.1785 17.5919 11.9718 17.6858 11.7212 17.786C10.0298 18.4685 8.33829 19.796 7.15427 21.3614C6.47142 22.2694 5.81989 23.5467 5.50039 24.6175C5.40642 24.9431 5.30619 25.2123 5.28739 25.2123C5.23727 25.2123 4.5231 24.2856 4.16601 23.7534C3.77134 23.1648 3.07596 21.8123 2.79405 21.0922C2.3054 19.8524 1.99843 18.4184 1.89193 16.8655C1.56617 12.3759 3.58966 7.81742 7.148 4.98088C10.0235 2.68911 13.6695 1.58705 17.2843 1.91892ZM17.3156 7.30396C18.9256 7.76106 20.1848 9.01966 20.6735 10.654C20.8927 11.3991 20.9052 12.4636 20.711 13.1962C20.1284 15.369 18.2365 16.8217 16 16.8217C13.7635 16.8217 11.8716 15.369 11.289 13.1962C11.0948 12.4636 11.1073 11.3991 11.3265 10.654C11.8778 8.8005 13.3062 7.5419 15.3109 7.15368C15.6742 7.0848 16.8583 7.17247 17.3156 7.30396ZM17.2843 18.8943C19.2263 19.1448 20.9428 20.0089 22.4276 21.4867C23.5427 22.6012 24.2443 23.7283 24.6954 25.1497C24.8583 25.6569 25.1151 26.8466 25.065 26.8717C25.0587 26.878 24.8708 27.022 24.6453 27.1973C22.7157 28.7001 20.3915 29.6644 17.7854 30.0401C17.0587 30.1465 14.9413 30.1465 14.2146 30.0401C11.6085 29.6644 9.28426 28.7001 7.35474 27.1973C7.12921 27.022 6.94127 26.878 6.935 26.8717C6.92247 26.8654 6.96006 26.6275 7.01018 26.3457C7.58027 23.1084 9.8982 20.3971 13.0305 19.3076C14.415 18.8254 15.7306 18.6939 17.2843 18.8943Z"
        fill="currentColor" />
</svg>