<svg width="32" height="32" viewBox="0 0 32 32" fill="none" xmlns="http://www.w3.org/2000/svg">
<g clip-path="url(#clip0_3383_185)">
<path d="M21.9645 14.6003C22.0193 14.6001 22.0742 14.5999 22.1307 14.5997C22.2459 14.5996 22.3612 14.5999 22.4765 14.6007C22.6515 14.6017 22.8265 14.6007 23.0015 14.5995C23.1141 14.5997 23.2268 14.5999 23.3395 14.6003C23.3911 14.5999 23.4426 14.5995 23.4958 14.5991C23.9082 14.604 24.3186 14.6653 24.6461 14.9316C24.6791 14.9735 24.712 15.0155 24.746 15.0588C24.7801 15.1006 24.8141 15.1424 24.8493 15.1855C25.0199 15.4317 25.0822 15.6305 25.1156 15.9294C25.1237 16.0002 25.1317 16.071 25.14 16.144C25.1479 16.2177 25.1558 16.2914 25.1639 16.3674C25.1765 16.4772 25.1765 16.4772 25.1893 16.5893C25.2257 16.9159 25.2545 17.2337 25.2499 17.5627C25.2989 17.5756 25.3479 17.5885 25.3983 17.6017C25.6569 17.6998 25.8745 17.8322 26.108 17.9789C26.2522 18.0707 26.2522 18.0707 26.4374 18.1252C26.6054 18.0706 26.6054 18.0706 26.7887 17.9831C26.8918 17.9367 26.8918 17.9367 26.9971 17.8893C27.0689 17.8563 27.1407 17.8233 27.2147 17.7892C27.3565 17.7248 27.4983 17.6605 27.6403 17.5964C27.7032 17.5675 27.7662 17.5386 27.831 17.5089C28.2131 17.3478 28.5999 17.3164 28.9999 17.4338C29.5718 17.6836 29.8854 18.3216 30.1679 18.8439C30.2017 18.9052 30.2356 18.9665 30.2705 19.0297C30.337 19.1501 30.4031 19.2708 30.4687 19.3917C30.5295 19.5027 30.5914 19.6131 30.6545 19.7228C30.6966 19.7962 30.6966 19.7962 30.7396 19.871C30.7644 19.9134 30.7892 19.9558 30.8147 19.9995C30.9734 20.3307 30.975 20.7102 30.8658 21.0574C30.6747 21.5234 30.3064 21.812 29.8983 22.0822C29.8051 22.1457 29.7118 22.2093 29.6185 22.2729C29.5777 22.3001 29.5369 22.3274 29.4949 22.3555C29.4086 22.4146 29.3247 22.4771 29.2425 22.5417C29.1249 22.6252 29.1249 22.6252 28.9999 22.6252C28.9023 23.4191 28.9023 23.4191 29.1677 24.138C29.4322 24.377 29.7325 24.5496 30.0421 24.7233C30.4531 24.9763 30.7882 25.2714 30.9059 25.7516C31.0224 26.4365 30.6659 27.0001 30.3241 27.5666C30.2864 27.6306 30.2486 27.6946 30.2097 27.7605C29.3959 29.1315 29.3959 29.1315 28.8119 29.2826C28.1289 29.3772 27.5346 29.0382 26.9357 28.748C26.8829 28.7232 26.8301 28.6985 26.7758 28.673C26.7051 28.639 26.7051 28.639 26.6331 28.6042C26.4753 28.555 26.4044 28.5731 26.2499 28.6252C26.1771 28.6401 26.1042 28.655 26.0292 28.6703C25.7305 28.7597 25.4953 28.864 25.3124 29.1252C25.1894 29.5396 25.1571 29.9651 25.1311 30.3952C25.0947 30.9846 25.0286 31.3604 24.5936 31.7736C24.2219 32.0152 23.9022 32.0202 23.4694 32.0212C23.4058 32.0216 23.3422 32.022 23.2767 32.0224C23.1424 32.0231 23.0081 32.0234 22.8737 32.0233C22.6692 32.0236 22.4648 32.0259 22.2603 32.0282C22.1294 32.0286 21.9986 32.0289 21.8678 32.029C21.8071 32.0299 21.7464 32.0308 21.6839 32.0317C21.2392 32.0287 20.8838 31.9451 20.5609 31.6247C20.186 31.0374 20.1667 30.421 20.1059 29.7419C20.1011 29.6893 20.0964 29.6367 20.0914 29.5824C20.0853 29.5113 20.0853 29.5113 20.079 29.4388C20.0648 29.3001 20.0648 29.3001 19.9999 29.1252C19.8184 29.0096 19.8184 29.0096 19.6014 28.9025C19.3936 28.7953 19.1945 28.6924 18.9999 28.5627C18.7692 28.5854 18.5829 28.6652 18.3759 28.7658C18.3174 28.7935 18.2589 28.8212 18.1986 28.8498C18.0773 28.908 17.9562 28.9666 17.8353 29.0256C17.3548 29.252 16.8965 29.4005 16.3718 29.2394C15.8071 28.9998 15.5572 28.5425 15.2733 28.0236C15.2143 27.9193 15.2143 27.9193 15.1542 27.8129C15.0379 27.6057 14.9245 27.3972 14.8124 27.1877C14.7758 27.1198 14.7392 27.0519 14.7015 26.982C14.6675 26.9169 14.6335 26.8519 14.5985 26.7848C14.5683 26.7273 14.5381 26.6698 14.507 26.6105C14.3528 26.2277 14.3684 25.8034 14.5233 25.422C14.7131 25.1018 15.0148 24.9011 15.3124 24.6877C15.3498 24.6607 15.3872 24.6337 15.4258 24.6059C15.6204 24.4655 15.8157 24.3261 16.0118 24.1879C16.2064 24.0674 16.2064 24.0674 16.2758 23.8798C16.3339 23.4612 16.3822 23.0329 16.2499 22.6252C15.9791 22.2859 15.5858 22.1024 15.2093 21.902C14.834 21.6738 14.5559 21.363 14.4374 20.9377C14.3097 20.281 14.5868 19.8196 14.9111 19.2749C15.0058 19.1152 15.0974 18.954 15.1889 18.7924C15.2533 18.6806 15.3179 18.5689 15.3827 18.4572C15.4126 18.4049 15.4424 18.3525 15.4732 18.2986C15.7031 17.9121 15.956 17.6108 16.3671 17.4142C16.842 17.3193 17.2109 17.376 17.6483 17.5744C17.6941 17.594 17.74 17.6137 17.7872 17.6339C18.1076 17.7724 18.4221 17.9224 18.7313 18.0844C18.9288 18.1405 19.0069 18.0941 19.1874 18.0002C19.3846 17.8883 19.5781 17.7712 19.7721 17.654C19.9374 17.5627 19.9374 17.5627 20.0624 17.5627C20.0689 17.4786 20.0689 17.4786 20.0756 17.3928C20.0925 17.1825 20.1103 16.9724 20.1288 16.7624C20.1365 16.6718 20.1439 16.5813 20.1509 16.4907C20.2363 15.3948 20.2363 15.3948 20.6718 14.9494C21.0953 14.6643 21.4663 14.5966 21.9645 14.6003ZM21.6249 16.0002C21.6083 16.1545 21.5917 16.3087 21.5746 16.4677C21.5581 16.6177 21.5416 16.7676 21.5249 16.9176C21.5135 17.0216 21.5022 17.1255 21.4911 17.2295C21.4751 17.3793 21.4585 17.529 21.4418 17.6786C21.4345 17.748 21.4345 17.748 21.4272 17.8187C21.3992 18.0633 21.367 18.2818 21.2499 18.5002C21.0993 18.5899 20.9601 18.661 20.8007 18.7306C20.382 18.9236 20.0097 19.1463 19.6445 19.4283C19.4069 19.6005 19.2117 19.6763 18.9159 19.6605C18.5381 19.5802 18.1951 19.3902 17.8514 19.2189C17.7325 19.1606 17.6134 19.1027 17.4941 19.0451C17.3867 18.9931 17.2798 18.9402 17.1729 18.8873C17.0026 18.8003 17.0026 18.8003 16.8124 18.8127C16.6885 19.0304 16.5651 19.2484 16.442 19.4665C16.4001 19.5406 16.3581 19.6147 16.3159 19.6887C16.2553 19.7953 16.1951 19.9021 16.1349 20.009C16.0986 20.0731 16.0622 20.1373 16.0248 20.2034C15.9512 20.3479 15.9042 20.4669 15.8749 20.6252C15.9063 20.6478 15.9378 20.6705 15.9702 20.6938C16.1156 20.7985 16.2608 20.9032 16.4061 21.008C16.4803 21.0614 16.4803 21.0614 16.556 21.1159C16.6298 21.1691 16.6298 21.1691 16.705 21.2233C16.7786 21.2764 16.7786 21.2764 16.8536 21.3306C17.0381 21.4656 17.219 21.605 17.3992 21.7457C17.4971 21.8242 17.4971 21.8242 17.6249 21.8127C17.7322 22.0866 17.759 22.2828 17.7264 22.5744C17.6702 23.1655 17.6816 23.7211 17.7606 24.31C17.7459 24.5707 17.6683 24.676 17.4999 24.8752C17.3384 25.011 17.1673 25.1289 16.9921 25.2463C16.9449 25.2787 16.8977 25.3111 16.8491 25.3445C16.7554 25.4089 16.6614 25.473 16.5672 25.5369C16.3964 25.6531 16.2274 25.7718 16.0585 25.8908C15.9765 25.9481 15.8944 26.0054 15.8124 26.0627C15.8427 26.1157 15.873 26.1687 15.9042 26.2233C15.9242 26.2583 15.9442 26.2934 15.9648 26.3295C16.0094 26.4075 16.054 26.4854 16.0987 26.5633C16.2177 26.7711 16.3359 26.9793 16.4525 27.1884C16.4749 27.2282 16.4972 27.2681 16.5203 27.3091C16.5634 27.386 16.6063 27.4631 16.6489 27.5404C16.7564 27.7435 16.7564 27.7435 16.9374 27.8752C17.0714 27.8241 17.2029 27.7663 17.3329 27.7057C17.3721 27.6878 17.4112 27.6698 17.4516 27.6513C17.5773 27.5936 17.7027 27.5352 17.828 27.4767C17.9922 27.4002 18.1566 27.3243 18.3212 27.2487C18.3943 27.2146 18.4675 27.1805 18.5429 27.1453C18.8286 27.0312 19.0308 26.9712 19.328 27.0627C19.57 27.179 19.7773 27.3403 19.9935 27.498C20.2802 27.6861 20.5849 27.8376 20.8928 27.9879C20.9372 28.0102 20.9815 28.0326 21.0272 28.0556C21.087 28.0848 21.087 28.0848 21.1481 28.1146C21.2839 28.2121 21.3184 28.2792 21.3749 28.4377C21.4022 28.6061 21.4242 28.7712 21.4418 28.9406C21.4472 28.9888 21.4525 29.037 21.4581 29.0867C21.4751 29.2401 21.4914 29.3936 21.5077 29.547C21.5191 29.6513 21.5306 29.7555 21.5421 29.8598C21.5703 30.1149 21.5976 30.37 21.6249 30.6252C22.3055 30.6252 22.9861 30.6252 23.6874 30.6252C23.771 30.0818 23.8426 29.5518 23.8826 29.0058C23.9114 28.6753 23.9498 28.4107 24.1249 28.1252C24.2787 28.017 24.4426 27.9513 24.6171 27.883C25.0647 27.6925 25.4369 27.4692 25.8229 27.1742C26.0193 27.0505 26.1437 27.0101 26.3749 27.0002C26.9324 27.1374 27.4688 27.44 27.9828 27.6909C28.0564 27.7267 28.0564 27.7267 28.1315 27.7631C28.1754 27.7847 28.2193 27.8063 28.2646 27.8285C28.3741 27.8833 28.3741 27.8833 28.4999 27.8752C28.8299 27.2977 29.1599 26.7202 29.4999 26.1252C29.3312 25.9565 29.2003 25.8313 29.0106 25.6999C28.9658 25.6685 28.9209 25.6372 28.8746 25.6049C28.8283 25.5729 28.782 25.5409 28.7343 25.508C28.4566 25.3152 28.1796 25.1217 27.9071 24.9216C27.8664 24.8917 27.8256 24.8618 27.7836 24.831C27.6874 24.7502 27.6874 24.7502 27.6249 24.6252C27.607 24.263 27.6053 23.9007 27.603 23.5381C27.602 23.4168 27.6003 23.2955 27.5979 23.1742C27.5945 22.9992 27.5931 22.8243 27.5922 22.6493C27.5908 22.5953 27.5893 22.5413 27.5879 22.4856C27.5888 22.2115 27.5952 22.0997 27.7718 21.8791C27.8265 21.8366 27.8811 21.794 27.9374 21.7502C27.9974 21.7008 28.0574 21.6514 28.1193 21.6005C28.5683 21.2561 29.024 20.9321 29.4999 20.6252C29.1996 19.9986 28.8649 19.4036 28.4999 18.8127C27.9997 18.9669 27.5414 19.1796 27.0731 19.4122C26.7149 19.582 26.399 19.7094 25.9999 19.6252C25.7936 19.5153 25.7936 19.5153 25.6054 19.3674C25.2863 19.1267 24.9665 18.9388 24.6034 18.7682C24.2497 18.5966 24.0946 18.4965 23.9374 18.1252C23.8999 17.9144 23.8999 17.9144 23.8803 17.6872C23.8765 17.6467 23.8728 17.6062 23.8689 17.5645C23.8572 17.4363 23.8464 17.3081 23.8358 17.1799C23.821 17.0104 23.8057 16.841 23.7904 16.6716C23.7841 16.5967 23.7777 16.5218 23.7712 16.4447C23.7531 16.2391 23.7531 16.2391 23.6874 16.0002C23.0068 16.0002 22.3261 16.0002 21.6249 16.0002Z" fill="currentColor"/>
<path d="M16.0002 1.24985C16.2178 1.42856 16.4236 1.6158 16.6252 1.81235C16.6793 1.86391 16.7334 1.91547 16.7892 1.9686C16.8382 2.02016 16.8872 2.07172 16.9377 2.12485C16.9746 2.16288 17.0116 2.2009 17.0497 2.24008C18.3454 3.62354 18.7419 5.41197 18.6956 7.25504C18.6199 8.9876 17.7098 10.5316 16.4806 11.703C15.1427 12.8739 13.4142 13.4674 11.6358 13.3841C10.179 13.2848 8.79056 12.7834 7.68765 11.8124C7.63722 11.7709 7.58678 11.7294 7.53482 11.6866C6.30187 10.6411 5.45191 9.0542 5.31265 7.43735C5.18653 5.49476 5.66179 3.8456 6.87515 2.31235C6.90657 2.27118 6.93799 2.23001 6.97037 2.18759C7.24526 1.84358 7.59049 1.57998 7.93765 1.31235C7.988 1.27352 8.03836 1.23468 8.09024 1.19467C8.80109 0.67237 9.58731 0.340915 10.4377 0.12485C10.4831 0.113213 10.5286 0.101576 10.5755 0.0895868C12.4367 -0.33602 14.4792 0.117803 16.0002 1.24985ZM8.09601 3.03479C7.07394 4.18406 6.60336 5.59036 6.68765 7.12485C6.85698 8.5699 7.52526 9.84567 8.6354 10.8004C9.7734 11.6797 11.157 12.113 12.5959 11.971C14.0549 11.7443 15.3606 11.0406 16.2658 9.86313C17.143 8.57833 17.4996 7.13131 17.2177 5.5875C17.0655 4.84417 16.758 4.17702 16.3127 3.56235C16.2724 3.50595 16.2321 3.44956 16.1906 3.39145C15.3877 2.33885 14.1581 1.63213 12.8581 1.40097C11.0882 1.20247 9.33855 1.71364 8.09601 3.03479Z" fill="currentColor"/>
<path d="M7.07753 15.9642C7.27965 15.9645 7.48176 15.9641 7.68387 15.9636C8.16031 15.9626 8.63674 15.9628 9.11318 15.9638C9.60389 15.9649 10.0946 15.9639 10.5853 15.9619C11.0083 15.9602 11.4314 15.9598 11.8544 15.9603C12.1064 15.9606 12.3584 15.9605 12.6103 15.9592C12.8465 15.958 13.0827 15.9584 13.3189 15.9599C13.4054 15.9603 13.492 15.96 13.5785 15.9592C14.3138 15.953 14.3138 15.953 14.5186 16.1508C14.6909 16.4127 14.7311 16.6254 14.6874 16.9374C14.5518 17.1601 14.4276 17.2792 14.1874 17.3749C14.0218 17.3905 14.0218 17.3905 13.8295 17.3906C13.7564 17.3909 13.6834 17.3913 13.6081 17.3916C13.4882 17.3912 13.4882 17.3912 13.3659 17.3908C13.2807 17.391 13.1954 17.3912 13.1102 17.3915C12.9266 17.392 12.743 17.3921 12.5595 17.392C12.2683 17.3918 11.9771 17.3927 11.6859 17.3938C10.8578 17.3968 10.0298 17.3983 9.20168 17.3987C8.74433 17.3989 8.28699 17.4 7.82964 17.4021C7.58809 17.4032 7.34655 17.4037 7.105 17.4032C5.4982 17.3997 4.13058 17.4934 2.87487 18.6249C2.83523 18.6594 2.79559 18.694 2.75475 18.7296C2.43575 19.0253 2.21723 19.3756 1.99987 19.7499C1.95624 19.8231 1.95624 19.8231 1.91173 19.8978C1.44043 20.7539 1.39973 21.6692 1.39928 22.621C1.39834 22.7372 1.3973 22.8535 1.39615 22.9698C1.39345 23.2723 1.39218 23.5747 1.39123 23.8772C1.39 24.1873 1.38738 24.4974 1.38488 24.8075C1.3802 25.4133 1.37704 26.0191 1.37487 26.6249C1.42676 26.6247 1.47866 26.6245 1.53212 26.6243C2.79444 26.6202 4.05676 26.6171 5.31909 26.6151C5.92954 26.6142 6.53998 26.6129 7.15043 26.6107C7.68245 26.6088 8.21448 26.6076 8.74651 26.6072C9.02825 26.607 9.30998 26.6064 9.59172 26.605C9.85689 26.6038 10.122 26.6034 10.3872 26.6037C10.4845 26.6036 10.5819 26.6032 10.6792 26.6025C10.8121 26.6016 10.945 26.6018 11.0779 26.6023C11.1895 26.6021 11.1895 26.6021 11.3033 26.6018C11.5654 26.6326 11.7195 26.7404 11.9239 26.8988C12.057 27.0759 12.0285 27.2582 12.0226 27.4718C11.991 27.6845 11.9069 27.7941 11.7499 27.9374C11.5631 28.0308 11.3933 28.0084 11.1848 28.0091C11.139 28.0093 11.0932 28.0095 11.046 28.0098C10.8916 28.0104 10.7373 28.0107 10.5829 28.0109C10.4726 28.0113 10.3622 28.0117 10.2519 28.0122C9.95152 28.0133 9.65115 28.0139 9.35078 28.0144C9.16323 28.0148 8.97568 28.0151 8.78813 28.0155C8.20163 28.0167 7.61514 28.0176 7.02864 28.0181C6.35105 28.0187 5.67347 28.0204 4.99588 28.0229C4.47252 28.0248 3.94917 28.0257 3.42581 28.0259C3.11305 28.0261 2.8003 28.0266 2.48754 28.0282C2.19334 28.0297 1.89915 28.0299 1.60494 28.0293C1.49693 28.0292 1.38892 28.0296 1.28091 28.0305C1.13348 28.0316 0.986132 28.0312 0.838701 28.0303C0.795923 28.031 0.753146 28.0317 0.709072 28.0324C0.415765 28.0285 0.268795 27.9559 0.062369 27.7499C-0.00879423 27.6075 -0.00841975 27.5283 -0.00932923 27.3702C-0.00977644 27.3169 -0.0102236 27.2636 -0.0106844 27.2086C-0.0108525 27.1499 -0.0110205 27.0913 -0.0111937 27.0308C-0.0118097 26.9383 -0.0118097 26.9383 -0.0124382 26.8439C-0.0136747 26.6386 -0.0144016 26.4334 -0.0150236 26.2281C-0.0152783 26.1579 -0.0155332 26.0876 -0.0157956 26.0152C-0.0171015 25.6424 -0.0179939 25.2695 -0.0185789 24.8967C-0.0192662 24.5138 -0.0214108 24.131 -0.0239023 23.7481C-0.0255481 23.4521 -0.0260607 23.156 -0.0262841 22.86C-0.0265862 22.719 -0.0273058 22.5781 -0.0284738 22.4371C-0.0422093 20.6678 0.364426 19.1575 1.60387 17.8356C3.18255 16.2331 4.93361 15.9592 7.07753 15.9642Z" fill="currentColor"/>
<path d="M22.6328 19.9844C22.689 19.9831 22.7453 19.9819 22.8032 19.9805C23.7345 19.9752 24.4883 20.3695 25.1435 21.0108C25.8742 21.7752 26.0315 22.6503 26.0173 23.6692C25.9882 24.4913 25.5755 25.2069 25.0249 25.8018C24.5936 26.1923 24.0677 26.4909 23.5 26.6251C23.4304 26.642 23.4304 26.642 23.3593 26.6592C22.3924 26.8186 21.4327 26.6275 20.625 26.0626C20.2033 25.7034 19.8488 25.3248 19.625 24.8126C19.5896 24.7319 19.5896 24.7319 19.5534 24.6497C19.1834 23.7645 19.2159 22.8207 19.5761 21.9385C19.9949 21.0218 20.6805 20.4613 21.613 20.108C21.9572 19.9938 22.272 19.9864 22.6328 19.9844ZM21.6875 21.6251C21.6438 21.6508 21.6001 21.6766 21.5551 21.7032C21.1294 21.9859 20.9052 22.3807 20.7265 22.8516C20.6231 23.4103 20.711 23.8889 20.9843 24.3868C21.3595 24.8558 21.7034 25.1267 22.2851 25.2969C22.936 25.3637 23.4978 25.2172 24.0134 24.7979C24.4379 24.3781 24.6242 23.9166 24.6484 23.3243C24.6351 22.7305 24.4233 22.3032 24.0183 21.8738C23.5573 21.4757 23.0547 21.3518 22.4597 21.3577C22.1595 21.3825 21.9428 21.4697 21.6875 21.6251Z" fill="currentColor"/>
</g>
<defs>
<clipPath id="clip0_3383_185">
<rect width="32" height="32" fill="white"/>
</clipPath>
</defs>
</svg>
