<svg width="34" height="34" viewBox="0 0 34 34" fill="none" xmlns="http://www.w3.org/2000/svg">
<path d="M23.9611 0.984259C24.0328 0.984195 24.0328 0.984195 24.106 0.984131C24.7967 0.9851 25.4548 1.00509 26.1251 1.18738C26.1671 1.19877 26.209 1.21016 26.2522 1.2219C27.8966 1.67871 29.2928 2.49044 30.5001 3.68738C30.554 3.74048 30.6079 3.79357 30.6635 3.84827C32.2364 5.48648 33.014 7.71793 33.0158 9.96082C33.0158 10.0087 33.0158 10.0565 33.0159 10.1058C33.0149 10.7964 32.9949 11.4546 32.8126 12.1249C32.7955 12.1878 32.7955 12.1878 32.7781 12.2519C32.101 14.6896 30.5993 16.6563 28.4032 17.9149C27.0306 18.6784 25.6078 19.0143 24.0392 19.0155C23.9914 19.0156 23.9435 19.0156 23.8942 19.0156C23.2034 19.0147 22.5458 18.9941 21.8751 18.8124C21.8345 18.8017 21.7939 18.7909 21.7521 18.7799C19.3995 18.146 17.4029 16.649 16.168 14.5476C15.356 13.1308 14.9858 11.6718 14.9845 10.0389C14.9845 9.99111 14.9844 9.94327 14.9844 9.89398C14.9853 9.20333 15.0053 8.54521 15.1876 7.87488C15.199 7.83296 15.2104 7.79103 15.2221 7.74784C15.8962 5.32142 17.3881 3.35771 19.5714 2.09876C20.9391 1.33363 22.3982 0.985489 23.9611 0.984259ZM19.1876 4.93738C19.1493 4.97042 19.1109 5.00345 19.0714 5.03748C18.1778 5.86731 17.5738 7.02649 17.2501 8.18738C17.2301 8.2553 17.2102 8.32322 17.1896 8.39319C16.9231 9.46527 16.9384 10.7526 17.2501 11.8124C17.2714 11.8887 17.2927 11.965 17.3146 12.0436C17.8576 13.8284 19.1309 15.2985 20.7595 16.1884C22.3831 17.0524 24.2692 17.208 26.0299 16.7021C27.069 16.3768 27.9972 15.7727 28.8126 15.0624C28.851 15.0294 28.8893 14.9963 28.9288 14.9623C29.8225 14.1325 30.4265 12.9733 30.7501 11.8124C30.7701 11.7445 30.7901 11.6765 30.8107 11.6066C31.0772 10.5345 31.0619 9.24714 30.7501 8.18738C30.7289 8.11109 30.7076 8.03479 30.6857 7.95618C30.1427 6.17134 28.8694 4.70126 27.2407 3.81141C24.5294 2.3684 21.4432 2.9726 19.1876 4.93738Z" fill="currentColor"/>
<path d="M2.37354 4.96687C2.44614 4.96663 2.51874 4.96639 2.59354 4.96614C2.74704 4.96597 2.90055 4.96643 3.05405 4.96748C3.28697 4.96881 3.51977 4.96749 3.75269 4.96589C3.90234 4.96605 4.052 4.96637 4.20166 4.96687C4.30483 4.96611 4.30483 4.96611 4.41007 4.96533C5.21811 4.97494 5.88282 5.23536 6.48047 5.77741C6.52816 5.83026 6.57586 5.88312 6.625 5.93757C6.65505 5.9681 6.6851 5.99864 6.71606 6.0301C7.2042 6.55037 7.37178 7.21783 7.51953 7.89851C7.54424 8.00618 7.54424 8.00618 7.56946 8.11604C7.63707 8.41776 7.69142 8.69042 7.6875 9.00007C7.77434 8.99924 7.77434 8.99924 7.86293 8.99839C8.40915 8.99337 8.95536 8.98957 9.50159 8.98712C9.7824 8.98581 10.0632 8.98405 10.344 8.98121C10.6151 8.97849 10.8862 8.977 11.1573 8.97635C11.2606 8.97589 11.3639 8.97499 11.4672 8.97364C11.6122 8.97182 11.7571 8.97157 11.9021 8.97169C11.9846 8.97113 12.067 8.97058 12.1519 8.97001C12.4838 9.01473 12.6721 9.16808 12.8984 9.40632C13.0483 9.72913 13.0471 10.0251 13 10.3751C12.8556 10.6861 12.6696 10.8318 12.375 11.0001C12.1709 11.0301 12.1709 11.0301 11.948 11.0285C11.8867 11.0285 11.8867 11.0285 11.8241 11.0286C11.6902 11.0284 11.5563 11.0264 11.4224 11.0245C11.329 11.024 11.2357 11.0237 11.1423 11.0234C10.8976 11.0225 10.6528 11.02 10.4081 11.0172C10.158 11.0147 9.90784 11.0135 9.65771 11.0123C9.16763 11.0096 8.67757 11.0053 8.1875 11.0001C8.19762 11.0445 8.20774 11.0889 8.21816 11.1347C8.34365 11.6858 8.46892 12.237 8.5941 12.7882C8.62882 12.9411 8.66356 13.0939 8.69831 13.2468C8.99722 14.5621 9.29301 15.8781 9.58486 17.195C9.63386 17.416 9.68291 17.6371 9.73198 17.8581C9.76455 18.0048 9.79713 18.1515 9.8297 18.2983C9.84576 18.3706 9.86182 18.443 9.87838 18.5176C9.9749 18.9525 10.071 19.3876 10.1669 19.8228C10.2273 20.0968 10.2881 20.3707 10.349 20.6446C10.3774 20.7728 10.4057 20.9011 10.4338 21.0294C10.4725 21.2059 10.5118 21.3824 10.5511 21.5588C10.5622 21.6101 10.5733 21.6614 10.5848 21.7142C10.7252 22.3378 10.7252 22.3378 11.125 22.8126C11.5054 22.9301 11.8497 22.9555 12.2461 22.9539C12.3068 22.9541 12.3676 22.9543 12.4302 22.9546C12.6329 22.9552 12.8356 22.955 13.0383 22.9547C13.184 22.955 13.3297 22.9553 13.4754 22.9557C13.8706 22.9565 14.2657 22.9566 14.6609 22.9564C15.0327 22.9563 15.4045 22.9567 15.7764 22.9571C16.5578 22.9577 17.3392 22.9576 18.1206 22.9572C18.8347 22.9569 19.5489 22.9576 20.263 22.9588C20.9972 22.96 21.7314 22.9605 22.4655 22.9603C22.8774 22.9602 23.2892 22.9603 23.701 22.9612C24.0883 22.962 24.4755 22.9619 24.8628 22.9611C25.0048 22.9609 25.1467 22.9611 25.2887 22.9616C25.4828 22.9623 25.6769 22.9617 25.871 22.961C25.9269 22.9614 25.9828 22.9619 26.0404 22.9624C26.4607 22.9588 26.8798 22.9054 27.209 22.6256C27.3637 22.3446 27.4448 22.0501 27.5312 21.7423C27.9549 20.2682 27.9549 20.2682 28.375 20.0001C28.6469 19.9094 28.9033 19.9057 29.1875 19.9376C29.4992 20.0934 29.7185 20.3122 29.875 20.6251C29.9337 21.1748 29.8038 21.6643 29.6484 22.1876C29.6277 22.2622 29.607 22.3368 29.5857 22.4136C29.2741 23.4885 28.7556 24.2339 27.7769 24.7755C27.3284 24.9839 26.9541 25.0183 26.4653 25.0168C26.3996 25.0171 26.3339 25.0173 26.2662 25.0176C26.0465 25.0184 25.8267 25.0183 25.607 25.0182C25.4493 25.0186 25.2916 25.019 25.1339 25.0195C24.7501 25.0205 24.3664 25.0209 23.9826 25.021C23.6705 25.021 23.3584 25.0213 23.0463 25.0217C22.1603 25.0228 21.2744 25.0233 20.3885 25.0232C20.3407 25.0232 20.293 25.0232 20.2439 25.0232C20.1961 25.0232 20.1483 25.0232 20.0991 25.0232C19.3252 25.0232 18.5514 25.0244 17.7776 25.0261C16.982 25.0279 16.1865 25.0288 15.3909 25.0287C14.9447 25.0286 14.4985 25.029 14.0522 25.0303C13.6323 25.0316 13.2124 25.0315 12.7926 25.0306C12.6388 25.0305 12.485 25.0308 12.3312 25.0316C11.1463 25.037 10.3063 24.9502 9.39844 24.1251C8.81541 23.5073 8.60597 22.7294 8.43506 21.921C8.41273 21.8197 8.39029 21.7185 8.36776 21.6174C8.31908 21.3977 8.27113 21.178 8.22374 20.9581C8.14693 20.6017 8.0685 20.2456 7.98984 19.8896C7.88755 19.4261 7.78568 18.9625 7.68423 18.4989C7.44758 17.4177 7.20703 16.3373 6.96582 15.2571C6.95067 15.1893 6.95067 15.1893 6.93521 15.12C6.84326 14.7083 6.75129 14.2965 6.65928 13.8847C6.52872 13.3003 6.39839 12.7158 6.26825 12.1313C6.21092 11.8738 6.15356 11.6164 6.0962 11.3589C6.05152 11.1583 6.00687 10.9578 5.96226 10.7572C5.94564 10.6825 5.92902 10.6078 5.9119 10.5309C5.88748 10.4211 5.88748 10.4211 5.86257 10.3091C5.81504 10.0962 5.76695 9.88353 5.71883 9.67082C5.65322 9.37981 5.59107 9.08829 5.53065 8.79616C5.49931 8.64949 5.46796 8.50281 5.43661 8.35613C5.42337 8.28899 5.41012 8.22184 5.39648 8.15266C5.31005 7.75579 5.20032 7.44797 4.875 7.18757C4.50002 7.04507 4.13561 7.04504 3.73779 7.04548C3.6158 7.04421 3.49381 7.04291 3.37183 7.04157C3.18146 7.04016 2.99112 7.03913 2.80075 7.03876C2.61568 7.03817 2.43067 7.03606 2.24561 7.03376C2.18896 7.03408 2.13231 7.03439 2.07394 7.03472C1.72622 7.02932 1.52591 6.98174 1.25 6.75007C1.02323 6.51136 0.980625 6.31989 0.96875 6.00007C0.980625 5.68024 1.02323 5.48878 1.25 5.25007C1.59673 4.94334 1.9245 4.9636 2.37354 4.96687Z" fill="currentColor"/>
<path d="M25.707 27.4571C26.347 27.9404 26.8775 28.5569 27 29.3751C27.0893 30.4654 26.9261 31.2721 26.209 32.1229C25.7086 32.6622 25.0657 32.9793 24.334 33.0198C23.2911 33.0548 22.5419 32.8257 21.7656 32.1055C21.1411 31.4456 20.9679 30.7239 20.9738 29.8419C20.9995 28.9593 21.3648 28.267 22.0039 27.6622C23.045 26.8058 24.5789 26.7084 25.707 27.4571ZM23.1641 29.4766C23.0263 29.7627 23.0127 30.0004 23.0625 30.3126C23.2081 30.615 23.3851 30.792 23.6875 30.9376C23.9997 30.9874 24.2373 30.9738 24.5234 30.836C24.7475 30.6333 24.9122 30.471 24.9614 30.1627C24.9774 29.8074 24.9335 29.5845 24.6875 29.3126C24.4156 29.0665 24.1926 29.0226 23.8374 29.0386C23.5291 29.0879 23.3667 29.2526 23.1641 29.4766Z" fill="currentColor"/>
<path d="M15.707 27.4571C16.347 27.9404 16.8775 28.5569 17 29.3751C17.0893 30.4654 16.9261 31.2721 16.209 32.1229C15.7086 32.6622 15.0657 32.9793 14.334 33.0198C13.2911 33.0548 12.5419 32.8257 11.7656 32.1055C11.1411 31.4456 10.9679 30.7239 10.9738 29.8419C10.9995 28.9593 11.3648 28.267 12.0039 27.6622C13.045 26.8058 14.5789 26.7084 15.707 27.4571ZM13.1641 29.4766C13.0263 29.7627 13.0127 30.0004 13.0625 30.3126C13.2081 30.615 13.3851 30.792 13.6875 30.9376C13.9997 30.9874 14.2373 30.9738 14.5234 30.836C14.7475 30.6333 14.9122 30.471 14.9614 30.1627C14.9774 29.8074 14.9335 29.5845 14.6875 29.3126C14.4156 29.0665 14.1926 29.0226 13.8374 29.0386C13.5291 29.0879 13.3667 29.2526 13.1641 29.4766Z" fill="currentColor"/>
<path d="M20.4648 8.96757C20.5505 8.96723 20.6361 8.96678 20.7218 8.96624C20.9537 8.9651 21.1856 8.96554 21.4176 8.96634C21.6606 8.96697 21.9037 8.96638 22.1467 8.96599C22.5549 8.96554 22.963 8.96613 23.3711 8.96732C23.8425 8.96869 24.3139 8.96824 24.7853 8.96687C25.1905 8.96573 25.5957 8.96557 26.0009 8.96623C26.2427 8.96662 26.4845 8.96667 26.7263 8.96584C26.9537 8.96512 27.1811 8.96563 27.4084 8.96707C27.5314 8.96755 27.6543 8.96681 27.7772 8.96604C28.4484 8.97246 28.4484 8.97246 28.75 9.24992C28.9768 9.48862 29.0194 9.68009 29.0312 9.99992C29.0194 10.3197 28.9768 10.5112 28.75 10.7499C28.3904 11.0807 28.0041 11.0352 27.5352 11.0323C27.4495 11.0326 27.3639 11.0331 27.2782 11.0336C27.0463 11.0347 26.8144 11.0343 26.5824 11.0335C26.3394 11.0329 26.0963 11.0335 25.8533 11.0338C25.4451 11.0343 25.037 11.0337 24.6289 11.0325C24.1575 11.0311 23.6861 11.0316 23.2147 11.033C22.8095 11.0341 22.4043 11.0343 21.9991 11.0336C21.7573 11.0332 21.5155 11.0332 21.2737 11.034C21.0463 11.0347 20.8189 11.0342 20.5916 11.0328C20.4686 11.0323 20.3457 11.033 20.2228 11.0338C19.5516 11.0274 19.5516 11.0274 19.25 10.7499C19.0232 10.5112 18.9806 10.3197 18.9688 9.99992C18.9806 9.68009 19.0232 9.48862 19.25 9.24992C19.6096 8.91913 19.9959 8.9646 20.4648 8.96757Z" fill="currentColor"/>
</svg>
