<svg width="32" height="32" viewBox="0 0 32 32" fill="none" xmlns="http://www.w3.org/2000/svg">
<path d="M8.59544 6.73417C9.05114 6.97463 9.39208 7.34929 9.75034 7.71174C9.83 7.79119 9.90974 7.87057 9.98954 7.9499C10.2049 8.16432 10.4192 8.37971 10.6333 8.59531C10.8581 8.82133 11.0836 9.04653 11.3091 9.27185C11.6874 9.65012 12.065 10.029 12.4423 10.4083C12.878 10.8463 13.3146 11.2835 13.7517 11.7201C14.173 12.141 14.5937 12.5624 15.0141 12.984C15.1928 13.1632 15.3715 13.3421 15.5505 13.5209C15.7611 13.7316 15.9713 13.9426 16.1811 14.1541C16.2581 14.2315 16.3352 14.3087 16.4124 14.3857C16.5181 14.4912 16.6232 14.5972 16.7282 14.7034C16.7586 14.7335 16.7891 14.7636 16.8205 14.7947C17.1632 15.1442 17.3581 15.4963 17.3906 15.9842C17.3771 16.474 17.2099 16.7412 16.8826 17.0934C16.8522 17.1261 16.8218 17.1589 16.7905 17.1926C16.4484 17.5587 16.0955 17.9141 15.7414 18.2685C15.6682 18.342 15.595 18.4155 15.5219 18.489C15.3255 18.6862 15.1289 18.8832 14.9323 19.0801C14.8091 19.2034 14.686 19.3268 14.5629 19.4502C14.1767 19.8373 13.7903 20.2242 13.4038 20.611C12.9593 21.0558 12.5152 21.501 12.0714 21.9465C11.7269 22.2924 11.382 22.638 11.0368 22.9832C10.8313 23.1888 10.6259 23.3946 10.4208 23.6008C10.2283 23.7943 10.0353 23.9874 9.84199 24.1802C9.77138 24.2508 9.70094 24.3215 9.63067 24.3924C8.68504 25.3459 8.68504 25.3459 8.01562 25.3905C7.66299 25.3852 7.38337 25.2649 7.08203 25.0897C6.79308 24.7851 6.60928 24.4228 6.58594 23.9999C6.64243 23.2871 7.13163 22.8241 7.61555 22.3488C7.68463 22.2798 7.75364 22.2108 7.82259 22.1417C8.00859 21.9556 8.19555 21.7704 8.38269 21.5855C8.57861 21.3915 8.77363 21.1967 8.96875 21.0019C9.33777 20.6339 9.70758 20.2666 10.0777 19.8997C10.4993 19.4816 10.9199 19.0626 11.3405 18.6436C12.2052 17.7822 13.071 16.9219 13.9375 16.0624C13.8425 15.8382 13.7109 15.696 13.5386 15.5255C13.481 15.4682 13.4234 15.4109 13.3641 15.3519C13.3001 15.2889 13.2362 15.2258 13.1722 15.1628C13.1049 15.0961 13.0376 15.0293 12.9704 14.9625C12.8257 14.8188 12.6807 14.6752 12.5356 14.5318C12.3059 14.3047 12.0768 14.077 11.8477 13.8492C11.1964 13.2014 10.5444 12.5543 9.89153 11.9081C9.53091 11.5512 9.17086 11.1937 8.81142 10.8356C8.58424 10.6093 8.35639 10.3838 8.12801 10.1587C7.98553 10.018 7.84371 9.87658 7.70207 9.73499C7.63666 9.66986 7.57099 9.60501 7.50503 9.54045C7.05209 9.09681 6.6376 8.65795 6.58594 7.99986C6.60777 7.64376 6.72397 7.34756 6.9375 7.06236C7.41852 6.64704 7.99193 6.45335 8.59544 6.73417Z" fill="currentColor"/>
<path d="M16.8317 6.91814C16.9018 6.98419 16.9018 6.98419 16.9734 7.05158C17.0276 7.1024 17.0818 7.15323 17.1377 7.20559C17.4602 7.51794 17.78 7.83266 18.0976 8.14999C18.1744 8.22645 18.2511 8.30289 18.3279 8.37932C18.5345 8.58512 18.7409 8.79112 18.9473 8.99718C19.0764 9.1261 19.2055 9.25498 19.3347 9.38386C19.7394 9.78771 20.1439 10.1917 20.5483 10.5958C21.0142 11.0614 21.4804 11.5265 21.947 11.9913C22.3087 12.3516 22.6699 12.7123 23.031 13.0732C23.2462 13.2884 23.4616 13.5034 23.6774 13.7181C23.88 13.9197 24.0822 14.1217 24.284 14.324C24.358 14.3981 24.4322 14.472 24.5066 14.5458C24.6082 14.6466 24.7092 14.748 24.8101 14.8495C24.8667 14.9061 24.9233 14.9626 24.9817 15.0208C25.2877 15.3765 25.382 15.7276 25.375 16.1874C25.3353 16.577 25.1446 16.8138 24.8824 17.0949C24.852 17.1276 24.8216 17.1602 24.7903 17.1938C24.448 17.5593 24.0953 17.9144 23.7414 18.2686C23.6682 18.3421 23.595 18.4156 23.5219 18.4891C23.3255 18.6862 23.1289 18.8832 22.9323 19.0801C22.8091 19.2035 22.686 19.3269 22.5629 19.4503C22.1767 19.8374 21.7903 20.2243 21.4038 20.6111C20.9593 21.0559 20.5152 21.5011 20.0714 21.9466C19.7269 22.2925 19.382 22.638 19.0368 22.9833C18.8313 23.1889 18.6259 23.3947 18.4208 23.6008C18.2283 23.7944 18.0353 23.9875 17.842 24.1803C17.7714 24.2508 17.7009 24.3216 17.6307 24.3924C16.685 25.3459 16.685 25.3459 16.0156 25.3905C15.663 25.3853 15.3834 25.265 15.082 25.0898C14.7931 24.7852 14.6093 24.4228 14.5859 23.9999C14.6424 23.2872 15.1316 22.8242 15.6156 22.3489C15.6846 22.2799 15.7536 22.2108 15.8226 22.1417C16.0086 21.9556 16.1955 21.7705 16.3827 21.5855C16.5786 21.3916 16.7736 21.1967 16.9688 21.002C17.3378 20.6339 17.7076 20.2667 18.0777 19.8997C18.4993 19.4817 18.9199 19.0627 19.3405 18.6437C20.2052 17.7823 21.071 16.922 21.9375 16.0624C21.8427 15.8391 21.712 15.6969 21.5405 15.5267C21.4834 15.4696 21.4263 15.4126 21.3674 15.3538C21.3039 15.2911 21.2404 15.2284 21.1769 15.1656C21.1102 15.0992 21.0434 15.0328 20.9767 14.9663C20.8331 14.8232 20.6893 14.6804 20.5453 14.5377C20.3175 14.3119 20.0902 14.0856 19.863 13.8592C19.2984 13.2967 18.7333 12.7349 18.1679 12.1734C17.7287 11.7372 17.2896 11.3008 16.8512 10.8637C16.6256 10.6388 16.3995 10.4143 16.1731 10.1901C16.0321 10.0503 15.8914 9.91004 15.7508 9.76969C15.6858 9.7049 15.6206 9.64028 15.5552 9.57583C14.7214 8.75339 14.7214 8.75339 14.6719 8.1093C14.7041 7.62598 14.893 7.26489 15.25 6.93742C15.7257 6.6401 16.3584 6.5712 16.8317 6.91814Z" fill="currentColor"/>
</svg>
