<svg width="24" height="24" viewBox="0 0 24 24" fill="none" xmlns="http://www.w3.org/2000/svg">
    <path d="M10.034 7.331e-05C10.0772 9.87853e-05 10.1204 0.000124261 10.165 0.000150508C10.8644 0.00204198 11.5312 0.0441995 12.2146 0.205021C12.2802 0.22008 12.2802 0.22008 12.3472 0.235443C14.0101 0.626855 15.535 1.43658 16.7897 2.59485C16.8791 2.67662 16.9704 2.75427 17.0638 2.83128C17.2444 2.98575 17.3933 3.16206 17.5461 3.34364C17.6056 3.41194 17.6056 3.41194 17.6663 3.48162C18.8809 4.88139 19.6917 6.61684 19.978 8.44976C19.9884 8.50924 19.9988 8.56872 20.0096 8.63001C20.2175 10.0225 20.0916 11.5077 19.6974 12.8532C19.6871 12.8885 19.6768 12.9239 19.6662 12.9603C19.3377 14.0628 18.8194 15.1329 18.1073 16.0387C18.0547 16.1055 18.0547 16.1055 18.0011 16.1737C17.9125 16.2854 17.8232 16.3965 17.7331 16.5071C17.8075 16.691 17.9338 16.814 18.0726 16.9505C18.0979 16.9758 18.1232 17.0011 18.1493 17.0271C18.2342 17.1118 18.3195 17.1961 18.4047 17.2804C18.4657 17.3411 18.5266 17.4017 18.5875 17.4624C18.7186 17.593 18.8499 17.7234 18.9813 17.8538C19.1888 18.0597 19.396 18.2661 19.603 18.4726C20.1919 19.0597 20.7812 19.6464 21.3711 20.2323C21.697 20.5559 22.0224 20.88 22.3474 21.2045C22.5533 21.41 22.7597 21.615 22.9665 21.8197C23.0947 21.9469 23.2225 22.0745 23.3501 22.2024C23.4096 22.2617 23.4693 22.3209 23.5292 22.3798C23.6106 22.46 23.6913 22.5409 23.7719 22.622C23.796 22.6454 23.8201 22.6688 23.8449 22.6929C23.9096 22.759 23.9096 22.759 24 22.8781C23.9902 23.1563 23.6773 23.3657 23.4943 23.5485C23.4515 23.5928 23.4087 23.637 23.3645 23.6826C23.3231 23.7241 23.2818 23.7657 23.2391 23.8086C23.2012 23.8469 23.1633 23.8852 23.1242 23.9246C23.0179 24.0023 23.0179 24.0023 22.9339 23.9989C22.7839 23.9357 22.6844 23.8277 22.5722 23.7133C22.5466 23.6879 22.5211 23.6624 22.4947 23.6361C22.409 23.5505 22.3238 23.4644 22.2386 23.3782C22.1773 23.3168 22.116 23.2554 22.0547 23.1941C21.8881 23.0273 21.7219 22.86 21.5558 22.6926C21.3822 22.5179 21.2083 22.3436 21.0343 22.1692C20.7049 21.8388 20.3759 21.5081 20.047 21.1772C19.6726 20.8006 19.2978 20.4244 18.9229 20.0482C18.1517 19.2743 17.3811 18.4998 16.6107 17.7251C16.4404 17.8063 16.3077 17.9077 16.1606 18.0267C14.8386 19.0681 13.2566 19.6989 11.6066 19.9737C11.547 19.9842 11.4873 19.9948 11.4259 20.0057C8.83696 20.3898 6.15356 19.6577 4.06167 18.1074C3.78295 17.8952 3.52501 17.6627 3.27043 17.4226C3.17986 17.3388 3.08974 17.2596 2.99457 17.1816C2.81946 17.0343 2.6805 16.8693 2.53365 16.6945C2.49845 16.654 2.46324 16.6135 2.42696 16.5717C1.347 15.3102 0.604546 13.8187 0.242038 12.1974C0.232272 12.1555 0.222505 12.1136 0.212443 12.0705C-0.0863934 10.7396 -0.0639835 9.2155 0.242038 7.88762C0.250795 7.84808 0.259551 7.80853 0.268573 7.76779C0.856601 5.16306 2.50055 2.94265 4.73045 1.50497C5.83994 0.809603 7.08499 0.319438 8.37961 0.11133C8.45317 0.099023 8.45317 0.099023 8.52822 0.0864669C9.03076 0.0100899 9.52655 -0.00105513 10.034 7.331e-05ZM5.01234 3.20311C4.97381 3.23173 4.93529 3.26035 4.8956 3.28985C4.39996 3.673 3.90298 4.11391 3.51577 4.60846C3.49598 4.63316 3.47619 4.65786 3.45581 4.6833C3.07517 5.16072 2.76464 5.65773 2.48689 6.2012C2.47153 6.23082 2.45617 6.26044 2.44035 6.29095C1.42681 8.26621 1.31073 10.6004 1.9832 12.7011C2.3719 13.8368 2.992 15.0004 3.86927 15.8323C3.93668 15.8981 3.93668 15.8981 4.02729 16.0152C4.16684 16.1847 4.33028 16.3193 4.49789 16.4603C4.53551 16.4927 4.57313 16.5251 4.61189 16.5585C6.34453 18.0229 8.51847 18.6507 10.7648 18.5215C11.7752 18.4305 12.7516 18.1663 13.6644 17.7251C13.6931 17.7115 13.7218 17.6979 13.7514 17.6839C14.6046 17.2796 15.3233 16.7341 16.0027 16.0855C16.0416 16.0496 16.0804 16.0138 16.1204 15.9768C17.3769 14.7791 18.1149 13.1331 18.4347 11.4479C18.4453 11.3951 18.4559 11.3424 18.4668 11.2881C18.8175 9.2026 18.2598 6.92851 17.0505 5.20466C16.8068 4.86813 16.5592 4.54599 16.2599 4.25706C16.1898 4.18686 16.1898 4.18686 16.0992 4.06974C15.9596 3.90031 15.7962 3.76566 15.6286 3.62471C15.5722 3.57607 15.5722 3.57607 15.5146 3.52645C12.5379 1.01072 8.13513 0.870813 5.01234 3.20311Z" fill='currentColor'/>
</svg>
