<svg width="32" height="32" viewBox="0 0 32 32" fill="none" xmlns="http://www.w3.org/2000/svg">
<path d="M15.9688 1.41774C16.015 1.41593 16.0612 1.41411 16.1089 1.41224C16.893 1.40355 17.6376 1.81527 18.3459 2.11537C18.5816 2.2152 18.8174 2.31441 19.0533 2.41368C19.1782 2.46624 19.303 2.51883 19.4278 2.57146C20.0551 2.83584 20.6835 3.09758 21.312 3.35904C21.6259 3.48967 21.9398 3.62045 22.2537 3.75123C22.3155 3.777 22.3774 3.80277 22.4411 3.82932C24.3368 4.61932 24.3368 4.61932 25.2568 5.00679C25.5545 5.13202 25.853 5.25505 26.1524 5.37648C27.024 5.7343 27.7672 6.13342 28.187 7.0302C28.4174 7.60493 28.4787 8.24002 28.5391 8.85133C28.5469 8.92807 28.5547 9.00481 28.5627 9.08388C29.0918 14.4396 28.2304 20.5561 24.7783 24.8767C24.7277 24.938 24.6771 24.9992 24.625 25.0623C24.5981 25.0951 24.5713 25.1278 24.5436 25.1616C22.6656 27.4481 20.3492 29.1357 17.611 30.2655C17.514 30.3064 17.4185 30.3504 17.3233 30.395C16.4981 30.7389 15.3994 30.6873 14.5764 30.3594C14.4909 30.323 14.4058 30.2856 14.3211 30.2474C14.1787 30.1833 14.0349 30.1233 13.8906 30.0635C9.80632 28.3332 6.62298 24.9678 4.9463 20.8853C3.41265 17.0255 2.27321 11.0631 3.80274 7.02492C3.92137 6.77845 4.06863 6.57832 4.25001 6.37477C4.27845 6.33843 4.30689 6.3021 4.33619 6.26466C4.55746 6.00757 4.81919 5.85637 5.12037 5.70827C5.18561 5.67597 5.18561 5.67597 5.25216 5.64303C5.77074 5.39082 6.30369 5.1735 6.83771 4.95648C7.0904 4.85378 7.34272 4.75021 7.59507 4.64669C7.72576 4.59309 7.85647 4.53952 7.98719 4.486C8.62569 4.22443 9.26222 3.95823 9.89845 3.69118C10.118 3.59911 10.3376 3.50708 10.5571 3.41505C10.6123 3.39192 10.6675 3.36878 10.7244 3.34494C11.3698 3.07444 12.0156 2.80478 12.6615 2.53544C12.7913 2.48128 12.9212 2.42708 13.051 2.37286C14.2094 1.88922 14.2094 1.88922 14.79 1.65504C14.8616 1.62618 14.9332 1.59732 15.0069 1.56758C15.3314 1.44573 15.6231 1.42207 15.9688 1.41774ZM14.7891 2.79664C14.6722 2.8475 14.5554 2.89834 14.4385 2.94899C14.3524 2.98638 14.2665 3.02399 14.1806 3.06179C13.6232 3.30716 13.06 3.53834 12.4974 3.77142C12.1725 3.90615 11.848 4.04159 11.5234 4.17702C11.4587 4.20404 11.3939 4.23106 11.3272 4.2589C10.401 4.64532 9.47509 5.03252 8.54967 5.42081C8.21784 5.55995 7.8857 5.69833 7.55334 5.83619C7.33373 5.92735 7.11425 6.01885 6.8948 6.1104C6.79201 6.15319 6.68916 6.19582 6.58623 6.23829C5.55008 6.64157 5.55008 6.64157 4.81251 7.43727C4.62785 7.8989 4.5729 8.3797 4.52345 8.87086C4.51565 8.94551 4.50785 9.02016 4.49981 9.09707C3.9576 14.4476 4.90324 20.2822 8.35548 24.5584C8.44466 24.6644 8.53447 24.7699 8.62501 24.8748C8.66682 24.9235 8.70864 24.9723 8.75172 25.0225C9.43582 25.8008 10.1651 26.5108 11 27.1248C11.0535 27.1647 11.0535 27.1647 11.1081 27.2055C11.6542 27.6125 12.2193 27.9777 12.8125 28.3123C12.857 28.3374 12.9016 28.3625 12.9475 28.3884C14.7782 29.4354 14.7782 29.4354 16.8125 29.4373C17.0693 29.3434 17.3176 29.2338 17.5664 29.1209C17.6352 29.09 17.704 29.059 17.7748 29.0272C19.4804 28.2528 21.0233 27.2372 22.375 25.9373C22.4088 25.9049 22.4426 25.8725 22.4774 25.8391C22.9354 25.397 23.3623 24.9436 23.75 24.4373C23.7762 24.4033 23.8025 24.3694 23.8295 24.3344C27.2783 19.8472 28.1012 13.858 27.418 8.36305C27.3295 7.72662 27.1927 7.26015 26.6869 6.84041C26.4802 6.6898 26.258 6.59156 26.0234 6.49196C25.9692 6.46826 25.915 6.44455 25.8591 6.42013C25.2589 6.15986 24.6534 5.91171 24.0483 5.6631C23.3828 5.38963 22.7188 5.11255 22.0547 4.83571C21.9909 4.80913 21.9271 4.78255 21.8614 4.75517C21.1 4.43792 20.3389 4.12015 19.5783 3.80119C19.2911 3.68077 19.0038 3.56053 18.7164 3.44081C18.266 3.25316 17.8162 3.06533 17.3704 2.8672C17.2767 2.82638 17.2767 2.82638 17.1811 2.78473C17.0756 2.73861 16.9705 2.69136 16.8663 2.64242C16.1512 2.33377 15.4699 2.48467 14.7891 2.79664Z" fill="currentColor"/>
<path d="M16.969 3.9018C17.0197 3.92318 17.0704 3.94455 17.1227 3.96658C17.2904 4.03727 17.4578 4.10846 17.6252 4.17963C17.7446 4.23005 17.864 4.28043 17.9834 4.33076C18.1711 4.40992 18.3589 4.4891 18.5466 4.56841C19.176 4.8343 19.8067 5.09702 20.4375 5.35938C20.751 5.48978 21.0645 5.62034 21.3779 5.75092C21.4706 5.78954 21.4706 5.78954 21.5651 5.82893C22.2378 6.10924 22.9101 6.39042 23.5822 6.67182C23.6364 6.69448 23.6905 6.71714 23.7463 6.74049C23.7988 6.76246 23.8513 6.78444 23.9054 6.80708C23.9569 6.82863 24.0084 6.85018 24.0614 6.87239C24.1622 6.91462 24.2629 6.95695 24.3636 6.99939C24.6238 7.10898 24.8845 7.21667 25.1465 7.32185C25.201 7.344 25.2555 7.36616 25.3116 7.38899C25.4155 7.43124 25.5197 7.47293 25.6242 7.51395C26.0551 7.69041 26.0551 7.69041 26.1877 7.93745C27.4634 11.6285 26.3811 17.2608 24.7578 20.6694C24.7138 20.7589 24.6696 20.8482 24.6252 20.9374C24.5994 20.9898 24.5735 21.0422 24.5469 21.0962C23.858 22.4809 23.0076 23.6963 21.9377 24.8124C21.9063 24.8456 21.8749 24.8787 21.8425 24.9128C21.3479 25.4319 20.8253 25.885 20.2502 26.3124C20.2154 26.3389 20.1805 26.3654 20.1446 26.3927C19.0798 27.2011 17.1294 28.5977 15.7502 28.4374C15.5502 28.3833 15.3626 28.3073 15.1721 28.2265C15.118 28.2041 15.0639 28.1817 15.0082 28.1586C13.5606 27.5479 12.2528 26.7775 11.0627 25.7499C11.0066 25.7019 10.9504 25.6539 10.8925 25.6044C10.7377 25.4685 10.5871 25.3293 10.4377 25.1874C10.3882 25.1405 10.3882 25.1405 10.3377 25.0926C9.7975 24.5766 9.31969 24.0373 8.87521 23.4374C8.82207 23.3675 8.76893 23.2975 8.71579 23.2275C5.74821 19.2594 5.17119 13.8548 5.62521 9.06245C5.63021 9.00954 5.63522 8.95662 5.64038 8.90211C5.72529 8.05225 5.72529 8.05225 5.93771 7.74995C6.32011 7.51927 6.74525 7.35462 7.15817 7.18671C7.21374 7.16388 7.26932 7.14104 7.32658 7.11751C7.44589 7.06851 7.56524 7.01961 7.68462 6.9708C8.00756 6.83877 8.33015 6.70592 8.6528 6.57319C8.71877 6.54607 8.78475 6.51895 8.85272 6.49101C9.49417 6.22718 10.1341 5.95969 10.7736 5.69135C10.993 5.59938 11.2124 5.50743 11.4319 5.41547C11.487 5.39235 11.5422 5.36923 11.599 5.3454C12.247 5.07383 12.8952 4.80276 13.5435 4.53219C13.6743 4.47761 13.805 4.42299 13.9357 4.36833C14.2831 4.22303 14.6309 4.07883 14.9793 3.93577C15.1116 3.8806 15.2429 3.82351 15.3741 3.76548C15.4442 3.73562 15.5144 3.70576 15.5866 3.675C15.6438 3.64972 15.7009 3.62445 15.7598 3.59841C16.172 3.5151 16.5951 3.74168 16.969 3.9018ZM15.6328 4.81416C15.5349 4.85665 15.5349 4.85665 15.435 4.9C15.3624 4.9317 15.2898 4.96339 15.2151 4.99604C14.468 5.31978 13.7175 5.63435 12.9651 5.94526C12.7448 6.0363 12.5246 6.12736 12.3044 6.21845C12.2488 6.24145 12.1932 6.26445 12.1359 6.28815C11.7363 6.45361 11.3371 6.62014 10.9382 6.7873C10.8531 6.82291 10.8531 6.82291 10.7664 6.85924C10.4834 6.97778 10.2007 7.0967 9.91818 7.21629C9.38207 7.4427 8.84487 7.66251 8.3005 7.86836C8.15229 7.92544 8.00414 7.98272 7.85603 8.04007C7.76316 8.0754 7.66994 8.10983 7.57638 8.14328C7.08725 8.29759 7.08725 8.29759 6.7322 8.63624C6.69479 8.80327 6.68826 8.95386 6.68771 9.12495C6.67502 9.25098 6.66181 9.37695 6.64816 9.50288C6.3564 13.2368 6.69555 17.1606 8.37521 20.5624C8.40805 20.6293 8.40805 20.6293 8.44156 20.6975C9.06804 21.9581 9.87907 23.0816 10.8514 24.0972C10.928 24.1773 11.0039 24.2583 11.0796 24.3393C12.1333 25.438 13.5066 26.2789 14.8713 26.9335C14.9186 26.9564 14.9658 26.9792 15.0145 27.0028C15.1543 27.0681 15.2951 27.1287 15.4377 27.1874C15.4879 27.2091 15.5382 27.2308 15.5899 27.2531C15.9558 27.3903 16.1743 27.3788 16.5303 27.2201C16.6102 27.1807 16.6102 27.1807 16.6916 27.1406C16.7484 27.1143 16.8052 27.088 16.8636 27.061C17.0354 26.9804 17.2054 26.897 17.3752 26.8124C17.4242 26.7885 17.4733 26.7645 17.5238 26.7398C18.8204 26.1019 19.9568 25.2442 21.0002 24.2499C21.0489 24.2046 21.0975 24.1592 21.1477 24.1125C21.5617 23.7153 21.9061 23.2697 22.2502 22.8124C22.2771 22.7772 22.3039 22.742 22.3316 22.7057C22.7846 22.1088 23.1555 21.4772 23.5002 20.8124C23.5223 20.77 23.5443 20.7276 23.5671 20.6839C25.2949 17.3125 25.7615 13.1003 25.3304 9.37124C25.3127 9.18745 25.3127 9.18745 25.3191 9.00402C25.3139 8.79517 25.2948 8.68062 25.1877 8.49995C24.8449 8.27387 24.4701 8.14428 24.0861 8.00385C23.9709 7.95931 23.8557 7.91446 23.7407 7.86932C23.4958 7.77345 23.2506 7.67883 23.005 7.58491C22.4387 7.36682 21.8801 7.13049 21.3209 6.89526C21.0698 6.78978 20.8183 6.68503 20.5669 6.5803C19.8186 6.26857 19.0706 5.95596 18.3228 5.6431C18.2087 5.59539 18.0947 5.54769 17.9806 5.5C17.8222 5.43378 17.6639 5.36751 17.5056 5.30122C17.4566 5.28071 17.4075 5.2602 17.357 5.23907C17.1283 5.14321 16.9001 5.0465 16.6726 4.94764C16.6318 4.92993 16.591 4.91222 16.549 4.89397C16.4405 4.84674 16.3321 4.7992 16.2238 4.75163C15.9744 4.65226 15.8725 4.70927 15.6328 4.81416Z" fill="currentColor"/>
<path d="M18.6682 10.012C19.4226 10.801 19.6573 11.7332 19.6364 12.8006C19.6341 12.8848 19.6312 12.969 19.6276 13.0531C19.6009 13.5864 19.6009 13.5864 19.824 14.0514C19.981 14.1912 20.1437 14.3132 20.3127 14.4377C20.8636 15.0502 20.8409 15.9619 20.8354 16.7373C20.8354 16.8299 20.8354 16.9226 20.8355 17.0152C20.8355 17.2078 20.8348 17.4004 20.8337 17.593C20.8323 17.8382 20.8323 18.0834 20.8327 18.3286C20.8329 18.5193 20.8325 18.7101 20.8319 18.9008C20.8316 18.9912 20.8315 19.0815 20.8316 19.1719C20.8318 20.037 20.7323 20.6814 20.2697 21.4182C19.7732 21.9147 19.2079 22.205 18.5025 22.2138C18.4507 22.2136 18.3988 22.2133 18.3454 22.213C18.2892 22.2134 18.2329 22.2138 18.1749 22.2143C17.9905 22.2154 17.8062 22.2152 17.6218 22.2148C17.4925 22.2151 17.3632 22.2155 17.234 22.2158C16.9636 22.2164 16.6933 22.2162 16.423 22.2156C16.078 22.2149 15.733 22.2162 15.388 22.218C15.1212 22.2191 14.8544 22.2191 14.5876 22.2188C14.4605 22.2187 14.3333 22.2191 14.2062 22.2199C13.3388 22.2245 12.5313 22.2119 11.8752 21.5627C11.3673 20.9536 11.1812 20.3627 11.1786 19.5704C11.1784 19.5298 11.1782 19.4893 11.178 19.4476C11.1774 19.315 11.1773 19.1824 11.1772 19.0498C11.177 18.9566 11.1768 18.8635 11.1766 18.7703C11.1762 18.5755 11.1761 18.3806 11.1761 18.1858C11.1761 17.9376 11.1753 17.6895 11.1742 17.4413C11.1735 17.249 11.1734 17.0566 11.1734 16.8643C11.1733 16.7729 11.1731 16.6814 11.1726 16.59C11.1682 15.6946 11.2261 14.888 11.883 14.219C12.0225 14.0865 12.1518 13.9825 12.3127 13.8752C12.3406 13.6895 12.3406 13.6895 12.3359 13.47C12.337 13.3861 12.3381 13.3022 12.3392 13.2183C12.3398 13.0871 12.34 12.9559 12.3399 12.8247C12.3419 11.7192 12.6034 10.7827 13.3791 9.95336C13.9251 9.4351 14.566 9.07246 15.3127 8.93774C15.384 8.92348 15.384 8.92348 15.4567 8.90893C16.6761 8.72418 17.7875 9.18928 18.6682 10.012ZM14.1276 10.7356C13.3707 11.565 13.4377 12.4305 13.4377 13.5627C15.1289 13.5627 16.8202 13.5627 18.5627 13.5627C18.5881 11.9728 18.5881 11.9728 17.8244 10.6916C16.74 9.67717 15.1944 9.73289 14.1276 10.7356ZM12.5393 15.1135C12.5104 15.1526 12.4816 15.1917 12.4519 15.2319C12.2808 15.5518 12.2345 15.8736 12.233 16.2321C12.2324 16.3129 12.2318 16.3936 12.2312 16.4768C12.2312 16.5639 12.2313 16.651 12.2314 16.738C12.2312 16.8285 12.2309 16.9191 12.2306 17.0096C12.2301 17.1988 12.2301 17.388 12.2305 17.5772C12.2308 17.8184 12.2298 18.0595 12.2283 18.3007C12.2274 18.4875 12.2273 18.6743 12.2275 18.8612C12.2275 18.95 12.2272 19.0389 12.2266 19.1277C12.2224 19.7864 12.2461 20.3505 12.7124 20.8479C13.0942 21.1898 13.5573 21.1971 14.0448 21.1968C14.0916 21.197 14.1384 21.1972 14.1867 21.1975C14.3405 21.198 14.4943 21.1982 14.6481 21.1982C14.7557 21.1984 14.8633 21.1986 14.9708 21.1989C15.196 21.1992 15.4212 21.1994 15.6463 21.1993C15.934 21.1993 16.2216 21.2002 16.5092 21.2012C16.7313 21.2019 16.9534 21.2021 17.1755 21.202C17.2815 21.2021 17.3875 21.2024 17.4935 21.2029C17.6421 21.2035 17.7907 21.2033 17.9394 21.2029C17.9826 21.2033 18.0258 21.2036 18.0703 21.204C18.6184 21.2005 19.0546 21.0708 19.4494 20.676C19.7866 20.1528 19.7781 19.6063 19.7751 19.0002C19.7752 18.9099 19.7754 18.8196 19.7756 18.7292C19.7759 18.5408 19.7755 18.3523 19.7746 18.1638C19.7736 17.9236 19.7742 17.6835 19.7753 17.4433C19.776 17.257 19.7758 17.0707 19.7753 16.8845C19.7752 16.796 19.7753 16.7075 19.7758 16.619C19.778 16.0297 19.7559 15.5428 19.426 15.0432C19.0578 14.6914 18.6968 14.5877 18.1965 14.5929C18.1436 14.5925 18.0907 14.592 18.0361 14.5916C17.8627 14.5905 17.6893 14.5912 17.5158 14.592C17.3944 14.5919 17.273 14.5916 17.1516 14.5913C16.8978 14.5909 16.6439 14.5915 16.3901 14.5926C16.0656 14.5941 15.7412 14.5932 15.4167 14.5918C15.1662 14.5908 14.9157 14.5911 14.6652 14.5918C14.5456 14.5919 14.426 14.5917 14.3064 14.5912C14.1388 14.5905 13.9714 14.5915 13.8039 14.5929C13.7551 14.5924 13.7062 14.5919 13.6559 14.5914C13.2153 14.5981 12.8017 14.7411 12.5393 15.1135Z" fill="currentColor"/>
<path d="M16.6484 15.7853C17.0408 16.0186 17.2875 16.3504 17.4119 16.7882C17.487 17.226 17.4073 17.5895 17.1543 17.9528C16.9861 18.1541 16.7989 18.3195 16.5625 18.4376C16.5621 18.4953 16.5621 18.4953 16.5617 18.5542C16.5597 18.7289 16.5552 18.9035 16.5508 19.0783C16.5504 19.1388 16.5501 19.1993 16.5497 19.2616C16.5358 19.7102 16.5358 19.7102 16.3523 19.9152C16.149 20.02 16.0384 20.0378 15.8125 20.0001C15.6462 19.9142 15.6462 19.9142 15.5 19.7501C15.4508 19.4739 15.47 19.1934 15.4774 18.914C15.4768 18.7482 15.4737 18.5994 15.4375 18.4376C15.2666 18.2756 15.2666 18.2756 15.0625 18.1876C14.7489 17.874 14.5779 17.5416 14.5542 17.0927C14.577 16.657 14.728 16.3412 15.0305 16.0292C15.4742 15.6359 16.1018 15.5399 16.6484 15.7853ZM15.6875 16.8751C15.6195 17.0224 15.6195 17.0224 15.625 17.1876C15.7148 17.3451 15.7148 17.3451 15.875 17.4376C16.0717 17.4535 16.0717 17.4535 16.25 17.3751C16.354 17.2349 16.354 17.2349 16.375 17.0626C16.3542 16.9168 16.3542 16.9168 16.25 16.8126C15.991 16.7355 15.9174 16.7219 15.6875 16.8751Z" fill="currentColor"/>
</svg>
