<svg width="32" height="32" viewBox="0 0 32 32" fill="none" xmlns="http://www.w3.org/2000/svg">
    <path
        d="M14.9187 0.0667992C10.5674 0.527796 7.24765 3.54257 7.24765 7.04761V7.80131L5.62676 7.83058C4.07521 7.85253 3.97119 7.85985 3.50313 8.0501C2.49765 8.44524 1.79556 9.20625 1.61353 10.0843C1.46618 10.8307 -0.0507005 29.1755 0.0013067 29.6145C0.105321 30.5072 0.989444 31.4805 2.02959 31.8317L2.52366 32H16.0022H29.4807L29.9748 31.8317C31.015 31.4805 31.8991 30.5072 32.0031 29.6145C32.0551 29.1755 30.5382 10.838 30.3909 10.0917C30.3389 9.83555 30.2175 9.49163 30.1135 9.33065C29.8275 8.84038 29.1427 8.29889 28.5446 8.06473C28.0245 7.85985 27.9552 7.85253 26.3863 7.83058L24.7568 7.80131V7.2086C24.7481 5.43778 23.8033 3.57184 22.2431 2.24739C20.7522 0.981476 19.0533 0.279003 16.9557 0.0594807C16.1236 -0.0210114 15.7855 -0.0210114 14.9187 0.0667992ZM17.5191 2.51813C20.0414 3.05962 21.983 5.13045 21.983 7.28177V7.81594H16.0022H10.0214V7.28177C10.0214 6.98176 10.0994 6.49149 10.1861 6.19147C11.0182 3.45476 14.2773 1.82298 17.5191 2.51813ZM7.29099 13.2455L7.23031 16.3407L7.42968 16.5895C7.72438 16.9481 8.03643 17.1164 8.47849 17.1603C8.98122 17.2115 9.5013 16.992 9.77 16.6188L9.97803 16.3407L10.004 13.2455L10.03 10.1575H16.0022H21.9744L22.0004 13.2455L22.0264 16.3407L22.2344 16.6188C22.5031 16.992 23.0232 17.2115 23.5259 17.1603C23.9593 17.1237 24.28 16.9481 24.5661 16.5968C24.7568 16.3554 24.7568 16.348 24.7568 13.2601V10.1575H26.1003C27.3918 10.1575 27.4438 10.1648 27.5651 10.3185C27.6605 10.4429 27.8859 12.8064 28.4839 19.9555L29.2814 29.4316L29.0907 29.5633C28.9087 29.6877 28.3106 29.695 16.0022 29.695C3.69382 29.695 3.09574 29.6877 2.91371 29.5633L2.72302 29.4316L3.52046 19.9555C4.11855 12.8064 4.34391 10.4429 4.43926 10.3185C4.56061 10.1648 4.60395 10.1575 5.95614 10.1575H7.35166L7.29099 13.2455Z"
        fill="currentColor" />
</svg>