<svg width="32" height="32" viewBox="0 0 32 32" fill="none" xmlns="http://www.w3.org/2000/svg">
    <path
        d="M14.8224 0.0582504C10.487 0.489643 6.84058 3.4031 5.85938 7.21685C5.62278 8.13591 5.56711 8.8799 5.56711 11.2619C5.56711 13.7815 5.58798 13.9503 6.00552 14.4442C6.13078 14.5943 6.39522 14.7943 6.59006 14.9006L6.94497 15.0882L6.9728 15.6821C7.0076 16.3886 7.15373 16.7325 7.58518 17.1201C7.99576 17.489 8.40633 17.639 9.10222 17.6703L9.67981 17.7016L9.86074 18.0204C10.0973 18.4455 10.3896 18.8269 10.8002 19.2583L11.1412 19.6147L10.5497 20.6713L9.95816 21.7279L7.95401 22.3343C5.32355 23.1346 4.53719 23.5097 3.25676 24.6101C1.524 26.1043 0.473204 27.9549 0.104383 30.1556C0.0487122 30.4995 0 30.9559 0 31.1685C0 31.5123 0.0278355 31.5874 0.201808 31.7624L0.403615 31.9687L15.9637 31.9875L31.5237 32L31.7464 31.8249C31.9343 31.6686 31.9691 31.5936 31.997 31.2685C32.0109 31.0684 31.9761 30.587 31.9134 30.2057C31.5446 27.9674 30.5008 26.1168 28.7541 24.6101C27.4737 23.5097 26.6873 23.1346 24.0569 22.3343L22.0527 21.7279L21.4612 20.6713L20.8697 19.6147L21.2107 19.2583C22.0875 18.3393 22.672 17.2326 22.9226 16.026C22.9852 15.7134 23.0548 15.4008 23.0687 15.332C23.1035 15.2007 23.1453 15.1945 23.9873 15.1695C24.711 15.1507 24.9406 15.1195 25.1981 15.0132C25.6157 14.8444 26.068 14.438 26.2628 14.0629C26.402 13.7878 26.409 13.6752 26.4298 11.462C26.4438 10.0615 26.4229 8.8799 26.3742 8.46101C26.1306 6.26654 25.1494 4.38467 23.4306 2.80915C21.1759 0.739725 18.0305 -0.260605 14.8224 0.0582504ZM17.7104 1.39619C19.5893 1.74631 21.0576 2.45904 22.3798 3.64068C23.8342 4.94736 24.6971 6.52287 24.9685 8.34848L25.0311 8.74236H24.3561H23.688L23.5976 8.10464C23.2983 5.92268 21.8718 4.10958 19.7076 3.14677C18.5941 2.65285 17.6756 2.4903 16.0054 2.4903C14.3353 2.4903 13.4167 2.65285 12.3033 3.14677C10.1391 4.10958 8.71252 5.92268 8.41329 8.10464L8.32283 8.74236H7.64781C7.04239 8.74236 6.9728 8.72985 6.99368 8.62982C7.0076 8.57355 7.05631 8.29846 7.09806 8.02337C7.27203 6.98553 7.75916 5.87266 8.4968 4.85983C9.0048 4.1596 10.1669 3.103 10.9115 2.65911C11.9832 2.01514 13.375 1.51498 14.4745 1.37118C14.7598 1.33367 15.0729 1.28991 15.1704 1.2774C15.5322 1.22113 17.1745 1.29616 17.7104 1.39619ZM17.6199 3.82824C18.6429 4.00955 19.3805 4.3159 20.1877 4.89734C21.4403 5.80389 22.1571 7.12307 22.2476 8.66733L22.2893 9.37381L21.9831 9.33005C21.155 9.22376 19.9302 8.97368 19.3735 8.79862C18.0166 8.37348 16.5413 7.60448 15.5879 6.82298C14.9477 6.30405 14.8363 6.24153 14.4745 6.24153C13.7716 6.24153 12.533 6.51662 11.8719 6.81672C11.2943 7.07931 10.668 7.47944 10.2365 7.87332L9.79115 8.27345L9.8329 7.97335C9.95121 7.1981 10.4662 6.22278 11.1273 5.50379C11.8997 4.67227 13.1662 4.02205 14.4397 3.80948C15.0103 3.7157 17.0423 3.72821 17.6199 3.82824ZM14.6624 7.76078C16.5204 9.23627 18.789 10.1616 21.4612 10.5179C21.837 10.568 22.164 10.6242 22.178 10.643C22.2336 10.693 22.0736 12.4936 21.9205 13.644C21.5447 16.3886 21.2246 17.2639 20.2016 18.4018C19.5405 19.1333 18.4202 19.7897 17.3972 20.0398C16.7709 20.1961 15.24 20.1961 14.6137 20.0398C13.5142 19.771 12.359 19.0645 11.6422 18.2142C11.4404 17.9766 11.2734 17.7578 11.2734 17.7328C11.2734 17.7016 11.5796 17.6828 11.9554 17.6828L12.6304 17.689L12.8391 18.0079C13.0966 18.4143 13.5281 18.7144 14.0291 18.8457C14.6206 18.9957 16.409 18.952 16.8475 18.7644C17.265 18.5956 17.7173 18.1892 17.9052 17.8141C18.114 17.414 18.114 16.7012 17.9052 16.3011C17.7173 15.926 17.265 15.5196 16.8475 15.3508C16.409 15.1632 14.6206 15.1195 14.0291 15.2695C13.5281 15.4008 13.0966 15.7009 12.8391 16.1073L12.6304 16.4261L11.6074 16.4324C11.0368 16.4324 10.5775 16.4136 10.5775 16.3824C10.5775 16.3574 10.5288 16.1385 10.4731 15.901C10.2296 14.8381 9.92337 12.5186 9.83986 11.1181L9.79811 10.3366L10.3479 9.68016C10.6541 9.31754 11.1133 8.84864 11.3708 8.63607C12.1293 8.01086 13.194 7.59198 14.2448 7.4982C14.2935 7.4982 14.4814 7.61073 14.6624 7.76078ZM8.3785 10.2866C8.39937 10.4554 8.43417 10.9243 8.45504 11.337C8.48288 11.7496 8.54551 12.4498 8.60118 12.9C8.64989 13.3439 8.69861 13.7628 8.69861 13.8253C8.69861 13.9316 8.64293 13.9441 8.03751 13.9191C7.42513 13.9003 7.3625 13.8878 7.18853 13.7252L6.99368 13.5564L6.9728 11.7746L6.95193 9.99277H7.64781H8.33674L8.3785 10.2866ZM25.0381 11.7746L25.0172 13.5564L24.8223 13.7252C24.6484 13.8878 24.5857 13.9003 23.9734 13.9191C23.3679 13.9441 23.3123 13.9316 23.3123 13.8253C23.3123 13.7628 23.361 13.3439 23.4097 12.9C23.4654 12.4498 23.528 11.7371 23.5558 11.3057C23.5767 10.8743 23.6115 10.4054 23.6324 10.2554L23.6672 9.99277H24.3631H25.0589L25.0381 11.7746ZM8.94217 15.3195C8.95608 15.4008 9.0048 15.6384 9.04655 15.8572C9.0883 16.076 9.14397 16.2948 9.16485 16.3511C9.23444 16.5074 8.77515 16.4011 8.55943 16.2136C8.42025 16.0823 8.38546 15.9822 8.36458 15.6196L8.33674 15.182H8.62206C8.85866 15.182 8.90737 15.207 8.94217 15.3195ZM16.4717 16.6324C16.757 16.895 16.7431 17.2577 16.4299 17.5077L16.2003 17.6953L15.2678 17.6703C14.3771 17.6515 14.3283 17.6453 14.1613 17.489C13.9039 17.2639 13.8621 16.9451 14.0569 16.7262C14.2935 16.4636 14.4258 16.4324 15.3931 16.4511C16.256 16.4636 16.2838 16.4699 16.4717 16.6324ZM20.3617 21.4403L20.821 22.2656L20.6331 22.7345C20.3826 23.3597 19.8885 24.4038 19.5405 25.0227L19.2622 25.5166L18.0861 24.46L16.9101 23.4034L17.2093 23.1221C17.3763 22.9658 18.0374 22.3406 18.6776 21.7279C19.3248 21.1214 19.8607 20.6213 19.8746 20.6213C19.8885 20.6213 20.1042 20.9901 20.3617 21.4403ZM13.8691 24.4788C13.2706 25.0415 12.7696 25.4979 12.7556 25.4979C12.693 25.4979 11.844 23.8286 11.517 23.0658L11.1829 22.2968L11.5935 21.5528L11.9971 20.8088L13.4794 22.1343L14.9546 23.4534L13.8691 24.4788ZM16.082 21.4028H17.1049L16.5413 21.9342C16.2281 22.228 15.9567 22.4719 15.9358 22.4844C15.915 22.4906 15.6018 22.228 15.24 21.9029C14.6067 21.334 14.5928 21.309 14.8224 21.3527C14.9546 21.384 15.5253 21.4028 16.082 21.4028ZM10.3687 23.8723C11.1064 25.5229 12.1015 27.1672 13.3959 28.874C13.7508 29.3366 14.1961 29.9493 14.3979 30.2369L14.7528 30.7496H8.08622H1.41265L1.47528 30.3244C1.8441 27.8299 3.58383 25.5104 5.94985 24.36C6.47872 24.1037 9.7494 23.0533 9.93729 23.0783C9.986 23.0846 10.1808 23.4409 10.3687 23.8723ZM23.7576 23.5597C24.6692 23.8348 25.6644 24.1787 25.9775 24.3225C28.3714 25.4416 30.1668 27.7986 30.5356 30.3244L30.5982 30.7496H23.9246H17.258L17.6129 30.2369C17.8147 29.9493 18.2601 29.3366 18.615 28.874C19.8815 27.2047 20.8001 25.7042 21.5169 24.1224C21.7326 23.6598 21.9205 23.2284 21.9414 23.1658C21.9692 23.1096 22.011 23.0596 22.0457 23.0596C22.0805 23.0596 22.846 23.2846 23.7576 23.5597ZM17.2372 25.5104C17.94 26.1418 18.5106 26.6795 18.5106 26.7108C18.5106 26.742 18.1766 27.2172 17.766 27.7611C17.3485 28.3113 16.8057 29.0615 16.5413 29.4242C16.2838 29.793 16.0402 30.0931 16.0054 30.0931C15.9706 30.0931 15.7271 29.793 15.4696 29.4242C15.2052 29.0615 14.6554 28.305 14.2379 27.7549C13.8273 27.1984 13.5002 26.7108 13.5211 26.667C13.5629 26.5732 15.8663 24.3725 15.9289 24.3725C15.9498 24.3725 16.5413 24.8852 17.2372 25.5104Z"
        fill="currentColor" />
    <path
        d="M23.4097 24.8106C23.187 24.8919 22.9644 25.1794 22.9644 25.3794C22.9644 25.6294 23.2845 25.9294 23.5976 25.9731C23.8133 26.0044 23.8899 25.9794 24.0847 25.8231C24.2796 25.6669 24.3213 25.5919 24.3213 25.3731C24.3213 25.1544 24.2796 25.0794 24.0917 24.9294C23.8621 24.7481 23.6742 24.7106 23.4097 24.8106Z"
        fill="currentColor" />
    <path
        d="M25.8516 25.9917C25.6011 26.0855 25.4341 26.3106 25.4341 26.5607C25.4341 26.7795 25.4967 26.8545 26.1021 27.4172C26.4779 27.7673 26.8954 28.23 27.0694 28.4863C27.4034 28.999 27.647 29.1553 28.0089 29.099C28.2733 29.0552 28.4403 28.9052 28.5238 28.6364C28.6421 28.2737 28.0367 27.3734 27.132 26.5669C26.471 25.973 26.2204 25.8604 25.8516 25.9917Z"
        fill="currentColor" />
</svg>