<svg width="26" height="21" viewBox="0 0 26 21" fill="none" xmlns="http://www.w3.org/2000/svg">
<path d="M24.7854 1.43902C25.195 1.65749 25.5218 1.94773 25.7129 2.37627C25.874 2.94061 25.8089 3.46778 25.5445 3.98667C25.1907 4.43003 24.6929 4.66619 24.194 4.91279C21.4828 6.28257 18.9686 8.12623 16.727 10.1706C16.6078 10.2781 16.4875 10.3838 16.3664 10.4891C15.7287 11.0463 15.124 11.6402 14.5245 12.238C14.4745 12.2877 14.4246 12.3373 14.3731 12.3885C14.1248 12.6374 13.8851 12.8899 13.656 13.1566C13.4996 13.3364 13.3345 13.508 13.1706 13.6809C12.8901 13.9789 12.6245 14.2821 12.3692 14.6019C12.2513 14.7463 12.1282 14.8834 12.002 15.0205C11.7136 15.3375 11.4527 15.6735 11.1907 16.0122C11.1145 16.1102 11.0375 16.2076 10.9601 16.3047C10.1498 17.3228 9.3402 18.3751 8.67072 19.4919C8.41494 19.8996 8.07748 20.2401 7.60231 20.3668C7.10919 20.4479 6.64293 20.4274 6.2088 20.1617C5.86271 19.8988 5.61 19.5959 5.36085 19.2425C5.29084 19.1454 5.22077 19.0483 5.15064 18.9512C5.10016 18.881 5.10016 18.881 5.04865 18.8093C4.92773 18.6424 4.80303 18.4791 4.67678 18.3162C4.12829 17.608 3.58613 16.8949 3.04986 16.1775C2.7696 15.803 2.48569 15.4313 2.20195 15.0595C1.96802 14.7528 1.73526 14.4454 1.50519 14.1359C1.38484 13.9752 1.26135 13.8171 1.13777 13.6589C1.09699 13.6063 1.05621 13.5537 1.01419 13.4996C0.933043 13.395 0.851489 13.2908 0.769466 13.1869C0.297114 12.5763 0.134898 12.0962 0.223239 11.3259C0.364659 10.8441 0.692521 10.458 1.13176 10.2178C1.55052 10.0529 2.07461 10.0531 2.5039 10.1791C3.02976 10.4219 3.36289 10.8758 3.697 11.333C3.77237 11.4348 3.84779 11.5366 3.92324 11.6383C3.96175 11.6904 4.00025 11.7424 4.03993 11.796C4.22752 12.0483 4.41824 12.2981 4.60909 12.5479C4.66536 12.6217 4.66536 12.6217 4.72277 12.6969C4.79916 12.797 4.87558 12.8972 4.95201 12.9972C5.15135 13.2583 5.35054 13.5195 5.54968 13.7807C5.58783 13.8307 5.62598 13.8808 5.66529 13.9323C5.90902 14.2522 6.15131 14.5732 6.3914 14.8958C6.46559 14.9939 6.54258 15.0899 6.6212 15.1844C6.72185 15.3163 6.72185 15.3163 6.72185 15.4303C6.79122 15.4456 6.86059 15.4608 6.93206 15.4766C6.99059 15.4895 6.99059 15.4895 7.0503 15.5026C7.36311 15.465 7.59597 15.0449 7.78357 14.8068C7.81326 14.7694 7.84294 14.7321 7.87352 14.6936C8.01946 14.5096 8.16447 14.325 8.30887 14.1399C8.59057 13.7788 8.87649 13.4231 9.17411 13.075C9.33738 12.884 9.49669 12.6904 9.65406 12.4945C9.87447 12.2234 10.1071 11.9663 10.346 11.7116C10.4986 11.5488 10.648 11.384 10.7944 11.2157C11.3928 10.5287 12.0357 9.88266 12.6789 9.23807C12.7108 9.206 12.7428 9.17393 12.7756 9.14089C13.0911 8.82429 13.4067 8.51072 13.7468 8.22029C13.9148 8.07562 14.0746 7.92228 14.2359 7.77018C14.5248 7.49955 14.821 7.24307 15.1301 6.99548C15.2636 6.88687 15.3913 6.77434 15.5185 6.65857C15.8231 6.38515 16.146 6.1359 16.4694 5.88536C16.5897 5.79173 16.7095 5.69736 16.8292 5.60286C17.3995 5.15367 17.9796 4.7239 18.579 4.31423C18.6546 4.26244 18.6546 4.26244 18.7317 4.2096C23.5379 0.928691 23.5379 0.928691 24.7854 1.43902Z" fill="currentColor"/>
</svg>
