<svg width="32" height="32" viewBox="0 0 32 32" fill="none" xmlns="http://www.w3.org/2000/svg">
<path d="M4.35664 0.00813521C4.46114 0.00794655 4.56564 0.00770378 4.67014 0.00741178C4.95643 0.00677096 5.2427 0.00690623 5.52898 0.00717343C5.83808 0.00732752 6.14717 0.00676471 6.45627 0.00629742C7.06147 0.00550218 7.66667 0.00538999 8.27187 0.0055361C8.76384 0.00564741 9.2558 0.00553813 9.74777 0.00527248C9.85283 0.00521676 9.85283 0.00521676 9.96002 0.00515992C10.1023 0.0050843 10.2446 0.00500854 10.3869 0.00493262C11.7211 0.00425403 13.0553 0.00438885 14.3894 0.00476942C15.6097 0.00509201 16.8299 0.00438957 18.0501 0.00320318C19.3034 0.00199393 20.5568 0.00147865 21.8101 0.00171316C22.5136 0.00183248 23.2171 0.00167716 23.9206 0.000794902C24.5194 5.14364e-05 25.1183 -3.62565e-05 25.7172 0.000719402C26.0226 0.00108689 26.328 0.0011555 26.6335 0.000407229C26.9133 -0.000270383 27.1932 -7.67784e-05 27.473 0.000797988C27.574 0.000963175 27.675 0.000815472 27.776 0.000315233C28.9525 -0.00510561 29.985 0.317169 30.8523 1.14769C31.7562 2.07394 31.9951 3.09883 31.9919 4.35664C31.9921 4.46114 31.9923 4.56564 31.9926 4.67014C31.9932 4.95643 31.9931 5.2427 31.9928 5.52898C31.9927 5.83808 31.9932 6.14717 31.9937 6.45627C31.9945 7.06147 31.9946 7.66667 31.9945 8.27187C31.9944 8.76384 31.9945 9.2558 31.9947 9.74777C31.9948 9.81781 31.9948 9.88785 31.9948 9.96002C31.9949 10.1023 31.995 10.2446 31.9951 10.3869C31.9957 11.7211 31.9956 13.0553 31.9952 14.3894C31.9949 15.6097 31.9956 16.8299 31.9968 18.0501C31.998 19.3034 31.9985 20.5568 31.9983 21.8101C31.9982 22.5136 31.9983 23.2171 31.9992 23.9206C32 24.5194 32 25.1183 31.9993 25.7172C31.9989 26.0226 31.9988 26.328 31.9996 26.6335C32.0003 26.9133 32.0001 27.1932 31.9992 27.473C31.999 27.574 31.9992 27.675 31.9997 27.776C32.0051 28.9525 31.6828 29.985 30.8523 30.8523C29.9261 31.7562 28.9012 31.9951 27.6434 31.9919C27.5389 31.9921 27.4344 31.9923 27.3299 31.9926C27.0436 31.9932 26.7573 31.9931 26.471 31.9928C26.1619 31.9927 25.8528 31.9932 25.5437 31.9937C24.9385 31.9945 24.3333 31.9946 23.7281 31.9945C23.2362 31.9944 22.7442 31.9945 22.2522 31.9947C22.1472 31.9948 22.1472 31.9948 22.04 31.9948C21.8977 31.9949 21.7554 31.995 21.6131 31.9951C20.2789 31.9957 18.9447 31.9956 17.6106 31.9952C16.3903 31.9949 15.1701 31.9956 13.9499 31.9968C12.6966 31.998 11.4432 31.9985 10.1899 31.9983C9.48641 31.9982 8.78293 31.9983 8.07944 31.9992C7.48057 32 6.88171 32 6.28284 31.9993C5.9774 31.9989 5.67197 31.9988 5.36653 31.9996C5.08668 32.0003 4.80684 32.0001 4.52698 31.9992C4.42599 31.999 4.325 31.9992 4.22401 31.9997C3.04753 32.0051 2.01496 31.6828 1.14769 30.8523C0.243809 29.9261 0.0049167 28.9012 0.0081351 27.6434C0.00794644 27.5389 0.00770389 27.4344 0.00741188 27.3299C0.00677107 27.0436 0.00690616 26.7573 0.00717335 26.471C0.00732745 26.1619 0.0067646 25.8528 0.00629731 25.5437C0.00550207 24.9385 0.0053899 24.3333 0.00553601 23.7281C0.00564732 23.2362 0.00553789 22.7442 0.00527225 22.2522C0.0052351 22.1822 0.00519815 22.1121 0.00515988 22.04C0.00508426 21.8977 0.00500822 21.7554 0.0049323 21.6131C0.00425371 20.2789 0.0043889 18.9447 0.00476947 17.6106C0.00509206 16.3903 0.00438947 15.1701 0.00320307 13.9499C0.00199383 12.6966 0.00147834 11.4432 0.00171285 10.1899C0.00183218 9.48641 0.00167717 8.78293 0.000794909 8.07944C5.14433e-05 7.48057 -3.64514e-05 6.88171 0.000719207 6.28284C0.00108669 5.9774 0.00115563 5.67197 0.000407355 5.36653C-0.000270257 5.08668 -7.70001e-05 4.80684 0.000797766 4.52698C0.000962953 4.42599 0.000815228 4.325 0.00031499 4.22401C-0.00510585 3.04753 0.317169 2.01496 1.14769 1.14769C2.07394 0.243809 3.09883 0.00491681 4.35664 0.00813521ZM4.0183 4.0183C4.0183 11.9262 4.0183 19.8341 4.0183 27.9817C11.9262 27.9817 19.8341 27.9817 27.9817 27.9817C27.9817 20.0738 27.9817 12.1659 27.9817 4.0183C20.0738 4.0183 12.1659 4.0183 4.0183 4.0183Z" fill="currentColor"/>
</svg>
