<svg width="32" height="32" viewBox="0 0 32 32" fill="none" xmlns="http://www.w3.org/2000/svg">
<path d="M7.48837 3.62125C7.58536 3.65497 7.68239 3.68856 7.77947 3.72203C7.99051 3.79508 8.20123 3.86893 8.41178 3.94339C8.76403 4.06787 9.11711 4.1899 9.47031 4.31168C9.98612 4.4897 10.5017 4.66851 11.0169 4.84806C11.5427 5.03124 12.0685 5.21408 12.5946 5.3964C12.6587 5.41862 12.7228 5.44084 12.7888 5.46373C12.9177 5.50839 13.0466 5.55305 13.1754 5.59771C14.3608 6.00859 15.5456 6.421 16.7299 6.8349C16.7834 6.85359 16.8369 6.87227 16.892 6.89152C16.9909 6.92605 17.0897 6.9606 17.1885 6.99518C17.2325 7.01055 17.2766 7.02593 17.3219 7.04177C17.3596 7.05494 17.3973 7.06811 17.4361 7.08168C17.4778 7.09603 17.5196 7.11038 17.5626 7.12516C17.6177 7.14635 17.6728 7.16753 17.7296 7.18936C17.9602 7.25677 18.1513 7.26599 18.3913 7.2663C18.4356 7.26653 18.4799 7.26676 18.5255 7.267C18.6732 7.26762 18.8209 7.26736 18.9685 7.26711C19.0747 7.26738 19.1809 7.26771 19.2871 7.2681C19.5154 7.26882 19.7438 7.26916 19.9721 7.26922C20.3336 7.26934 20.6951 7.27047 21.0565 7.27176C21.9544 7.27484 22.8524 7.27677 23.7503 7.2781C24.448 7.27913 25.1456 7.28056 25.8433 7.28328C26.2022 7.28464 26.5611 7.28515 26.92 7.28501C27.1439 7.28511 27.3678 7.28599 27.5916 7.28709C27.695 7.28743 27.7983 7.28747 27.9017 7.28715C28.7275 7.2849 29.4364 7.35733 30.0709 7.93375C30.6054 8.48596 30.7264 9.09262 30.7186 9.84342C30.7187 9.91523 30.7188 9.98704 30.7189 10.061C30.7188 10.2116 30.7181 10.3621 30.7168 10.5126C30.7149 10.743 30.7155 10.9734 30.7163 11.2038C30.7159 11.3506 30.7154 11.4974 30.7147 11.6442C30.7149 11.7129 30.7151 11.7816 30.7152 11.8523C30.7145 11.9164 30.7137 11.9805 30.7128 12.0465C30.7123 12.1306 30.7123 12.1306 30.7118 12.2164C30.6821 12.4115 30.6155 12.5287 30.5001 12.6877C30.3216 12.7941 30.3216 12.7941 30.1134 12.8908C29.4282 13.2452 29.1149 13.7142 28.8751 14.4377C28.6244 15.2371 28.7275 16.0822 29.0821 16.8361C29.3651 17.3491 29.6704 17.6147 30.1915 17.8852C30.4143 18.0026 30.5623 18.0931 30.6876 18.3127C30.7118 18.516 30.7118 18.516 30.7128 18.7604C30.7135 18.8274 30.7135 18.8274 30.7141 18.8957C30.7153 19.0433 30.715 19.1908 30.7147 19.3383C30.715 19.4414 30.7153 19.5445 30.7157 19.6476C30.7162 19.8639 30.7161 20.0802 30.7155 20.2965C30.7148 20.572 30.716 20.8476 30.7178 21.1231C30.719 21.3363 30.719 21.5494 30.7186 21.7626C30.7186 21.864 30.719 21.9655 30.7198 22.067C30.7253 22.9017 30.6326 23.5552 30.0311 24.1774C29.7238 24.4439 29.4084 24.6054 29.0041 24.6559C28.8414 24.6967 28.7711 24.72 28.6742 24.8591C28.6124 25.0099 28.5652 25.16 28.5208 25.3168C28.5029 25.3736 28.4849 25.4303 28.4664 25.4888C28.4092 25.6704 28.3549 25.8527 28.3009 26.0353C28.2456 26.2161 28.1898 26.3967 28.1334 26.5772C28.0984 26.6893 28.0643 26.8017 28.0311 26.9144C27.8368 27.5517 27.5569 28.054 27.0001 28.4377C26.4105 28.7514 25.81 28.7727 25.1765 28.5867C24.9275 28.5085 24.6806 28.4246 24.4337 28.34C24.3219 28.3026 24.21 28.2652 24.0981 28.228C23.2487 27.9437 22.4034 27.6472 21.5587 27.3496C20.1402 26.851 18.714 26.375 17.2889 25.8957C17.0755 25.8239 16.8621 25.7521 16.6488 25.6803C16.5027 25.6312 16.3565 25.5821 16.2104 25.5331C16.1417 25.5099 16.1417 25.5099 16.0715 25.4862C15.9789 25.4551 15.8861 25.4245 15.7931 25.3943C15.5601 25.3176 15.3365 25.2348 15.114 25.1311C14.0747 24.6695 12.949 24.7525 11.8356 24.7598C11.5378 24.7613 11.2401 24.7601 10.9424 24.7592C10.3798 24.7579 9.81727 24.7587 9.25471 24.7604C8.2463 24.7633 7.23789 24.7623 6.22948 24.7609C5.87632 24.7606 5.52317 24.761 5.17 24.7621C4.9503 24.7628 4.73059 24.7629 4.51088 24.7629C4.40955 24.7631 4.30822 24.7634 4.2069 24.764C3.32961 24.7689 2.60608 24.7318 1.92099 24.1247C1.30538 23.4885 1.27452 22.7589 1.27939 21.9186C1.27922 21.8153 1.27898 21.7119 1.27867 21.6085C1.2783 21.3933 1.27883 21.178 1.28 20.9627C1.28143 20.6872 1.2806 20.4117 1.27911 20.1362C1.2782 19.9234 1.27849 19.7105 1.27914 19.4976C1.27931 19.396 1.2791 19.2944 1.27852 19.1928C1.27788 19.051 1.27885 18.9093 1.28024 18.7675C1.28044 18.687 1.28064 18.6065 1.28085 18.5236C1.31808 18.2762 1.38725 18.1753 1.56259 18.0002C1.74936 17.8937 1.74936 17.8937 1.95712 17.797C2.35406 17.5919 2.5825 17.3801 2.81259 17.0002C2.83733 16.9611 2.86206 16.922 2.88754 16.8817C3.27165 16.2035 3.3435 15.3795 3.17978 14.6291C3.01477 14.0353 2.76343 13.4322 2.25009 13.0627C2.03974 12.9444 1.82953 12.8347 1.61215 12.7299C1.42266 12.6162 1.38866 12.575 1.31259 12.3752C1.29588 12.224 1.29588 12.224 1.29444 12.0536C1.29364 11.9895 1.29284 11.9254 1.29202 11.8594C1.29188 11.7904 1.29174 11.7214 1.2916 11.6503C1.29118 11.5788 1.29077 11.5072 1.29034 11.4335C1.2897 11.2819 1.28941 11.1304 1.28943 10.9788C1.28916 10.7486 1.28689 10.5185 1.28452 10.2884C1.28415 10.1408 1.2839 9.9932 1.28378 9.84562C1.28289 9.77749 1.28199 9.70937 1.28106 9.63918C1.28523 8.92994 1.47783 8.39591 1.97348 7.88565C2.37039 7.53093 2.72182 7.40031 3.25009 7.37516C3.25937 7.33835 3.26864 7.30155 3.2782 7.26363C3.41418 6.74406 3.58173 6.23671 3.75501 5.72866C3.80484 5.58201 3.85376 5.43508 3.90268 5.28812C4.15733 4.53362 4.42254 3.90316 5.14047 3.47989C5.92552 3.11251 6.71717 3.34401 7.48837 3.62125ZM5.50009 5.00016C5.41152 5.16232 5.35492 5.32893 5.29941 5.5048C5.28329 5.55261 5.26718 5.60043 5.25057 5.64969C5.19979 5.80132 5.15073 5.95344 5.10166 6.10563C5.06734 6.20857 5.03292 6.31147 4.99838 6.41434C4.82725 6.85558 4.82725 6.85558 4.75009 7.31266C7.67884 7.31266 10.6076 7.31266 13.6251 7.31266C13.4528 7.1978 13.3199 7.13983 13.1262 7.0736C13.0622 7.05157 12.9982 7.02955 12.9323 7.00686C12.8625 6.98314 12.7927 6.95941 12.7208 6.93497C12.6478 6.90992 12.5749 6.88488 12.4997 6.85907C12.3423 6.80509 12.1849 6.7512 12.0275 6.69747C11.7806 6.61321 11.5338 6.52858 11.287 6.44387C11.246 6.42977 11.2049 6.41567 11.1626 6.40115C11.0794 6.37261 10.9963 6.34406 10.9132 6.31552C10.7878 6.27249 10.6624 6.2295 10.5371 6.18651C9.78954 5.93015 9.04303 5.6709 8.29697 5.41031C8.18926 5.37274 8.08155 5.33517 7.97385 5.2976C7.92302 5.27984 7.87219 5.26208 7.81983 5.24379C7.7225 5.2098 7.62515 5.17586 7.52777 5.14198C7.30814 5.06535 7.08928 4.98731 6.87155 4.9054C6.79441 4.87665 6.71727 4.8479 6.63779 4.81827C6.53836 4.78032 6.53836 4.78032 6.43692 4.7416C6.03297 4.62497 5.77448 4.66658 5.50009 5.00016ZM2.81868 9.0261C2.57776 9.37406 2.65586 9.93465 2.64855 10.3442C2.64594 10.4582 2.6421 10.5721 2.63701 10.686C2.5824 11.3397 2.5824 11.3397 2.82071 11.917C2.98042 12.0278 3.13655 12.1064 3.31259 12.1877C4.08296 12.8026 4.49912 13.7914 4.62509 14.7502C4.71045 16.0159 4.50519 17.1784 3.67856 18.1857C3.44174 18.445 3.19717 18.6948 2.86977 18.8295C2.65445 19.0312 2.65772 19.0823 2.64105 19.3668C2.63942 19.5218 2.63994 19.6768 2.64218 19.8317C2.64212 19.9137 2.64206 19.9957 2.64199 20.0802C2.64201 20.2537 2.64331 20.4271 2.64557 20.6006C2.6484 20.8223 2.64848 21.0438 2.64763 21.2655C2.64711 21.4777 2.64861 21.6898 2.65 21.902C2.64988 21.9813 2.64977 22.0606 2.64965 22.1423C2.65471 22.6855 2.65471 22.6855 2.93759 23.1252C3.1516 23.326 3.30512 23.3356 3.59464 23.3339C3.63491 23.334 3.67518 23.334 3.71667 23.334C3.84925 23.3339 3.98178 23.3324 4.11435 23.331C4.20648 23.3306 4.2986 23.3303 4.39073 23.3302C4.63281 23.3294 4.87488 23.3276 5.11695 23.3255C5.36413 23.3236 5.61131 23.3228 5.85849 23.3218C6.3432 23.3198 6.82789 23.3166 7.31259 23.3127C7.31493 23.2531 7.31727 23.1936 7.31967 23.1322C7.32378 23.0538 7.32789 22.9755 7.33212 22.8947C7.33575 22.8171 7.33938 22.7395 7.34311 22.6596C7.37592 22.4319 7.42638 22.3081 7.56259 22.1252C7.75825 22.0129 7.96711 21.9805 8.18808 22.026C8.34862 22.0872 8.47298 22.1486 8.57236 22.2917C8.64457 22.4916 8.65239 22.6789 8.66416 22.8908C8.67117 23.0092 8.67117 23.0092 8.67832 23.13C8.68138 23.1903 8.68444 23.2506 8.68759 23.3127C11.245 23.3198 13.8024 23.3253 16.3599 23.3286C16.6617 23.329 16.9635 23.3294 17.2653 23.3298C17.3254 23.3299 17.3855 23.33 17.4474 23.3301C18.4208 23.3314 19.3941 23.3339 20.3675 23.3368C21.366 23.3397 22.3645 23.3414 23.363 23.3421C23.9793 23.3425 24.5956 23.3438 25.2119 23.3464C25.6343 23.348 26.0568 23.3485 26.4792 23.3481C26.723 23.3479 26.9669 23.3482 27.2107 23.3499C27.434 23.3514 27.6571 23.3515 27.8804 23.3504C27.9994 23.3502 28.1184 23.3516 28.2375 23.353C28.672 23.3566 28.672 23.3566 29.0454 23.1617C29.2776 22.898 29.3279 22.7371 29.3387 22.3865C29.3423 22.2766 29.3423 22.2766 29.346 22.1645C29.3532 21.8297 29.3594 21.4949 29.3632 21.16C29.3654 20.9836 29.3698 20.8074 29.376 20.631C29.3851 20.3762 29.3878 20.1216 29.3902 19.8666C29.3954 19.7491 29.3954 19.7491 29.4008 19.6292C29.3992 19.2871 29.3926 19.0833 29.1489 18.83C29.0192 18.7274 28.8883 18.6427 28.7476 18.5543C27.9978 18.0816 27.6649 17.1904 27.4376 16.3752C27.1788 15.173 27.4186 13.9129 28.0626 12.8752C28.3926 12.4353 28.8147 11.9991 29.3126 11.7502C29.3172 11.4087 29.3206 11.0673 29.3229 10.7259C29.3238 10.6098 29.3251 10.4937 29.3267 10.3776C29.329 10.2105 29.3301 10.0435 29.3309 9.87638C29.3319 9.82467 29.3328 9.77297 29.3338 9.7197C29.3339 9.42735 29.3177 9.23489 29.1251 9.00016C28.9003 8.79061 28.7672 8.71892 28.4598 8.71939C28.3538 8.71865 28.3538 8.71865 28.2455 8.71789C28.1294 8.71898 28.1294 8.71898 28.011 8.72009C27.9285 8.71988 27.8461 8.71967 27.7611 8.71945C27.5324 8.71889 27.3037 8.71989 27.0749 8.72114C26.8282 8.72222 26.5815 8.72185 26.3347 8.72166C25.9073 8.72153 25.4799 8.72232 25.0525 8.72372C24.4345 8.72576 23.8165 8.72641 23.1985 8.72672C22.1959 8.72727 21.1933 8.72893 20.1907 8.7313C19.2167 8.73359 18.2427 8.73536 17.2688 8.73642C17.1787 8.73652 17.1787 8.73652 17.0868 8.73662C16.7857 8.73695 16.4845 8.73726 16.1834 8.73758C13.6848 8.74017 11.1862 8.74457 8.68759 8.75016C8.68526 8.80518 8.68292 8.86021 8.68051 8.9169C8.6764 8.98949 8.6723 9.06209 8.66806 9.13688C8.66444 9.20866 8.66081 9.28044 8.65708 9.3544C8.62337 9.57391 8.56888 9.69784 8.43759 9.87516C8.20705 9.99043 7.93926 9.96815 7.68759 9.93766C7.52657 9.81983 7.4628 9.73807 7.37509 9.56266C7.36075 9.42488 7.34942 9.28679 7.33994 9.14859C7.3347 9.07431 7.32946 9.00003 7.32407 8.9235C7.32028 8.86629 7.31649 8.80909 7.31259 8.75016C6.78232 8.74145 6.25208 8.73479 5.72176 8.73073C5.47548 8.72877 5.22924 8.72613 4.98299 8.72187C4.74511 8.71778 4.50727 8.71555 4.26935 8.71458C4.17882 8.71389 4.08829 8.71254 3.99778 8.71051C3.34891 8.68929 3.34891 8.68929 2.81868 9.0261ZM18.5001 24.7502C18.7043 24.8863 18.908 24.9604 19.1378 25.0397C19.1851 25.0563 19.2325 25.0729 19.2813 25.0899C19.4427 25.1463 19.6042 25.2022 19.7657 25.258C19.8219 25.2774 19.878 25.2969 19.9359 25.3169C20.2592 25.4288 20.5826 25.5402 20.9061 25.6513C21.2476 25.7687 21.5888 25.8866 21.93 26.0047C22.38 26.1605 22.8303 26.3155 23.2809 26.4697C23.5328 26.5559 23.7845 26.6424 24.0361 26.7297C24.2763 26.813 24.5169 26.8955 24.7578 26.9772C24.8474 27.0078 24.937 27.0387 25.0264 27.07C25.15 27.1132 25.2741 27.1552 25.3982 27.1969C25.468 27.2209 25.5377 27.2449 25.6096 27.2695C25.8464 27.3198 26.0153 27.3063 26.2501 27.2502C26.5145 27.0012 26.6201 26.7701 26.7298 26.4213C26.75 26.3583 26.75 26.3583 26.7705 26.2939C26.7985 26.2059 26.826 26.1177 26.8532 26.0294C26.8948 25.8941 26.9376 25.7593 26.9807 25.6245C27.1298 25.1955 27.1298 25.1955 27.1876 24.7502C24.3207 24.7502 21.4538 24.7502 18.5001 24.7502Z" fill="currentColor"/>
<path d="M22.125 12.1874C22.32 12.2994 22.4093 12.39 22.5234 12.5819C22.5798 12.8245 22.5753 12.9454 22.5 13.1874C22.15 13.6318 21.7316 14.0273 21.3315 14.4264C21.2738 14.4842 21.2162 14.542 21.1567 14.6016C21.0005 14.758 20.8441 14.9143 20.6877 15.0706C20.5232 15.2348 20.359 15.3992 20.1947 15.5636C19.9194 15.839 19.644 16.1143 19.3686 16.3894C19.0502 16.7074 18.7321 17.0256 18.4141 17.344C18.1402 17.6182 17.8662 17.8922 17.5921 18.1662C17.4287 18.3294 17.2654 18.4927 17.1022 18.6562C16.9208 18.8378 16.7391 19.0192 16.5574 19.2006C16.5034 19.2547 16.4494 19.3087 16.3938 19.3645C16.3444 19.4137 16.295 19.4629 16.2441 19.5136C16.2013 19.5565 16.1584 19.5994 16.1142 19.6435C15.8551 19.8847 15.6801 19.9013 15.3405 19.8954C15.1268 19.8668 15.0184 19.7822 14.875 19.6249C14.7627 19.4004 14.7698 19.1815 14.8125 18.9374C14.8896 18.8202 14.8896 18.8202 14.9947 18.7073C15.0347 18.6641 15.0746 18.6209 15.1158 18.5764C15.3635 18.3198 15.6132 18.0655 15.8656 17.8136C15.9265 17.7527 15.9873 17.6918 16.0481 17.6308C16.2118 17.4668 16.3757 17.303 16.5396 17.1393C16.7116 16.9675 16.8834 16.7956 17.0552 16.6236C17.3433 16.3355 17.6314 16.0475 17.9197 15.7595C18.2531 15.4265 18.5862 15.0932 18.9193 14.7598C19.2057 14.4731 19.4922 14.1865 19.7789 13.9001C19.9499 13.7291 20.1209 13.5582 20.2917 13.3871C20.452 13.2266 20.6124 13.0663 20.773 12.9062C20.8601 12.8191 20.9471 12.732 21.0341 12.6448C21.0857 12.5933 21.1373 12.5419 21.1905 12.4889C21.2354 12.444 21.2804 12.3991 21.3267 12.3528C21.5608 12.1353 21.8198 12.1494 22.125 12.1874Z" fill="currentColor"/>
<path d="M22.9377 17.2498C23.4474 17.6022 23.8536 18.0764 24.0002 18.6873C24.1136 19.313 24.0364 19.8974 23.6877 20.4373C23.3211 20.9382 22.9186 21.23 22.3127 21.3748C21.5467 21.4379 20.9742 21.3689 20.3796 20.8706C19.9013 20.4239 19.6463 19.8856 19.6152 19.2242C19.6463 18.5762 19.8647 18.0353 20.3127 17.5623C21.0832 16.9087 22.0301 16.8349 22.9377 17.2498ZM21.3127 18.5623C21.1258 18.7633 21.0482 18.9208 21.0354 19.1912C21.0738 19.5366 21.1584 19.6725 21.4221 19.8943C21.6637 20.0198 21.7939 20.0382 22.0627 19.9998C22.3338 19.859 22.5086 19.7224 22.6252 19.4373C22.6618 19.1877 22.6495 18.9947 22.551 18.7615C22.3869 18.5634 22.2189 18.4727 21.9807 18.3826C21.7285 18.3709 21.5311 18.4374 21.3127 18.5623Z" fill="currentColor"/>
<path d="M16.7608 11.034C17.3055 11.4814 17.6306 11.9752 17.7073 12.6824C17.7335 13.3349 17.5441 13.8754 17.1233 14.3748C16.6806 14.8245 16.1245 15.0607 15.4922 15.0821C14.8234 15.0281 14.2853 14.8251 13.8203 14.3204C13.3363 13.7244 13.248 13.1276 13.3125 12.3751C13.4584 11.8104 13.7414 11.3332 14.2346 11.0135C15.0197 10.5713 15.9977 10.4919 16.7608 11.034ZM14.875 12.3126C14.698 12.5638 14.657 12.7588 14.7093 13.0648C14.7804 13.2791 14.9036 13.4036 15.0625 13.5626C15.28 13.6713 15.5123 13.6531 15.75 13.6251C16.0094 13.505 16.1037 13.4121 16.2461 13.1641C16.3361 12.8572 16.3032 12.6829 16.1758 12.3946C15.9811 12.1462 15.7771 12.0737 15.4688 12.0352C15.2022 12.0685 15.0778 12.1374 14.875 12.3126Z" fill="currentColor"/>
<path d="M8.18759 10.9375C8.41621 11.065 8.54193 11.1565 8.68759 11.375C8.71332 11.6582 8.71082 11.9421 8.71075 12.2264C8.71103 12.3662 8.7133 12.5059 8.71567 12.6457C8.71603 12.735 8.71628 12.8243 8.7164 12.9135C8.71691 12.9945 8.71743 13.0755 8.71796 13.1589C8.68278 13.4092 8.61293 13.5094 8.43759 13.6875C8.23326 13.8305 8.05823 13.8419 7.81259 13.8125C7.58398 13.685 7.45825 13.5935 7.31259 13.375C7.28686 13.0917 7.28937 12.8078 7.28943 12.5235C7.28916 12.3837 7.28689 12.244 7.28452 12.1042C7.28415 12.0149 7.2839 11.9257 7.28378 11.8364C7.28327 11.7554 7.28276 11.6745 7.28223 11.5911C7.3174 11.3407 7.38726 11.2405 7.56259 11.0625C7.76693 10.9194 7.94195 10.908 8.18759 10.9375Z" fill="currentColor"/>
<path d="M8.18738 14.5625C8.41599 14.69 8.54172 14.7815 8.68738 15C8.71164 15.2744 8.70795 15.5494 8.70711 15.8247C8.70691 15.96 8.70837 16.0952 8.70996 16.2304C8.7101 16.3169 8.71015 16.4033 8.71008 16.4897C8.71027 16.5681 8.71045 16.6464 8.71065 16.7271C8.68554 16.9541 8.63707 17.0695 8.49988 17.25C8.28493 17.3965 8.16338 17.4381 7.90222 17.4336C7.66874 17.3699 7.54737 17.2924 7.37488 17.125C7.23485 16.8449 7.29559 16.4646 7.29393 16.1532C7.29285 16.0129 7.29011 15.8726 7.28735 15.7323C7.28672 15.6427 7.28619 15.5531 7.28577 15.4636C7.28485 15.3822 7.28394 15.3009 7.283 15.2171C7.31704 14.9655 7.38616 14.866 7.56238 14.6875C7.76671 14.5444 7.94174 14.533 8.18738 14.5625Z" fill="currentColor"/>
<path d="M8.08578 18.1915C8.15612 18.1945 8.15612 18.1945 8.22787 18.1976C8.40063 18.2593 8.51356 18.3366 8.62573 18.4828C8.75833 18.789 8.72803 19.1356 8.72122 19.464C8.7186 19.5976 8.71866 19.7311 8.71909 19.8647C8.71348 20.5962 8.71348 20.5962 8.49985 20.8751C8.2517 21.0259 8.07844 21.0853 7.79672 21.0235C7.48242 20.9083 7.48242 20.9083 7.37485 20.7501C7.26689 20.4262 7.29331 20.0803 7.29047 19.7412C7.28943 19.6511 7.28773 19.561 7.28534 19.4709C7.2819 19.3402 7.28055 19.2096 7.27963 19.0789C7.27839 19.0009 7.27716 18.9229 7.27588 18.8425C7.32443 18.553 7.41691 18.4544 7.62485 18.2501C7.80449 18.1902 7.90095 18.1792 8.08578 18.1915Z" fill="currentColor"/>
</svg>
